<svg width="369" height="984" viewBox="0 0 369 984" fill="none" xmlns="http://www.w3.org/2000/svg">
<path d="M-27.473 921.378L-33.0938 889.758L-27.1103 887.67L-14.962 900.945L-12.2423 903.928L-3.90172 913.175L1.71913 944.795L-4.26432 946.883L-16.4126 933.609L-18.951 930.775L-27.473 921.378ZM-27.473 921.378L-22.7587 919.738M-22.7587 919.738L-23.6653 914.07L-15.6873 907.06L-8.43465 914.816L-7.52806 920.483L-8.07199 921.08L-15.506 927.494L-22.7587 919.738ZM-24.3905 909.297L-27.1103 894.531L-18.4071 904.077L-24.3905 909.297ZM-12.6049 930.328L-6.62148 924.958L-4.08299 939.873L-12.6049 930.328Z" stroke="#102237" stroke-opacity="0.12" stroke-width="0.5" stroke-miterlimit="10"/>
<path d="M13.1422 764.023L16.4059 766.26L31.9992 776.85L37.2574 773.718L22.9333 744.037L12.0543 736.728L8.6093 734.342L-6.984 723.752L-12.2422 726.884L2.08186 756.565L13.1422 764.023ZM23.296 756.267L30.0047 770.138L18.9443 762.532L23.296 756.267ZM9.33456 740.308L18.5817 746.423L21.1202 751.643L15.318 759.996L6.07081 753.732L3.53238 748.511V748.362L9.33456 740.308ZM1.53788 744.335L-5.17083 730.464L5.88954 738.071L1.53788 744.335Z" stroke="#102237" stroke-opacity="0.12" stroke-width="0.5" stroke-miterlimit="10"/>
<path d="M70.9822 798.328L60.1031 791.019L56.6581 788.633L41.0648 778.043L35.8066 781.175L50.1307 810.856L61.0097 818.314L64.4547 820.701L80.048 831.29L85.3062 828.158L70.9822 798.328ZM49.5867 798.626L42.878 784.755L53.9384 792.362L49.5867 798.626ZM63.5482 814.585L54.301 808.321L51.7625 803.101L57.5647 794.748L66.8118 801.012L69.3503 806.233L63.5482 814.585ZM66.9932 816.972L71.3448 810.707L78.0535 824.578L66.9932 816.972Z" stroke="#102237" stroke-opacity="0.12" stroke-width="0.5" stroke-miterlimit="10"/>
<path d="M98.1795 865.297L83.8555 835.616L89.1137 832.483L104.707 843.073L108.152 845.46L119.031 852.768L133.355 882.599L128.097 885.731L112.504 875.141L109.24 872.904L98.1795 865.297ZM98.1795 865.297L102.35 862.761M102.35 862.761L99.8114 857.541L105.614 849.188L114.861 855.453L117.399 860.673L117.037 861.27L111.597 869.026L102.35 862.761ZM97.8169 852.917L91.1082 839.046L102.168 846.653L97.8169 852.917ZM126.284 878.87L115.223 871.263L119.575 864.999L126.284 878.87Z" stroke="#102237" stroke-opacity="0.12" stroke-width="0.5" stroke-miterlimit="10"/>
<path d="M48.6804 667.074L52.4881 662.898L28.3729 637.841L15.4994 633.366L11.3291 631.875L-7.34662 625.461L-11.1543 629.637L12.9609 654.695L25.8345 659.169L30.0047 660.661L48.6804 667.074ZM33.2684 649.624L44.6915 661.257L31.4553 656.634L33.2684 649.624ZM8.24667 643.21L-2.99502 631.427L10.2412 636.051L8.24667 643.21ZM29.6421 646.044L27.1037 655.142L16.2246 651.413L11.873 646.939L14.4114 637.542L25.4718 641.271L29.8234 645.746L29.6421 646.044Z" stroke="#102237" stroke-opacity="0.12" stroke-width="0.5" stroke-miterlimit="10"/>
<path d="M113.773 707.793L117.581 703.617L93.4656 678.559L80.5921 674.085L76.4218 672.593L57.7461 666.18L53.9385 670.356L78.0536 695.414L91.8338 700.186L95.2788 701.38L113.773 707.793ZM73.3394 683.63V683.78L62.0978 671.997L75.3339 676.62L73.3394 683.63ZM92.1964 695.861L81.1361 692.132L76.7844 687.658L79.5042 678.261L90.3832 681.99L94.7349 686.464L92.1964 695.861ZM98.3612 690.193L109.603 701.976L96.3667 697.352L98.3612 690.193Z" stroke="#102237" stroke-opacity="0.12" stroke-width="0.5" stroke-miterlimit="10"/>
<path d="M160.371 742.097L179.047 748.511L182.854 744.335L158.739 719.277L145.866 714.803L141.695 713.311L123.02 706.897L119.212 711.074L143.327 736.131L156.382 740.606L160.371 742.097ZM163.453 730.762L174.695 742.545L161.459 737.921L163.453 730.762ZM138.431 724.348V724.497L127.19 712.714L140.426 717.338L138.431 724.348ZM146.41 732.701L142.058 728.226L144.778 718.83L155.838 722.558L160.19 727.033L160.008 727.63L157.651 736.28L146.41 732.701Z" stroke="#102237" stroke-opacity="0.12" stroke-width="0.5" stroke-miterlimit="10"/>
<path d="M223.832 759.996L210.958 755.521L206.788 754.03L188.112 747.616L184.305 751.792L208.42 776.85L211.502 773.42L207.151 768.945L207.332 768.498L209.87 759.698L220.931 763.426L225.282 767.901V768.199L222.744 777.297L211.865 773.569L208.783 776.999L222.019 781.623L226.008 782.965L244.683 789.379L248.491 785.203L223.832 759.996ZM203.524 765.216L192.283 753.433L205.519 758.057L203.524 765.216ZM228.546 771.481L239.788 783.264L226.552 778.64L228.546 771.481Z" stroke="#102237" stroke-opacity="0.12" stroke-width="0.5" stroke-miterlimit="10"/>
<path d="M72.2515 584.444L103.438 603.386L101.081 608.308L81.1361 606.071L76.6031 605.623L62.6417 604.132L31.4551 585.19L33.8122 580.268L53.7571 582.505L58.2901 582.952L72.2515 584.444ZM72.2515 584.444L70.9823 586.979M39.7957 585.04L54.1197 586.681L54.4824 593.99L39.7957 585.04ZM64.6362 600.105L59.0153 596.823L58.4714 587.278L70.257 588.471L75.8778 591.901L76.4218 601.447L64.6362 600.105ZM80.5921 594.735V594.437L95.2788 603.386L80.9547 601.745L80.5921 594.735Z" stroke="#102237" stroke-opacity="0.12" stroke-width="0.5" stroke-miterlimit="10"/>
<path d="M153.662 630.83L156.926 631.129L176.871 633.366L179.228 628.444L148.042 609.501L134.08 608.01L129.547 607.562L109.602 605.325L107.245 610.247L138.432 629.19L153.662 630.83ZM171.069 628.593L156.745 626.952L156.382 619.644L171.069 628.593ZM115.586 610.098L129.91 611.739L130.272 618.451V619.047L115.586 610.098ZM134.805 621.881L134.261 612.335L146.047 613.529L151.668 616.959L152.212 626.505L140.426 625.312L134.805 621.881Z" stroke="#102237" stroke-opacity="0.12" stroke-width="0.5" stroke-miterlimit="10"/>
<path d="M232.899 656.336L252.844 658.424L255.201 653.502L224.014 634.708L210.053 633.217L205.52 632.77L185.575 630.532L183.218 635.454L214.404 654.397L228.547 655.888L232.899 656.336ZM246.86 653.651L232.536 652.01L232.173 644.702L246.86 653.651ZM206.064 644.105L191.377 635.305L205.701 636.946L206.064 644.105ZM216.218 650.369L210.597 646.939L210.053 637.393L221.838 638.586L227.459 642.017V642.763L227.822 651.712L216.218 650.369Z" stroke="#102237" stroke-opacity="0.12" stroke-width="0.5" stroke-miterlimit="10"/>
<path d="M299.804 659.915L285.843 658.423L281.31 657.976L261.365 655.738L259.008 660.66L290.194 679.603L304.156 681.094L308.689 681.542L328.634 683.779L330.991 678.857L299.804 659.915ZM281.854 669.311L267.167 660.362L281.491 662.003L281.854 669.311ZM307.963 670.057L322.65 678.857L308.326 677.216L307.963 670.057ZM303.793 676.769L292.008 675.576L286.387 672.145L285.843 662.599L297.628 663.792L303.249 667.223L303.793 676.769Z" stroke="#102237" stroke-opacity="0.12" stroke-width="0.5" stroke-miterlimit="10"/>
<path d="M97.9983 532.838L102.531 532.539L122.657 530.899L123.564 525.678L87.8445 513.299L73.8831 514.492L69.3502 514.79L49.224 516.431L48.3174 521.651L84.0368 534.031L97.9983 532.838ZM115.586 527.319L101.262 528.512L98.9049 521.502L115.586 527.319ZM56.2953 520.011L70.6194 518.817L72.7952 525.38L72.9765 525.828L56.2953 520.011ZM78.4161 527.468L75.3336 518.37L87.1193 517.326L93.4654 519.563V519.862L96.5478 528.811L84.7622 529.855L78.4161 527.617V527.468Z" stroke="#102237" stroke-opacity="0.12" stroke-width="0.5" stroke-miterlimit="10"/>
<path d="M204.431 535.671L168.712 523.143L154.75 524.336L150.217 524.634L130.091 526.275L129.185 531.495L164.904 544.024L179.953 542.681L183.398 542.383L203.525 540.743L204.431 535.671ZM137.162 530.004L151.487 528.81L153.844 535.821L137.162 530.004ZM165.629 539.848L159.283 537.61L159.102 537.163L156.201 528.512L167.986 527.468L168.349 525.976L168.168 527.468L174.514 529.705L174.877 531.048L177.596 538.953L165.629 539.848ZM181.948 538.505L179.591 531.495L196.453 537.312L181.948 538.505Z" stroke="#102237" stroke-opacity="0.12" stroke-width="0.5" stroke-miterlimit="10"/>
<path d="M285.299 545.665L249.579 533.136L248.854 537.312L255.2 539.549L258.282 548.797L246.497 549.841L245.771 554.166L260.096 552.973L264.266 552.675L284.392 551.034L285.299 545.665ZM262.815 548.498L260.458 541.488L277.321 547.305L262.815 548.498Z" stroke="#102237" stroke-opacity="0.12" stroke-width="0.5" stroke-miterlimit="10"/>
<path d="M249.58 533.136L235.619 534.329L231.086 534.627L210.959 536.268L210.053 541.488L245.772 553.868L246.498 549.692L240.151 547.454L239.97 547.007L236.888 538.207L248.673 537.163L249.58 533.136ZM218.031 539.997L232.355 538.804L234.531 545.068L234.712 545.814L218.031 539.997Z" stroke="#102237" stroke-opacity="0.12" stroke-width="0.5" stroke-miterlimit="10"/>
<path d="M326.639 563.861L290.92 551.481L291.827 546.261L311.953 544.62L316.486 544.322L330.447 543.129L366.348 555.509L365.441 560.729L345.315 562.37L340.963 562.668L326.639 563.861ZM326.639 563.861L327.365 559.685M298.898 549.99L313.222 548.797L315.579 555.807L298.898 549.99ZM358.007 557.298L343.683 558.492L341.326 551.631V551.481L358.007 557.298ZM336.068 549.841L339.15 558.79L327.365 559.834L321.019 557.597L320.837 557.149L317.755 548.349L329.54 547.305L335.887 549.542L336.068 549.841Z" stroke="#102237" stroke-opacity="0.12" stroke-width="0.5" stroke-miterlimit="10"/>
<path d="M31.9989 856.945L21.4824 826.22L11.6913 818.016L8.42763 815.332L-5.71515 803.399L-11.3359 806.084L-1.00089 836.81L8.79023 845.013L11.8726 847.698L26.0154 859.63L31.9989 856.945ZM5.52655 818.613L0.449684 824.579L-4.4459 810.111L5.52655 818.613ZM12.054 841.582L3.71337 834.572L1.9002 829.054L8.79023 821.298L17.1308 828.308L18.944 833.826L12.054 841.582ZM15.3177 844.267L20.3946 838.301L25.2901 852.769L15.3177 844.267Z" stroke="#102237" stroke-opacity="0.12" stroke-width="0.5" stroke-miterlimit="10"/>
<path d="M62.46 884.389L52.6689 876.185L49.4052 873.501L35.2624 861.568L29.6416 864.253L40.158 894.978L50.1305 903.331L53.2128 906.016L67.3556 917.948L72.9765 915.263L62.46 884.389ZM41.246 882.748L36.3504 868.28L46.3228 876.782L41.4272 882.301L41.246 882.748ZM53.0316 899.751L44.691 892.741L42.8778 887.223L49.7678 879.467L58.1084 886.477L59.9216 891.995L53.0316 899.751ZM56.1139 902.436L61.0095 896.768L61.1908 896.47L66.0864 910.938L56.1139 902.436Z" stroke="#102237" stroke-opacity="0.12" stroke-width="0.5" stroke-miterlimit="10"/>
<path d="M0.631264 688.85L18.0377 697.203L22.5707 693.474L2.80709 666.03L-9.34119 660.064L-13.3301 658.125L-30.7366 649.623L-35.2695 653.352L-15.506 680.796L-3.35768 686.613L0.631264 688.85ZM5.52685 678.111L14.774 690.938L2.44444 684.823L5.52685 678.111ZM-17.6817 667.969L-18.2257 669.162L-27.4729 656.335L-15.1433 662.45L-17.6817 667.969ZM-11.1544 664.24L-0.819252 669.162L2.62576 674.084L2.44444 674.382L-1.54451 683.033L-11.8796 678.111L-15.506 673.189L-11.1544 664.24Z" stroke="#102237" stroke-opacity="0.12" stroke-width="0.5" stroke-miterlimit="10"/>
<path d="M42.3339 728.674L22.5703 701.23L27.1032 697.501L44.5097 706.003L48.4987 707.942L60.6469 713.759L80.4105 741.203L75.8776 744.931L58.4712 736.43L54.8448 734.64L42.3339 728.674ZM42.3339 728.674L45.9602 725.691M45.9602 725.691L42.5152 720.769L46.6855 711.82L57.0206 716.742L60.4656 721.664L56.2953 730.613L45.9602 725.691ZM39.7955 716.294L39.6141 716.742L30.367 703.915L42.6965 710.03L39.7955 716.294ZM63.3667 725.84V725.691L72.6139 738.667L60.2843 732.552L63.3667 725.84Z" stroke="#102237" stroke-opacity="0.12" stroke-width="0.5" stroke-miterlimit="10"/>
<path d="M118.487 761.189L106.339 755.223L102.531 753.284L85.1247 744.782L80.5918 748.511L100.355 775.955L112.685 781.921L116.311 783.711L133.718 792.213L138.251 788.484L118.487 761.189ZM97.4543 764.172L88.2071 751.345L100.537 757.46L97.4543 764.172ZM114.136 778.043L103.8 773.121L100.355 768.199L104.526 759.25L114.861 764.172L118.306 769.094L117.943 769.691L114.136 778.043ZM121.207 773.27L130.454 786.097L118.124 779.982L121.026 773.867L121.207 773.27Z" stroke="#102237" stroke-opacity="0.12" stroke-width="0.5" stroke-miterlimit="10"/>
<path d="M164.179 802.952L160.19 801.013L142.784 792.512L138.251 796.241L158.014 823.685L170.163 829.651L174.152 831.59L191.558 840.091L196.091 836.362L176.328 808.918L164.179 802.952ZM146.048 798.776L158.377 804.891L155.295 811.603L146.048 798.776ZM171.976 825.624L161.641 820.702L158.014 815.78L162.185 806.83L172.52 811.752L175.965 816.674L171.976 825.624ZM175.965 827.562L179.047 820.702L188.294 833.678L175.965 827.562Z" stroke="#102237" stroke-opacity="0.12" stroke-width="0.5" stroke-miterlimit="10"/>
<path d="M49.9494 610.545L77.6909 632.918L74.4272 637.542L55.0262 633.067L50.8559 632.023L37.2571 628.891L9.51562 606.518L12.7793 601.895L32.1803 606.369L36.3506 607.413L49.9494 610.545ZM49.9494 610.545L47.4109 614.274M47.4109 614.274L52.3065 618.301L51.2186 627.847L39.7956 625.311L34.9 621.284L35.9879 611.739L47.4109 614.274ZM56.4768 621.732L69.5316 632.172L55.5702 628.891L56.4768 621.732ZM30.7297 617.556V618.003L17.6749 607.562L31.6363 610.844L30.7297 617.556Z" stroke="#102237" stroke-opacity="0.12" stroke-width="0.5" stroke-miterlimit="10"/>
<path d="M125.921 666.776L145.322 671.251L148.586 666.627L120.844 644.254L107.246 641.122L102.894 640.078L83.4932 635.604L80.2295 640.227L107.971 662.6L121.751 665.732L125.921 666.776ZM140.245 665.732L126.284 662.451L127.191 655.292L140.245 665.732ZM101.444 651.414V651.563L88.3888 641.122L102.35 644.403L101.444 651.414ZM105.614 654.844L106.702 645.298L118.125 647.834L123.02 651.861L122.839 653.203L121.932 661.407L110.509 658.871L105.614 654.844Z" stroke="#102237" stroke-opacity="0.12" stroke-width="0.5" stroke-miterlimit="10"/>
<path d="M196.635 700.335L216.036 704.809L219.299 700.186L191.558 677.813L177.959 674.681L173.789 673.637L154.388 669.162L151.124 673.786L178.866 696.159L192.827 699.291L196.635 700.335ZM198.085 689.148V688.701L211.14 699.142L197.179 695.86L198.085 689.148ZM172.157 685.121L159.102 674.681L173.063 677.962L172.157 685.121ZM176.327 688.552L177.596 679.006L189.019 681.542L193.915 685.569L192.646 695.115L181.223 692.579L176.327 688.552Z" stroke="#102237" stroke-opacity="0.12" stroke-width="0.5" stroke-miterlimit="10"/>
<path d="M248.854 708.39L244.503 707.346L225.102 702.871L221.838 707.495L249.579 729.868L263.36 733L267.53 734.044L286.931 738.518L290.195 733.895L262.453 711.522L248.854 708.39ZM243.052 718.83L229.997 708.39L243.959 711.671L243.052 718.83ZM267.893 729.718L268.799 722.559L281.854 733L267.893 729.718ZM264.629 719.576L263.541 728.674L252.118 726.139L247.222 722.112L248.31 712.566L259.733 715.102L264.629 719.129V719.576Z" stroke="#102237" stroke-opacity="0.12" stroke-width="0.5" stroke-miterlimit="10"/>
<path d="M111.96 562.667L78.2346 547.006L64.0918 546.857H59.5589L39.4327 546.708L37.8008 551.779L71.5258 567.44L85.6686 567.589H90.2015L110.328 567.738L111.96 562.667ZM45.9601 550.884L60.4654 551.033L61.916 557.894V558.193L45.9601 550.884ZM72.795 563.264L66.8115 560.43L64.9984 551.033H76.9653L82.9488 553.867L84.762 563.413L72.795 563.264ZM89.2949 563.413L87.8444 556.403V556.254L103.8 563.562L89.2949 563.413Z" stroke="#102237" stroke-opacity="0.12" stroke-width="0.5" stroke-miterlimit="10"/>
<path d="M190.833 579.969L157.108 564.308L142.965 564.159H138.432L118.306 564.01L116.674 569.081L150.399 584.742L151.668 580.566L145.685 577.732L143.871 568.186H155.838L161.822 571.02L163.635 580.417H151.668L150.399 584.593L165.086 584.742H169.075L189.201 584.891L190.833 579.969ZM124.833 568.186L139.338 568.335L140.789 575.345V575.494L124.833 568.186ZM168.168 580.715L166.717 574.003V573.555L182.673 580.864L168.168 580.715Z" stroke="#102237" stroke-opacity="0.12" stroke-width="0.5" stroke-miterlimit="10"/>
<path d="M269.887 597.42H269.706H269.887Z" stroke="#102237" stroke-opacity="0.12" stroke-width="0.5" stroke-miterlimit="10"/>
<path d="M269.706 597.42L235.981 581.759L221.475 581.61H217.305L197.179 581.461L195.547 586.532L229.272 602.193L243.415 602.342H247.948L268.074 602.491L269.706 597.42ZM203.888 585.637L218.393 585.786L219.843 592.946L203.888 585.637ZM230.722 598.017L224.739 595.183V595.034L222.926 585.786H234.893L240.876 588.62L242.689 598.166L230.722 598.017ZM247.222 598.166L245.772 591.156V591.007L261.728 598.315L247.222 598.166Z" stroke="#102237" stroke-opacity="0.12" stroke-width="0.5" stroke-miterlimit="10"/>
<path d="M315.035 599.21L300.893 599.061H296.36L276.233 598.912L274.602 603.983L308.327 619.644L322.469 619.793H326.821L346.947 619.943L348.579 614.871L315.035 599.21ZM282.761 603.088L297.266 603.238L298.717 610.397L282.761 603.088ZM340.601 615.766L326.096 615.617L324.645 608.458L340.601 615.766ZM321.563 615.617H309.596L303.612 612.783L303.431 612.336L301.618 603.387H313.585L319.568 606.221L321.563 615.617Z" stroke="#102237" stroke-opacity="0.12" stroke-width="0.5" stroke-miterlimit="10"/>
<path d="M85.1244 479.44L71.5256 482.274L67.174 483.169L47.5918 487.346V492.566L85.1244 500.471L98.7232 497.637L103.075 496.742L122.657 492.566V487.346L85.1244 479.44ZM85.1244 479.44V483.766M85.1244 483.766L91.8332 485.257L96.5475 494.057L85.1244 496.593L78.4157 495.101V494.952L73.7015 486.301L85.1244 483.766ZM115.223 490.03L101.262 492.864L97.8166 486.451L97.6353 486.152L115.223 490.03ZM55.3884 490.03L69.3499 487.196L72.9762 493.759L55.3884 490.03Z" stroke="#102237" stroke-opacity="0.12" stroke-width="0.5" stroke-miterlimit="10"/>
<path d="M204.613 487.346V487.492V487.346Z" stroke="#102237" stroke-opacity="0.12" stroke-width="0.5" stroke-miterlimit="10"/>
<path d="M204.613 487.495L167.08 479.59L153.482 482.424L149.13 483.319L129.548 487.495V492.715L167.08 500.62L181.042 497.637L185.031 496.892L204.613 492.715V487.495ZM136.982 490.03L150.943 487.197L154.57 493.759L136.982 490.03ZM166.899 496.444L160.19 495.102L159.828 494.654L155.295 486.451L166.718 483.915L173.427 485.407L178.141 494.207L166.899 496.444ZM182.855 493.014L179.229 486.451L196.817 490.18L182.855 493.014Z" stroke="#102237" stroke-opacity="0.12" stroke-width="0.5" stroke-miterlimit="10"/>
<path d="M286.206 487.495L248.673 479.59L235.074 482.424L230.723 483.319L211.141 487.495V492.715L248.673 500.62L262.453 497.637L266.624 496.742L286.206 492.566V487.495ZM218.756 490.03L232.717 487.197L236.344 493.759L218.756 490.03ZM248.673 496.444L241.965 494.952L237.25 486.302L248.673 483.766L255.382 485.258L256.107 486.451L260.278 494.058L248.673 496.444ZM264.629 493.014L261.184 486.898L260.821 486.451L278.409 490.18L264.629 493.014Z" stroke="#102237" stroke-opacity="0.12" stroke-width="0.5" stroke-miterlimit="10"/>
<path d="M330.447 500.471L292.914 492.566V487.346L312.496 483.169L316.848 482.274L330.447 479.44L368.161 487.196V492.417L348.578 496.593L344.408 497.488L330.447 500.471ZM330.447 500.471V496.295M330.447 496.295L323.738 494.803L319.024 486.003L330.447 483.468L337.156 484.959V485.108L341.87 493.759L330.447 496.295ZM300.529 490.03L314.491 487.196L318.117 493.759L300.529 490.03ZM360.364 490.03L346.403 492.864L342.776 486.301L360.364 490.03Z" stroke="#102237" stroke-opacity="0.12" stroke-width="0.5" stroke-miterlimit="10"/>
<path d="M-20.2202 598.465L-15.8686 599.509L3.53234 603.983L6.79608 599.36L-20.9455 576.987L-34.5443 573.855L-38.8959 572.811L-58.2969 568.336L-61.5605 572.96L-33.819 595.332L-20.2202 598.465ZM-1.3632 598.465L-15.3246 595.183L-14.4181 588.024L-1.3632 598.465ZM-40.1651 583.997V584.295L-53.2199 573.855L-39.2585 577.136L-40.1651 583.997ZM-35.9948 587.577L-34.9069 578.031L-23.4839 580.566L-18.5883 584.594L-19.6762 593.99L-31.0993 591.455L-35.9948 587.577Z" stroke="#102237" stroke-opacity="0.12" stroke-width="0.5" stroke-miterlimit="10"/>
<path d="M11.1478 550.139L31.274 550.288L32.9058 545.217L-0.819201 529.556L-14.9619 529.407H-19.4949L-39.6211 529.258L-41.2529 534.329L-7.52796 549.99L6.61482 550.139H11.1478ZM-33.0937 533.434L-18.5883 533.583L-17.1378 540.743L-33.0937 533.434ZM-6.25872 545.814L-12.2422 542.98V542.831L-14.0553 533.583H-2.26972L3.71373 536.417L3.89506 537.163L5.70823 545.963L-6.25872 545.814ZM10.2412 545.963L8.79059 538.804L24.7465 546.112L10.2412 545.963Z" stroke="#102237" stroke-opacity="0.12" stroke-width="0.5" stroke-miterlimit="10"/>
<path d="M41.0644 487.495L3.53166 479.59L-10.0671 482.424L-14.4187 483.319L-34.001 487.495V492.715L3.53166 500.62L17.1305 497.786L21.4821 496.892L41.0644 492.715V487.495ZM-26.3857 490.03L-12.4242 487.197L-8.79789 493.759L-26.3857 490.03ZM3.53166 496.444L-3.17704 494.952L-7.8913 486.153L3.53166 483.617L10.2404 485.108L11.5096 487.346L15.136 493.759L3.53166 496.444ZM19.3063 493.014L15.8613 486.749L15.6799 486.302L33.2677 490.03L19.3063 493.014Z" stroke="#102237" stroke-opacity="0.12" stroke-width="0.5" stroke-miterlimit="10"/>
<path d="M-12.6056 82.6957L-9.88582 79.7127L-1.36389 70.4652L4.2569 38.845L-1.72654 36.7568L-13.8748 50.0314L-16.4133 52.7161L-25.1165 62.2619L-30.7373 93.8821L-24.7539 95.9702L-12.6056 82.6957ZM-1.90787 43.6178L-4.4463 58.3839L-10.4297 53.0144L-1.90787 43.6178ZM-13.1495 56.1466L-5.35289 63.0076V63.1568L-6.25947 68.8245L-13.5122 76.5805L-21.4901 69.5703L-20.5835 63.9025L-13.1495 56.1466ZM-22.2154 74.194L-16.2319 79.4144L-24.9351 88.9601L-22.2154 74.194Z" stroke="#102237" stroke-opacity="0.12" stroke-width="0.5" stroke-miterlimit="10"/>
<path d="M18.5818 217.381L15.4993 219.469L4.25765 227.076L-10.0664 256.757L-4.80822 259.889L10.7851 249.299L14.2301 246.913L25.1091 239.604L39.4332 209.923L34.175 206.791L18.5818 217.381ZM-2.99504 253.177L3.71372 239.306L4.07637 239.903L8.06532 245.571L-2.99504 253.177ZM20.7575 237.069L11.5103 243.184L5.70822 234.832L8.24665 229.611L17.4938 223.347L23.296 231.699L20.7575 237.069ZM25.4718 227.374L21.1202 221.11L32.1805 213.503L25.4718 227.374Z" stroke="#102237" stroke-opacity="0.12" stroke-width="0.5" stroke-miterlimit="10"/>
<path d="M66.6306 162.94L63.1855 165.326L52.3065 172.784L37.9824 202.465L43.2406 205.597L58.8339 195.007L62.2789 192.621L73.158 185.313L87.4821 155.631L82.2238 152.499L66.6306 162.94ZM45.0538 198.885L51.7625 185.014V185.163L56.1141 191.428L45.0538 198.885ZM80.4106 159.062L73.7019 172.933L69.3503 166.668L80.4106 159.062ZM71.1635 176.811L71.5261 177.407L68.9877 182.628L59.7405 188.892L53.9384 180.54L56.4768 175.319L65.724 169.204L71.1635 176.811Z" stroke="#102237" stroke-opacity="0.12" stroke-width="0.5" stroke-miterlimit="10"/>
<path d="M100.537 118.343L111.597 110.886L114.861 108.648L130.454 98.0586L135.712 101.191L121.388 130.872L110.509 138.181L106.883 140.567L91.4711 151.157L86.2129 148.025L100.537 118.343ZM100.537 118.343L104.707 120.879M104.707 120.879L113.954 114.614L119.757 122.967L117.218 128.187M104.707 120.879L102.169 126.099L107.971 134.452L117.218 128.187M117.218 128.187L118.669 129.082M117.399 112.377L128.46 104.77L121.751 118.642L117.399 112.377ZM99.993 130.574L100.174 130.872L104.345 136.838L93.2843 144.445L99.993 130.574Z" stroke="#102237" stroke-opacity="0.12" stroke-width="0.5" stroke-miterlimit="10"/>
<path d="M28.1909 324.322L15.3173 328.797L-8.79785 353.854L-4.99018 358.03L13.6855 351.617L17.8558 350.125L30.7293 345.651L54.8445 320.593L51.0368 316.417L32.3611 322.831L28.1909 324.322ZM-0.819903 352.064L10.4218 340.281V340.43L12.4162 347.441L-0.819903 352.064ZM46.8665 322.383L35.6249 334.166L33.6304 327.156L46.8665 322.383ZM27.6469 342.369L16.7679 346.098L14.2294 336.702L18.5811 332.227L29.4601 328.498L31.9985 337.895L27.6469 342.369Z" stroke="#102237" stroke-opacity="0.12" stroke-width="0.5" stroke-miterlimit="10"/>
<path d="M94.0089 283.454L80.4101 288.227L56.2949 313.285L60.1026 317.461L78.7783 311.048L82.9486 309.556L95.8221 305.081L119.937 280.024L116.13 275.848L97.6352 282.261L94.0089 283.454ZM64.2729 311.495L75.5146 299.712L77.5091 306.871L64.2729 311.495ZM111.959 281.665L100.718 293.448V293.149L98.9045 286.437L111.959 281.665ZM92.7397 301.651L81.8607 305.38L79.3222 296.282V295.983L83.6738 291.509L94.7342 287.78L97.2726 297.176L92.7397 301.651Z" stroke="#102237" stroke-opacity="0.12" stroke-width="0.5" stroke-miterlimit="10"/>
<path d="M161.096 264.214L148.041 268.689L143.871 270.18L125.195 276.594L121.388 272.418L145.866 247.36L158.92 242.736L162.909 241.394L181.404 234.98L185.211 239.157L161.096 264.214ZM161.096 264.214L158.014 260.784M158.014 260.784L146.953 264.513L144.596 256.309L144.234 255.116L148.585 250.641L159.646 246.913L162.365 256.309L158.014 260.784ZM177.052 240.947L165.81 252.73L163.816 245.719L177.052 240.947ZM142.602 266.153L129.366 270.777L140.607 258.994L142.602 266.153Z" stroke="#102237" stroke-opacity="0.12" stroke-width="0.5" stroke-miterlimit="10"/>
<path d="M210.415 206.791L186.3 231.848L190.107 236.025L208.783 229.611L212.953 228.12L225.827 223.645L249.942 198.587L246.134 194.411L227.459 200.825L223.47 202.167L210.415 206.791ZM210.415 206.791L213.497 210.221L224.376 206.492L226.734 215.143L226.915 215.889L222.563 220.364L211.503 224.092L209.146 215.591L208.964 214.696L213.316 210.221L210.415 206.791ZM194.459 230.058L205.701 218.275L207.695 225.435L194.459 230.058ZM242.145 200.377L230.904 212.16L228.909 205.001L242.145 200.377Z" stroke="#102237" stroke-opacity="0.12" stroke-width="0.5" stroke-miterlimit="10"/>
<path d="M78.9602 378.017L64.9987 379.509L33.6309 398.451L35.988 403.373L55.9329 401.136L60.4658 400.688L74.4272 399.197L72.4327 395.319L60.6471 396.512L61.0098 387.563V386.966L66.6306 383.536L78.4162 382.342L78.0536 391.59V392.037L72.4327 395.468L74.4272 399.346L105.614 380.403L103.257 375.481L83.3118 377.719L78.9602 378.017ZM56.2955 396.959L41.9715 398.6L56.6582 389.651L56.2955 396.959ZM97.4546 380.254L82.7678 389.203L83.1304 381.895L97.4546 380.254Z" stroke="#102237" stroke-opacity="0.12" stroke-width="0.5" stroke-miterlimit="10"/>
<path d="M155.838 352.811L140.789 354.452L109.603 373.394L111.96 378.316L131.905 376.079L136.437 375.631L150.399 374.14L181.585 355.197L179.228 350.275L159.283 352.513L155.838 352.811ZM132.086 371.753L117.762 373.394L132.448 364.445L132.086 371.753ZM154.025 366.682L148.404 370.113L136.619 371.306L136.981 362.208V361.76L142.602 358.33L154.388 357.136L154.025 366.682ZM173.245 355.048L158.558 363.997V363.848L158.921 356.838L173.245 355.048Z" stroke="#102237" stroke-opacity="0.12" stroke-width="0.5" stroke-miterlimit="10"/>
<path d="M218.575 333.272L230.36 332.079L229.998 341.326V341.774L224.377 345.204L212.591 346.397L213.135 336.852L218.575 333.272ZM218.575 333.272L216.58 329.394L185.394 348.336L187.751 353.258L207.696 351.021L212.228 350.574L226.19 349.082L257.377 330.14L255.019 325.218L235.074 327.455L230.904 327.903L216.761 329.394L218.575 333.272ZM208.239 339.686L207.877 346.547L193.553 348.187L208.239 339.238V339.686ZM234.893 331.482L249.217 329.842L234.53 338.791L234.893 331.482Z" stroke="#102237" stroke-opacity="0.12" stroke-width="0.5" stroke-miterlimit="10"/>
<path d="M305.606 316.417L299.985 319.848L301.98 323.875L333.167 304.933L330.809 300.011L310.864 302.248L306.513 302.695L292.37 304.187L294.365 308.065L306.15 306.872L305.606 316.417ZM310.32 313.434L310.683 306.424L325.007 304.784L310.32 313.584V313.434Z" stroke="#102237" stroke-opacity="0.12" stroke-width="0.5" stroke-miterlimit="10"/>
<path d="M288.744 311.496L294.365 308.065L292.37 304.038L261.184 322.98L263.541 327.902L283.486 325.665L288.019 325.218L301.98 323.726L299.986 319.848L288.2 321.041L288.744 311.496ZM284.03 314.18L283.667 321.489L269.343 323.13L284.03 314.18Z" stroke="#102237" stroke-opacity="0.12" stroke-width="0.5" stroke-miterlimit="10"/>
<path d="M89.2951 466.166L95.6412 463.929L95.8225 463.631L98.7236 454.682L86.9379 453.637L80.5918 455.875L77.5095 465.122L89.2951 466.166ZM89.2951 466.166L89.4764 466.763M124.833 452.743L104.707 451.102L100.174 450.804L86.2127 449.61L50.4932 462.139L51.3998 467.359L71.526 469L76.0589 469.298L90.0204 470.492L125.74 457.963L124.833 452.743ZM75.3336 458.112L72.9765 464.824L58.6524 463.631L75.3336 457.814V458.112ZM103.438 455.129L117.762 456.322L101.081 462.139L103.438 455.129Z" stroke="#102237" stroke-opacity="0.12" stroke-width="0.5" stroke-miterlimit="10"/>
<path d="M166.899 439.617L181.949 440.81L185.575 441.109L205.701 442.749L206.426 447.97L170.707 460.349L156.745 459.156L152.213 458.858L132.086 457.217L131.18 451.997L166.899 439.617ZM166.899 439.617L167.625 443.793M167.625 443.793L179.41 444.838L176.328 454.085L169.982 456.322L158.196 455.278L161.278 446.031L167.625 443.793ZM156.201 447.97L153.844 454.682L139.52 453.488L156.201 447.671V447.97ZM181.767 452.146L181.949 451.848L184.306 445.136L198.63 446.329L181.767 452.146Z" stroke="#102237" stroke-opacity="0.12" stroke-width="0.5" stroke-miterlimit="10"/>
<path d="M286.569 432.756L266.442 431.116L262.453 430.817L247.948 429.624L212.229 442.004L213.135 447.224L233.261 448.865L237.794 449.163L251.756 450.356L287.475 437.827L286.569 432.756ZM237.069 437.827L234.712 444.688L220.388 443.495L237.069 437.827ZM257.377 443.943L251.03 446.18L239.245 445.136L242.327 435.888L248.673 433.651L260.459 434.695L257.377 443.943ZM262.635 442.153L264.992 435.143L279.316 436.336L262.635 442.153Z" stroke="#102237" stroke-opacity="0.12" stroke-width="0.5" stroke-miterlimit="10"/>
<path d="M347.309 421.122L342.776 420.824L328.634 419.631L292.914 432.16L293.821 437.38L313.947 439.021L318.48 439.319L332.441 440.512L368.161 428.133L367.254 422.912L347.309 421.122ZM315.579 434.695L301.255 433.502L317.936 427.685L315.579 434.695ZM338.243 433.949L331.897 436.187L320.112 435.143L323.013 426.492L323.194 425.895L329.54 423.658L341.326 424.702L338.243 433.949ZM360.364 426.194L343.502 432.011V431.861L345.859 425L360.364 426.194Z" stroke="#102237" stroke-opacity="0.12" stroke-width="0.5" stroke-miterlimit="10"/>
<path d="M1.5372 146.831L-8.79785 177.556L-3.17701 180.241L10.9657 168.309L14.2294 165.624L24.0206 157.421L34.537 126.695L28.9161 124.011L14.7734 135.794L11.691 138.329L1.5372 146.831ZM-2.27042 173.529L2.62511 159.062L2.80644 159.211L7.8833 165.028L-2.27042 173.529ZM27.6469 130.872L22.7513 145.34L22.57 145.19L17.4932 139.523L27.6469 130.872ZM14.4107 142.058L21.3008 149.814L19.4877 155.333L11.147 162.343L4.25696 154.587L6.07013 149.068L14.4107 142.058Z" stroke="#102237" stroke-opacity="0.12" stroke-width="0.5" stroke-miterlimit="10"/>
<path d="M51.581 110.14L54.8447 107.455L64.6358 99.2519L75.1522 68.5265L69.5314 65.8418L55.3886 77.774L52.3062 80.4587L42.3338 88.8112L31.8174 119.537L37.4382 122.221L51.581 110.14ZM68.4435 72.5536L63.5479 87.0214L58.471 81.0553L68.4435 72.5536ZM46.8667 90.7502L55.2073 83.7401L61.3721 90.8994L61.9161 91.6451L60.1029 97.1638L51.7623 104.174L44.8722 96.418L46.8667 90.7502ZM43.4217 100.743L43.603 100.893L48.4986 106.56L38.5261 115.062L43.4217 100.743Z" stroke="#102237" stroke-opacity="0.12" stroke-width="0.5" stroke-miterlimit="10"/>
<path d="M-1.00124 296.58L-13.1495 302.397L-32.9131 329.841L-28.3802 333.57L-10.9737 325.068L-6.98469 323.129L5.16354 317.163L24.9272 289.719L20.3942 285.99L2.98776 294.492L-1.00124 296.58ZM-25.1164 327.455L-15.8692 314.478L-15.6879 314.926L-12.7869 321.19L-25.1164 327.455ZM17.1305 292.553L7.88329 305.38L4.80093 298.519L17.1305 292.553ZM4.80093 309.407V309.556L1.35592 314.478L-8.97919 319.4L-13.1495 310.451L-9.52312 305.529L0.811933 300.607L4.80093 309.407Z" stroke="#102237" stroke-opacity="0.12" stroke-width="0.5" stroke-miterlimit="10"/>
<path d="M57.2022 248.851L44.6913 254.967L24.9277 282.411L29.4607 286.139L46.8671 277.638L50.8561 275.699L63.0044 269.733L82.5866 242.438L78.0537 238.709L60.6472 247.211L57.2022 248.851ZM32.543 279.875L41.7902 267.048L44.8726 273.76L32.543 279.875ZM74.9713 244.973L65.7241 257.8L65.5428 257.353L62.6417 250.939L74.9713 244.973ZM62.6417 261.977L59.1967 266.899L48.8616 271.821L44.8726 263.17L44.6913 262.872L48.1363 257.95L58.4714 253.028L62.6417 261.977Z" stroke="#102237" stroke-opacity="0.12" stroke-width="0.5" stroke-miterlimit="10"/>
<path d="M118.487 199.632L114.679 201.571L102.531 207.387L82.7676 234.831L87.3005 238.56L104.707 230.059L108.515 228.269L120.844 222.303L140.608 194.859L136.075 191.13L118.487 199.632ZM90.3829 232.296L99.6301 219.469L102.712 226.181L90.3829 232.296ZM132.811 197.394L123.564 210.371V210.221L120.482 203.659L132.811 197.394ZM120.482 214.398L117.037 219.32L106.701 224.242L102.531 215.293L105.976 210.371L116.311 205.448L120.482 214.398Z" stroke="#102237" stroke-opacity="0.12" stroke-width="0.5" stroke-miterlimit="10"/>
<path d="M145.14 191.129L162.547 182.628L166.536 180.689L178.684 174.723L198.448 147.279L193.915 143.55L176.508 152.051L172.701 153.99L160.552 159.957L140.607 187.401L145.14 191.129ZM190.47 149.963L181.223 162.94V162.79L178.14 156.079L190.47 149.963ZM174.151 157.868L178.321 166.818L174.876 171.74L164.541 176.662L160.552 168.011L160.371 167.712L163.997 162.79L174.151 157.868ZM157.47 171.889L160.552 178.75L148.223 184.865L157.47 171.889Z" stroke="#102237" stroke-opacity="0.12" stroke-width="0.5" stroke-miterlimit="10"/>
<path d="M52.8501 351.617L39.2513 354.749L11.5098 377.122L14.7735 381.746L34.1744 377.271L38.5261 376.227L52.1249 373.095L79.8664 350.722L76.6027 346.099L57.2017 350.573L52.8501 351.617ZM19.8504 376.078L32.9052 365.638V365.936L33.8118 372.797L19.8504 376.078ZM71.7071 351.468L58.6523 361.909L57.7457 354.749L71.7071 351.468ZM49.5864 369.217L38.1634 371.753L37.0755 362.207L41.9711 358.18L53.3941 355.644L54.482 365.19L49.5864 369.217Z" stroke="#102237" stroke-opacity="0.12" stroke-width="0.5" stroke-miterlimit="10"/>
<path d="M110.147 321.041L82.4053 343.414L85.669 348.038L105.07 343.563L109.422 342.519L123.02 339.387L150.762 317.014L147.498 312.391L128.097 316.865L124.108 317.909L110.147 321.041ZM90.7459 342.519L103.801 332.079L104.707 339.238L90.7459 342.519ZM142.421 317.909L129.366 328.35V328.201L128.46 321.191L142.421 317.909ZM124.29 322.086L125.377 331.631L120.482 335.658L109.059 338.194L107.971 328.797V328.648L112.867 324.621L124.29 322.086Z" stroke="#102237" stroke-opacity="0.12" stroke-width="0.5" stroke-miterlimit="10"/>
<path d="M194.641 284.2L181.042 287.332L183.58 291.061L195.003 288.526L195.91 296.431L196.091 298.071L191.196 302.099L179.773 304.634L178.504 295.088L183.399 291.061L180.861 287.332L153.119 309.705L156.383 314.329L175.784 309.854L179.954 308.81L193.553 305.678L221.294 283.305L218.031 278.682L198.63 283.156L194.641 284.2ZM161.46 308.81L174.515 298.37V298.817L175.421 305.529L161.46 308.81ZM213.316 284.2L200.262 294.641L199.355 287.332L213.316 284.2Z" stroke="#102237" stroke-opacity="0.12" stroke-width="0.5" stroke-miterlimit="10"/>
<path d="M224.014 276.147L227.277 280.77L246.678 276.296L251.03 275.252L264.629 272.12L292.37 249.747L289.107 245.123L269.706 249.598L265.354 250.642L251.755 253.774L224.014 276.147ZM232.354 275.252L245.409 264.811V265.109L246.316 272.12L232.354 275.252ZM284.03 250.642L270.975 261.082V260.784L270.068 253.774L284.03 250.642ZM265.717 254.818L266.805 264.364L261.909 268.391L250.486 270.926L249.398 261.381L254.294 257.354L265.717 254.818Z" stroke="#102237" stroke-opacity="0.12" stroke-width="0.5" stroke-miterlimit="10"/>
<path d="M92.1956 416.052H87.6627L73.5199 416.201L39.7949 431.862L41.4268 436.933L61.553 436.784H66.0859L80.2287 436.635L113.954 420.974L112.322 415.902L92.1956 416.052ZM63.9102 425.746L62.4596 432.607L47.9542 432.757L63.9102 425.448V425.746ZM85.1242 429.326V429.774L79.1408 432.607H67.1738L68.987 423.211L74.9705 420.377H86.7561L85.1242 429.326ZM105.976 420.079L90.0198 427.387L91.4703 420.228L105.976 420.079Z" stroke="#102237" stroke-opacity="0.12" stroke-width="0.5" stroke-miterlimit="10"/>
<path d="M193.008 403.522L191.377 398.451L171.25 398.6H167.08L152.575 398.749L152.937 399.943L152.575 398.899L118.85 414.41L120.482 419.482L140.608 419.332H145.141L159.283 419.183L193.008 403.522ZM170.344 402.777L184.849 402.627L168.893 409.936L170.344 402.777ZM142.784 408.146L141.333 415.156L126.828 415.305L142.602 407.997L142.784 408.146ZM146.047 415.156L147.86 405.76L153.844 402.926H165.811L163.998 412.173V412.322L158.014 415.156H146.047Z" stroke="#102237" stroke-opacity="0.12" stroke-width="0.5" stroke-miterlimit="10"/>
<path d="M272.063 386.071L270.431 381L250.305 381.149H245.772L231.629 381.298L232.898 385.475H244.865L243.052 394.573V394.871L237.068 397.705L238.338 401.881L272.063 386.071ZM249.398 385.325L263.903 385.176L247.947 392.485L249.398 385.325Z" stroke="#102237" stroke-opacity="0.12" stroke-width="0.5" stroke-miterlimit="10"/>
<path d="M223.651 401.881L238.156 401.732L236.887 397.556H224.92L226.733 388.01L232.717 385.176L231.448 381L197.723 396.661L199.355 401.732L219.481 401.583L223.651 401.881ZM206.063 398.003L221.838 390.695V391.142L220.569 397.854L206.063 398.003Z" stroke="#102237" stroke-opacity="0.12" stroke-width="0.5" stroke-miterlimit="10"/>
<path d="M329.178 363.847H324.826L310.684 363.997L276.777 379.658L278.409 384.729L298.535 384.58H303.068L317.211 384.43L350.936 368.769L349.304 363.698L329.178 363.847ZM300.893 373.542L299.442 380.403L284.937 380.552L300.893 373.244V373.542ZM322.107 376.078L321.744 377.42L315.761 380.254H303.794L305.607 370.708L311.59 367.875H323.376L322.107 376.078ZM342.777 367.875L326.821 375.183L328.271 368.024L342.777 367.875Z" stroke="#102237" stroke-opacity="0.12" stroke-width="0.5" stroke-miterlimit="10"/>
<path d="M-21.1275 402.926L-20.4022 403.97M-21.1275 402.926L-32.5504 405.462L-33.6384 395.916L-28.7428 391.889L-17.3198 389.353L-16.2319 398.302V398.899L-21.1275 402.926ZM-17.8637 385.177L-31.4625 388.309L-59.2041 410.682L-55.9404 415.306L-36.5394 410.831L-32.1878 409.787L-18.589 406.655L9.15253 384.282L5.88884 379.658L-13.5121 384.133L-17.8637 385.177ZM-50.8635 409.787L-37.8086 399.346V399.645L-36.902 406.506L-50.8635 409.787ZM0.99325 385.177L-12.0616 395.618L-12.9682 388.309L0.99325 385.177Z" stroke="#102237" stroke-opacity="0.12" stroke-width="0.5" stroke-miterlimit="10"/>
<path d="M8.7906 433.502L-5.35213 433.651L-39.0771 449.312L-37.4453 454.383L-17.3191 454.234H-12.7861L1.35664 454.085L35.0816 438.424L33.4498 433.353L13.3235 433.502H8.7906ZM-14.9619 443.047L-16.4125 449.908L-30.9179 450.058L-14.9619 442.749V443.047ZM6.07084 447.075L0.0873929 449.908H-11.6982L-9.88506 440.512L-3.90161 437.678H8.06534L6.07084 447.075ZM26.9223 437.38L10.9664 444.688V444.539L12.4169 437.38H26.9223Z" stroke="#102237" stroke-opacity="0.12" stroke-width="0.5" stroke-miterlimit="10"/>
</svg>
