<svg width="1194" height="1059" viewBox="0 0 1194 1059" fill="none" xmlns="http://www.w3.org/2000/svg"><path d="M604.605 791.594l-5.077-17.34h-6.346l-9.61 33.236 3.445 12.041 1.088 3.854 5.077 17.34h6.346l9.61-33.235-3.445-12.042-1.088-3.854zm-8.341-10.436l3.446 12.363-7.978 3.211 4.532-15.574zm0 52.984l-3.445-12.363 7.978-3.211-4.533 15.574zm5.803-20.391l-10.335 4.175-3.083-10.115 1.813-5.941 10.698-4.175 3.082 10.116-1.631 5.94h-.544zm2.538 50.255l-5.077-17.34h-6.346l-9.61 33.236 3.627 12.523.906 3.372 5.077 17.34h6.346l9.61-33.235-3.445-12.042-1.088-3.854zm-8.341-10.436l3.446 12.363-7.978 3.211 4.532-15.574zm0 52.985l-3.445-12.364 7.978-3.211-4.533 15.575zm5.984-20.552l-10.698 4.174-3.082-10.115 1.813-5.94 10.698-4.175 3.082 10.115-1.813 5.941zm-.181 72.412l-10.517 4.175-3.082-10.115h-5.077l3.626 12.363 1.088 3.693 5.077 17.34h6.346l9.61-33.236-3.445-12.042-1.088-3.853-5.077-17.341h-6.346l-9.61 33.236h5.077l1.813-5.94 10.698-4.175 3.083 10.115-2.176 5.78zm-5.802 20.552l-3.445-12.363 7.615-3.051.363-.16-4.533 15.574zm-4.533-37.41l4.533-15.575 3.445 12.363-7.978 3.212zm13.961 71.123l-1.088-3.85-5.077-17.339h-6.346l-9.61 33.239 3.627 12.36 1.088 3.69 5.076 17.34h6.347l9.609-33.23-3.626-12.21zm-9.429-14.285l3.446 12.365-7.978 3.21 4.532-15.575zm0 52.985l-3.445-12.36 7.978-3.22-4.533 15.58zm5.984-20.71l-.363.16-10.153 4.01-3.083-10.11 1.813-5.94 10.698-4.18 3.082 10.12-1.994 5.94zm47.868-226.873l-4.896 34.038-6.527.482-7.434-16.538-1.632-3.693-5.077-11.56 5.077-34.038 6.346-.643 7.434 16.538 1.632 3.853 5.077 11.561zm0 0l-4.17.481m-12.149-25.368l5.259 11.881-7.434 4.014 2.175-15.895zm-3.989 27.135l.907-6.102.544-.321 9.428-4.977 4.352 9.794-.907 6.101-9.972 5.299-4.352-9.794zm13.055 9.794l.544-.321-2.357 16.055-5.258-11.881 7.071-3.853zm12.33 93.927l5.076-34.039-5.076-11.56-1.632-3.693-7.434-16.537-6.346.642-5.077 34.038 5.439 12.203 1.451 3.211 7.434 16.698 6.165-.963zm-4.171-6.422l-5.258-11.882 7.615-4.014-2.357 15.896zm-7.252-52.503l5.258 11.881-7.072 3.853-.362.161 2.176-15.895zm-3.989 26.974l.906-6.102.725-.321 9.248-4.977 4.351 9.794-.906 6.101-9.973 5.299-4.351-9.794zm30.28 69.682l-5.077 34.039-6.528.642-7.434-16.698-1.631-3.693-5.077-11.56 5.077-34.039 6.346-.642 7.434 16.538 1.631 3.692 5.259 11.721zm0 0l-5.077.482m0 0l-.907 6.101-1.45.803-8.522 4.656-4.352-9.794.907-6.101.181-.161 9.791-5.298 4.352 9.794zm-11.242-25.369L659 934.492l-6.708 3.693-.726.321 2.176-15.896zm9.61 36.608l-2.357 16.056-5.258-11.881 7.615-4.175zm11.604 48.492l-1.632-3.7-7.434-16.533-6.346.642-5.077 34.041 5.258 11.72 1.632 3.53 7.434 16.54 6.346-.64 5.077-34.04-5.258-11.56zm-11.242-13.169l5.259 11.879-7.616 4.02 2.357-15.899zm7.253 52.499l-5.258-11.88 7.615-4.01-2.357 15.89zm3.989-27.13l-.906 6.1-1.088.64-8.885 4.82-4.352-9.79.907-6.11.544-.32 9.429-5.13 4.351 9.79zm36.626-218.522l2.72 3.212 12.148 14.289 5.984-2.248-5.621-34.038-4.714 1.766.906 6.101-.362.482-7.434 7.065-7.253-8.349-.907-6.102 7.978-7.546 7.253 8.349 4.714-1.766-8.522-9.955-2.719-3.211-12.149-14.29-5.983 2.248 5.621 34.039 8.34 9.954zm12.33-5.94l2.538 16.056-8.703-10.276 6.165-5.78zm-11.786-22.639l-5.983 5.619-2.539-15.895 8.522 10.276zm22.484 85.578l-5.621-34.039 5.983-2.248 12.148 14.29 2.72 3.211 8.522 9.955 5.621 34.039-5.983 2.247-12.149-14.289-2.538-2.89-8.703-10.276zm0 0l4.714-1.766m-4.352-27.135l8.703 10.276-5.983 5.78-2.72-16.056zm4.352 26.974l-.907-6.101 7.978-7.546 7.253 8.349.907 6.101-1.632 1.445-6.346 6.101-7.253-8.349zm9.972 11.56l5.984-5.619 2.538 16.056-8.522-10.437zm46.055 82.207l-5.44-34.039-4.714 1.766.907 6.102-.182.16-7.796 7.386-7.253-8.349-4.714 1.766 8.522 10.115 2.72 3.211 12.148 14.29 5.802-2.408zm-14.505-15.414l5.983-5.78 2.538 16.056-8.521-10.276zm-11.061-17.661l7.978-7.547 7.253 8.349 4.714-1.766-8.522-9.954-2.72-3.212-12.148-14.289-5.983 2.247 5.621 34.039 4.714-1.766-.907-6.101zm-.725-4.978l-2.538-15.895 8.703 10.276-6.165 5.619zm28.467 79.798l-5.621-34.038 5.983-2.248 12.149 14.29 2.719 3.211 8.341 9.955 5.621 34.038-5.984 2.25-12.148-14.29-2.538-3.05-8.522-10.118zm0 0l4.714-1.766m0 0l-.907-6.101 7.978-7.546 7.253 8.349.907 6.101-.544.642-7.434 6.904-7.253-8.349zm-1.632-11.239l-2.72-15.895 8.704 10.275-5.984 5.62zm11.786 22.643l5.983-5.784 2.539 16.054-8.522-10.27zM789.73 763.817l3.445 2.569 15.593 11.4 5.259-3.372-14.324-31.951-10.879-7.867-3.445-2.569-15.594-11.4-5.258 3.372 14.324 31.951 10.879 7.867zm10.335-7.867l.182-.321 6.708 14.932-11.06-8.189 4.17-6.422zm-13.78-17.34l9.247 6.743 2.539 5.62-.182.321-5.439 8.67-9.247-6.583-2.539-5.62.363-.642 5.258-8.509zm-7.797 4.174l-6.708-14.932 11.06 8.189-3.989 6.261-.363.482zm59.654 79.798l3.264 2.408 15.593 11.4 5.258-3.372-14.324-31.951-10.879-7.867-3.445-2.569-15.593-11.4-5.259 3.372 14.324 31.951 11.061 8.028zm10.154-8.349l6.708 14.932-11.06-8.188 4.352-6.744zm-13.962-17.18l9.247 6.583 2.539 5.62-5.802 8.991-9.248-6.744-2.538-5.619v-.161l5.802-8.67zm-7.796 4.335l-6.709-14.932 11.06 8.189-4.351 6.743zm69.444 58.123l-10.879-7.868-3.445-2.569-15.593-11.399-5.258 3.371 14.324 31.952 10.879 8.028 3.445 2.569 15.593 11.399 5.258-3.371-14.324-32.112zm-21.395.321l-6.709-14.932 11.06 8.188-4.351 6.744zm13.961 17.18l-9.247-6.744-2.539-5.619 5.803-8.992 9.247 6.744 2.538 5.619-5.802 8.992zm3.445 2.569l4.352-6.744 6.708 14.932-11.06-8.188zm31.187 52.021l-14.324-31.951 5.258-3.372 15.593 11.4 3.445 2.569 10.879 7.867 14.324 32.112-5.258 3.372-15.593-11.4-3.264-2.408-11.06-8.189zm0 0l4.17-2.73m0 0l-2.539-5.619 5.803-8.991 9.247 6.743 2.538 5.62-.362.642-5.44 8.349-9.247-6.744zm-4.533-10.596l-6.709-14.932 11.061 8.188-4.352 6.744zm28.467 27.937l-11.061-8.189 4.352-6.743 6.709 14.932zM873.68 718.219l3.808-4.496-24.115-26.974-12.874-4.817-4.17-1.605-18.676-6.905-3.808 4.496 24.116 26.974 12.873 4.817 4.17 1.606 18.676 6.904zm-15.412-18.786l11.423 12.524-13.236-4.978 1.813-7.546zm-25.022-6.904l-11.241-12.684 13.236 4.977-1.995 7.707zm21.396 3.051l-2.539 9.794-10.879-4.014-4.351-4.817 2.538-10.115 11.06 4.014 4.352 4.817-.181.321zm84.131 66.471l3.808-4.495-24.116-26.974-12.873-4.817-4.17-1.606-18.676-6.904-3.808 4.496 24.115 26.974 13.781 5.138 3.445 1.284 18.494 6.904zm-40.434-26.01v.16l-11.241-12.684 13.236 4.977-1.995 7.547zm18.857 13.165l-11.06-4.014-4.352-4.816 2.72-10.116 10.879 4.014 4.352 4.817-2.539 10.115zm6.165-6.101l11.242 12.684-13.237-4.977 1.995-7.707zm62.01 55.875l18.679 6.904 3.8-4.496-24.111-26.974-12.873-4.816-4.17-1.606-18.676-6.904-3.808 4.496 24.115 26.973 13.055 4.817 3.989 1.606zm3.083-12.203l11.241 12.685-13.236-4.978 1.995-7.707zm-25.022-6.904v.161L952.19 767.35l13.236 4.977-1.994 7.546zm7.978 8.992l-4.352-4.817 2.72-10.115 11.06 4.014 4.352 4.816-.181.643-2.357 9.312-11.242-3.853zm77.42 29.382l-12.87-4.817-4.17-1.605-18.68-6.904-3.8 4.495 24.11 26.974 3.08-3.693-4.35-4.816.18-.482 2.54-9.473 11.06 4.014 4.35 4.817v.321l-2.54 9.794-10.87-4.014-3.09 3.693 13.24 4.977 3.99 1.445 18.67 6.904 3.81-4.495-24.66-27.135zm-20.31 5.62l-11.24-12.685 13.24 4.978-2 7.707zm25.03 6.743l11.24 12.684-13.24-4.977 2-7.707zM897.251 629.269l31.187 20.391-2.357 5.298-19.945-2.408-4.533-.482-13.962-1.605-31.186-20.392 2.357-5.298 19.945 2.408 4.533.482 13.961 1.606zm0 0l-1.269 2.729m-31.187-2.087l14.324 1.766.363 7.867-14.687-9.633zm24.841 16.216l-5.621-3.532-.544-10.276 11.786 1.285 5.621 3.693.544 10.275-11.786-1.445zm15.956-5.78v-.321l14.687 9.634-14.325-1.766-.362-7.547zm73.071 38.856l3.263.321 19.944 2.408 2.36-5.298-31.188-20.391-13.962-1.606-4.533-.482-19.944-2.408-2.358 5.298 31.187 20.392 15.231 1.766zm17.406-2.409l-14.324-1.766-.363-7.867 14.687 9.633zm-55.483-19.909l14.324 1.766.363 7.225v.642l-14.687-9.633zm19.22 12.684l-.544-10.276 11.785 1.285 5.621 3.693.544 10.275-11.785-1.284-5.621-3.693zm98.094 37.089l19.94 2.248 2.36-5.298-31.19-20.231-13.96-1.605-4.53-.482-19.95-2.408-2.35 5.298 31.18 20.391 14.15 1.606 4.35.481zm13.96-2.89l-14.32-1.766-.37-7.867 14.69 9.633zm-40.8-10.276l-14.68-9.473 14.32 1.767.36 7.706zm10.16 6.744l-5.62-3.693-.55-10.276 11.79 1.285 5.62 3.693v.802l.36 9.634-11.6-1.445zm83.58 10.276l-13.96-1.606-4.53-.482-19.94-2.408-2.36 5.298 31.18 20.392 13.97 1.605 4.53.482 19.94 2.408 2.36-5.298-31.19-20.391zm-17.95 10.115l-14.68-9.634 14.32 1.767.36 7.867zm26.11.803l14.69 9.473-14.32-1.766-.37-7.707zm-4.17 7.225l-11.78-1.285-5.62-3.692-.55-10.276 11.79 1.284 5.62 3.693.54 10.276zm-205.792-154.94l4.533-.321 20.126-1.766.907-5.62-35.719-13.326-13.962 1.284-4.533.321-20.126 1.767-.907 5.619L909.037 575l13.961-1.285zm17.588-5.941l-14.324 1.285-2.357-7.546 16.681 6.261zm-59.291-7.867l14.324-1.284 2.176 7.064.182.482-16.682-6.262zm22.121 8.028l-3.082-9.794 11.785-1.124 6.346 2.408v.321l3.083 9.634-11.786 1.124-6.346-2.408v-.161zm126.014 8.831l-35.718-13.487-13.961 1.284-4.533.321-20.126 1.767-.907 5.619 35.719 13.487 15.046-1.445 3.45-.321 20.13-1.766.9-5.459zm-67.267-6.102l14.324-1.284 2.357 7.546-16.681-6.262zm28.467 10.597l-6.346-2.408-.182-.482-2.901-9.312 11.786-1.124.362-1.606-.181 1.606 6.346 2.408.363 1.445 2.723 8.51-11.97.963zm16.32-1.445l-2.36-7.546 16.86 6.262-14.5 1.284zm103.35 7.707l-35.72-13.487-.73 4.496 6.35 2.408 3.08 9.955-11.78 1.124-.73 4.656 14.33-1.284 4.17-.321 20.12-1.767.91-5.78zm-22.48 3.051l-2.36-7.546 16.86 6.261-14.5 1.285z" stroke="#102237" stroke-opacity=".05" stroke-width=".5" stroke-miterlimit="10"/><path d="M1074.58 574.036l-13.96 1.285-4.53.321-20.13 1.766-.91 5.62 35.72 13.326.73-4.496-6.35-2.408-.18-.482-3.08-9.473 11.78-1.124.91-4.335zm-31.55 7.386l14.32-1.284 2.18 6.743.18.803-16.68-6.262zm108.61 25.689l-35.72-13.326.91-5.62 20.12-1.766 4.54-.321 13.96-1.284 35.9 13.326-.91 5.62-20.13 1.766-4.35.321-14.32 1.284zm0 0l.72-4.495m-28.46-10.437l14.32-1.284 2.36 7.546-16.68-6.262zm59.11 7.868l-14.33 1.284-2.35-7.385v-.161l16.68 6.262zm-21.94-8.028l3.08 9.633-11.79 1.124-6.34-2.408-.18-.482-3.09-9.473 11.79-1.124 6.35 2.409.18.321zM690.187 794.966l-4.17.963m4.17-.963l-6.89-10.918-2.176-3.533-9.972-15.574-6.165 1.445.362 34.36 6.891 10.918 2.175 3.532 9.973 15.575 6.165-1.445-.363-34.36zm-19.764 4.656h-.362m.362 0l-.181-6.101.363-.321 8.703-6.262 5.802 9.152v6.101l-8.884 6.422-5.803-8.991zm6.528-16.216l-6.346 4.495-.544.321-.182-16.056 7.072 11.24zm1.45 28.9l6.89-4.977.182 16.056-7.072-11.079zm33 52.503l-6.89-10.918-2.176-3.532-9.972-15.574-6.165 1.445.363 34.359 7.252 11.239 1.995 3.051 9.972 15.574 6.165-1.445-.544-34.199zm-13.236-11.4l-6.89 4.978-.181-16.056 7.071 11.078zm-6.527 16.056l-.182-6.101.363-.321 8.703-6.262 5.802 9.152v6.101l-.906.643-8.16 5.94-5.62-9.152zm7.977 12.685l6.891-4.978.181 16.056-7.072-11.078zm33 52.663l.363 34.36-5.984 1.445-9.972-15.574-2.176-3.372-7.071-11.079-.363-34.36 6.165-1.444 9.972 15.574 2.176 3.532 6.89 10.918zm0 0l-4.714 1.124m-8.522-12.684l-6.709 4.817h-.181l-.181-16.056 7.071 11.239zm-6.709 16.216v-6.101l9.066-6.583 5.802 9.152v6.101l-.906.642-8.16 5.941-5.802-9.152zm8.16 12.685l6.89-4.978.181 16.056-7.071-11.078zm32.818 52.506l-6.89-10.922-2.176-3.532-9.972-15.574-6.165 1.445.362 34.363 6.891 10.91 2.175 3.38 9.973 15.57 6.165-1.44-.363-34.2zm-20.126-22.642l7.071 11.239-6.89 4.977-.181-16.216zm.362 27.292v-6.1l.182-.16 8.884-6.422 5.802 9.152v6.1l-.906.8-7.978 5.78-5.984-9.15zm8.16 12.69l6.89-4.98.181 16.06-7.071-11.08zm27.56-222.057l5.621-2.89-10.517-33.075-9.791-8.831-3.264-2.89-14.142-12.845-5.621 2.89 10.516 33.076 9.791 8.83 3.264 2.89 14.143 12.845zm-1.088-7.225l-9.973-9.152 5.077-6.422 4.896 15.574zm-29.736-45.92l9.972 9.152-5.076 6.422-4.896-15.574zm16.5 33.878l-8.341-7.546-1.813-5.941 6.89-8.349 8.341 7.546 1.813 5.941-6.89 8.349zm32.637 55.233l-4.533 2.247m4.533-2.247l-1.813-5.941v-.161l6.708-8.349 8.341 7.547 1.813 5.94-6.89 8.349-8.159-7.385zm-4.533 2.247l10.516 9.473 2.539 2.409 14.143 12.684 5.62-2.89-10.516-33.075-9.791-8.831-3.264-2.89-14.143-12.845-5.62 2.89 10.516 33.075zm1.088-13.165l-4.896-15.575 9.973 9.152-5.077 6.423zm20.126 14.932l4.896 15.413-9.973-9.152 5.077-6.261zm52.401 82.688l-10.517-33.076-9.791-8.83-3.263-2.891-14.143-12.844-5.621 2.89 10.335 33.075 9.791 8.831 3.083 2.89 14.142 12.845 5.984-2.89zm-26.472-41.264l-5.077 6.422-4.896-15.574 9.973 9.152zm6.527 24.726l-8.341-7.546-1.813-5.941 6.89-8.349 8.341 7.546 1.813 5.941-6.89 8.349zm3.264 2.89l5.077-6.422 4.895 15.574-9.972-9.152zm47.142 43.19l-9.791-8.83-3.264-2.89-14.143-12.845-5.62 2.89 10.516 33.075 9.972 8.991 3.083 2.891 14.143 12.844 5.62-2.89-10.516-33.236zm-21.214-1.766l-4.896-15.574 9.973 9.152-4.896 5.941-.181.481zm11.786 18.304l-8.341-7.546-1.813-5.941 6.89-8.349 8.34 7.546 1.814 5.941-6.89 8.349zm3.082 2.89l4.896-6.101.181-.321 4.895 15.574-9.972-9.152zM825.631 741.66l17.406 8.991 4.533-4.014-19.763-29.542-12.149-6.423-3.988-2.087-17.407-9.152-4.533 4.014 19.764 29.543 12.148 6.262 3.989 2.408zm4.895-11.56l9.248 13.808-12.33-6.583 3.082-7.225zm-23.208-10.918l-.544 1.284-9.247-13.808 12.329 6.583-2.538 5.941zm6.527-4.014l10.335 5.298 3.445 5.299-.181.321-3.989 9.312-10.335-5.298-3.626-5.299 4.351-9.633zm53.489 69.361l-19.764-29.542 4.533-4.014 17.407 9.151 3.989 2.088 12.148 6.262 19.763 29.542-4.533 4.014-17.406-9.151-3.626-1.927-12.511-6.423zm0 0l3.626-3.211m0 0l-3.445-5.298 4.17-9.634 10.335 5.299 3.445 5.298-4.17 9.634-10.335-5.299zm-6.165-10.115l-.181.482-9.247-13.808 12.329 6.583-2.901 6.743zm23.572 10.276v-.161l9.247 13.969-12.33-6.583 3.083-7.225zm55.12 38.052l-12.148-6.422-3.808-2.087-17.406-9.152-4.533 4.014 19.763 29.543 12.33 6.422 3.626 1.927 17.407 9.152 4.533-4.014-19.764-29.383zm-21.033 3.212l-9.247-13.808 12.33 6.582-3.083 7.226zm16.682 14.932l-10.336-5.299-3.445-5.298 4.171-9.634 10.335 5.299 3.445 5.298-.363.642-3.807 8.992zm7.071-5.138l9.247 13.808-12.33-6.583 2.902-6.583.181-.642zm42.972 31.951l-3.989-2.087-17.406-9.152-4.533 4.014 19.763 29.543 12.149 6.422 3.989 2.088 17.408 9.151 4.53-4.013-19.76-29.543-12.151-6.423zm-18.132-4.495l12.33 6.582-3.083 7.226-9.247-13.808zm25.929 28.9l-10.335-5.298-3.627-5.299 4.171-9.633 10.335 5.298 3.44 5.299-3.984 9.633zm3.984 2.087l3.09-7.385 9.24 13.968-12.33-6.583zM874.949 657.367l27.742 24.083-3.264 4.978-19.401-4.817-4.17-1.124-13.599-3.372-27.741-24.084 3.263-4.977 19.401 4.817 4.171 1.124 13.598 3.372zm0 0l-2.538 4.014m0 0l4.895 4.335-1.087 10.275-11.423-2.729-4.896-4.335 1.088-10.276 11.423 2.73zm9.066 8.028l13.055 11.239-13.962-3.533.907-7.706zm-25.747-4.496v.482l-13.055-11.24 13.961 3.533-.906 7.225zm95.191 52.984l19.401 4.817 3.264-4.977-27.742-24.084-13.599-3.372-4.351-1.124-19.401-4.816-3.264 4.977 27.742 24.084 13.78 3.371 4.17 1.124zm14.324-1.124l-13.961-3.532.906-7.707 13.055 11.239zm-38.802-15.413v.16l-13.054-11.239 13.961 3.533-.907 7.546zm4.171 3.693l1.088-10.276 11.422 2.729 4.896 4.335-.181 1.445-.907 8.831-11.423-2.729-4.895-4.335zm91.016 48.97l19.41 4.817 3.26-4.977-27.74-24.084-13.6-3.372-4.171-1.124-19.401-4.817-3.264 4.978 27.746 24.084 13.96 3.371 3.8 1.124zm1.46-12.042v-.481l13.05 11.239-13.96-3.532.91-7.226zm-25.933-4.335l-13.055-11.239 13.962 3.532-.907 7.707zm4.173 3.693l1.27-10.276 11.42 2.73 4.9 4.335-1.27 10.276-11.43-2.73-4.89-4.335zm72.52 21.354l-4.35-1.123-19.4-4.817-3.26 4.977 27.74 24.084 13.78 3.372 4.17 1.124 19.4 4.816 3.26-4.977-27.74-24.084-13.6-3.372zm-5.8 11.24l-13.05-11.24 13.96 3.533-.91 7.707zm24.84 11.72l.91-7.706 13.05 11.239-13.96-3.533zm-3.26-10.918l-1.09 9.795-11.42-2.73-4.9-4.335 1.09-10.276 11.42 2.73 4.9 4.335v.481zM936.96 605.827l-33.725-16.859-14.143-.16h-4.533l-20.126-.161-1.632 5.459 33.725 16.859 14.143.16h4.533l20.126.161 1.632-5.459zm-66-12.684l14.506.16 1.45 7.386v.321l-15.956-7.867zm26.835 13.326l-5.983-3.05-1.813-10.116h11.967l5.983 3.051 1.813 10.276-11.967-.161zm16.5.161l-1.45-7.546v-.161l15.956 7.867-14.506-.16zm101.535 17.822l-33.722-16.859-14.143-.16h-4.533l-20.126-.161-1.632 5.459 33.725 16.859 1.269-4.496-5.983-3.051-1.814-10.275h11.967l5.984 3.05 1.813 10.116h-11.967l-1.269 4.495 14.687.161h3.989l20.125.16 1.63-5.298zm-65.997-12.684l14.505.16 1.451 7.547v.16l-15.956-7.867zm43.335 13.487l-1.451-7.226v-.481l15.953 7.867-14.502-.16zm101.722 17.982h-.18.18zm-.18 0l-33.73-16.858-14.5-.161h-4.18l-20.12-.161-1.63 5.459 33.72 16.859 14.14.161h4.54l20.12.16 1.64-5.459zm-65.82-12.684l14.5.161 1.45 7.707-15.95-7.868zm26.83 13.327l-5.98-3.051v-.161l-1.81-9.954h11.96l5.99 3.05 1.81 10.276-11.97-.16zm16.5.16l-1.45-7.546v-.161l15.96 7.868-14.51-.161zm67.82 1.124l-14.15-.161h-4.53l-20.13-.16-1.63 5.459 33.73 16.859 14.14.16h4.35l20.13.161 1.63-5.459-33.54-16.859zm-32.28 4.175l14.51.16 1.45 7.707-15.96-7.867zm57.84 13.647l-14.5-.16-1.46-7.707 15.96 7.867zm-19.04-.16h-11.96l-5.99-3.051-.18-.482-1.81-9.633h11.96l5.99 3.05 1.99 10.116zM910.125 516.235l-13.599 3.051-4.352.963-19.582 4.496v5.619l37.533 8.51 13.599-3.051 4.351-.963 19.582-4.496v-5.619l-37.532-8.51zm0 0v4.656m0 0l6.709 1.606 4.714 9.473-11.423 2.729-6.709-1.605v-.161l-4.714-9.312 11.423-2.73zm30.098 6.744l-13.961 3.05-3.445-6.904-.181-.321 17.587 4.175zm-59.834 0l13.961-3.051 3.627 7.065-17.588-4.014zm149.221-2.89v.16-.16zm0 .16l-37.53-8.51-13.599 3.051-4.351.963-19.583 4.496v5.62l37.533 8.509 13.96-3.211 3.99-.803 19.58-4.495v-5.62zm-67.629 2.73l13.962-3.051 3.626 7.065-17.588-4.014zm29.918 6.904l-6.709-1.445-.363-.482-4.533-8.831 11.424-2.729 6.708 1.605 4.714 9.473-11.241 2.409zm15.951-3.693l-3.62-7.065 17.59 4.014-13.97 3.051zm103.36-5.941l-37.54-8.51-13.6 3.051-4.35.963-19.58 4.496v5.62l37.53 8.509 13.78-3.211 4.17-.963 19.59-4.496v-5.459zm-67.45 2.73l13.96-3.051 3.62 7.065-17.58-4.014zm29.91 6.904l-6.71-1.606-4.71-9.312 11.42-2.73 6.71 1.606.73 1.284 4.17 8.189-11.61 2.569zm15.96-3.693l-3.45-6.583-.36-.482 17.59 4.014-13.78 3.051zm65.82 8.028l-37.54-8.51v-5.619l19.59-4.496 4.35-.963 13.6-3.051 37.71 8.349v5.62l-19.58 4.495-4.17.964-13.96 3.211zm0 0v-4.496m0 0l-6.71-1.605-4.72-9.473 11.43-2.73 6.71 1.606v.16l4.71 9.313-11.42 2.729zm-29.92-6.743l13.96-3.051 3.63 7.065-17.59-4.014zm59.83 0l-13.96 3.05-3.62-7.064 17.58 4.014zM585.567 677.918l5.077 17.341h6.346l9.61-33.236-3.445-12.042-1.088-3.854-5.077-17.34h-6.346l-9.61 33.236 3.627 12.363.906 3.532zm8.341 10.597l-3.445-12.363 7.978-3.211-4.533 15.574zm0-52.985l3.445 12.364-7.797 3.05-.181.161 4.533-15.575zm-5.984 20.552l10.698-4.174 3.082 10.115-1.813 5.94-10.698 4.175-3.082-10.115 1.813-5.941zm39.708 15.253l1.995 3.211 9.972 15.575 6.165-1.445-.363-34.36-6.89-10.918-2.175-3.532-9.973-15.575-6.165 1.445.363 34.36 7.071 11.239zm5.984.321l6.89-4.977.181 16.056-7.071-11.079zm-1.451-28.9l-6.346 4.656-.544.321-.181-16.056 7.071 11.079zm-6.708 10.115l.906-.642 8.159-5.941 5.803 9.152v6.101l-1.27.963-7.615 5.62-5.802-9.152-.181-6.101zm37.17-5.78L659 648.857m3.627-1.766l-1.813-5.941 6.89-8.349 8.34 7.546 1.813 5.941-6.89 8.349-8.34-7.546zm8.522 13.968l14.142 12.685 5.621-2.89-10.516-33.076-9.791-8.83-3.264-2.891-14.143-12.844-5.621 2.89 10.517 33.075 9.972 8.991 3.083 2.89zm8.159-10.115l4.895 15.574-9.972-9.151 5.077-6.423zm-25.022-30.185l9.973 9.152-4.896 6.101-.181.321-4.896-15.574zm38.802 7.707l-1.813 1.605 12.329 6.423 3.627 1.927 17.406 9.151 4.533-4.014-19.764-29.543-12.148-6.422-3.989-2.087-17.406-9.152-4.533 4.014 19.763 29.543 1.995-1.445zm19.038-1.285v-.16l9.247 13.808-12.329-6.583 3.082-7.065zm-16.5-15.092l10.335 5.298 3.445 5.299-4.17 9.633-10.335-5.298-3.445-5.299v-.16l4.17-9.473zm-16.318-8.67l12.329 6.582-3.082 7.386-9.247-13.968zm38.439.642l13.78 3.372 4.171.963 19.4 4.817 3.264-4.978-27.741-24.083-13.599-3.372-4.352-1.124-19.401-4.817-3.263 4.977 27.741 24.245zm19.401-7.707l13.055 11.239-13.961-3.532.906-7.707zm-21.577-1.284l1.088-9.473 11.423 2.729 4.896 4.335-1.088 10.276-11.423-2.73-4.896-4.335v-.802zm-3.445-10.597l-.906 7.706-13.055-11.239 13.961 3.533zm-10.153-28.419l33.725 16.858 14.324.161h4.17l20.126.16 1.632-5.459-33.725-16.858-14.143-.161h-4.533l-20.126-.16-1.45 5.459zm65.999 12.684l-14.505-.161-1.451-7.707 15.956 7.868zm-26.835-13.487l5.984 3.05.181 1.124 1.632 9.152h-11.967l-5.984-3.05-1.813-10.116 11.967-.16zm-31.005-.321l14.505.16 1.451 7.386v.321l-15.956-7.867zm20.126-35.966l-4.352.964-19.582 4.495v5.62l37.533 8.51 13.78-3.212 4.17-.963 19.582-4.496v-5.459l-37.532-8.509-13.599 3.05zm-16.319 8.189l13.962-3.051 3.626 7.065-17.588-4.014zm59.835 0l-13.961 3.051-3.627-7.065 17.588 4.014zm-18.313 4.174l-11.423 2.73-6.89-1.606-.725-1.445-3.989-8.028 11.604-2.729 6.709 1.605 4.714 9.473zM609.138 735.238l-9.61 33.236h-6.346l-5.077-17.341-1.088-4.014-3.445-12.042 9.61-33.236h6.346l5.077 17.341 1.088 4.014 3.445 12.042zm0 0h-5.077m0 0l-1.813 5.94-10.698 4.175-3.082-10.115 1.813-5.941 10.698-4.174 3.082 10.115zm-3.445 10.918l-4.352 15.574-3.445-12.363 7.797-3.211zm-8.884-21.836l4.532-15.575 3.446 12.364-7.978 3.211zm61.647 20.873l9.973 15.574 6.165-1.445-.363-34.36-6.89-10.918-2.176-3.532-9.972-15.574-6.165 1.445.363 34.359 6.89 10.918 2.175 3.533zm10.879 8.349l-7.071-11.239 6.89-4.978.181 16.217zm-8.34-39.98l-6.89 4.978-.182-16.056 7.072 11.078zm-6.709 16.056v-6.101l9.066-6.583 5.802 9.152v6.101l-.906.642-8.16 5.941-5.802-9.152zm52.401-16.859l9.791 8.831 3.264 2.89 14.142 12.845 5.621-2.89-10.516-33.075-9.791-8.831-3.264-2.89-14.143-12.684-5.62 2.89 10.516 32.914zm26.11 17.18l-9.973-9.152 5.077-6.422 4.896 15.574zm-16.682-33.717l8.341 7.546 1.813 5.941-1.632 1.927-5.258 6.422-8.341-7.546-1.813-5.941.182-.321 6.708-8.028zm-3.082-2.89l-5.077 6.422-4.895-15.574 9.972 9.152zm55.846-4.977l3.989 2.087 17.406 9.152 4.533-4.014-19.763-29.543-12.149-6.262-3.989-2.087-17.406-9.152-4.533 4.014 19.763 29.543 12.149 6.262zm8.884-9.152l.182-.321 9.247 13.968-12.33-6.583 2.901-7.064zm-16.681-15.254l10.335 5.299 3.445 5.298-4.17 9.634-10.335-5.298-3.627-5.299 4.352-9.634zm-6.89 5.299l-9.247-13.808 12.329 6.583-2.901 6.904-.181.321zm55.664-24.887l4.352 1.124 19.401 4.817 3.264-4.977-27.742-24.084-13.599-3.372-4.351-1.124-19.401-4.817-3.264 4.978 27.742 24.084 13.598 3.371zm18.857 0l-13.961-3.532.907-7.707 13.054 11.239zm-38.801-15.574v.321l-13.055-11.239 13.961 3.532-.906 7.386zm4.17 3.853l1.088-10.275 11.423 2.729 4.895 4.335-1.088 10.116-11.423-2.73-4.895-4.175zm47.142-40.3l20.127.161 1.631-5.459-33.725-16.859-14.142-.161h-4.533l-20.126-.16-1.632 5.459 33.725 16.858 14.142.161h4.533zm-44.241-17.983l14.505.161 1.451 7.707-15.956-7.868zm26.835 13.327l-5.984-3.051v-.16l-1.813-9.955h11.786l5.983 3.051.182.802 1.813 9.473-11.967-.16zm16.5.16l-1.451-7.706 15.956 7.867-14.505-.161zm30.824-62.939l-37.533-8.51-13.599 3.051-4.351.963-19.583 4.496v5.62l37.533 8.509 13.599-3.05 4.351-.964 19.583-4.495v-5.62zm-67.45 2.73l13.961-3.051 3.626 7.065-17.587-4.014zm29.917 6.904l-6.709-1.606-4.714-9.473 11.423-2.729 6.709 1.605 1.269 2.409 3.626 6.904-11.604 2.89zm15.775-3.693l-3.445-6.744-.182-.481 17.588 4.014-13.961 3.211zm-248.949-312.77l-5.077 17.341-1.088 3.853-3.626 12.203 3.445 11.881-.363.16 1.088 3.854.363-.161 5.077 17.501h6.346l5.077-17.34 1.088-3.854 3.445-12.041-9.61-33.236h-6.165v-.161zm3.082 59.889l-3.626-12.524 3.445-1.284 3.626 1.445-3.445 12.363zm5.984-32.433l1.632 5.941-3.083 10.115-.362-.161 1.269-4.174-5.802 2.247-5.44-2.247-.181-.161-1.813-5.941 3.082-10.115 10.335 4.175.363.321zm-9.429-8.189l3.445-12.363 4.533 15.574-7.978-3.211zm-5.258-42.387l.363-.161 5.077 17.501h6.346l5.077-17.34 1.088-3.854 3.445-12.042-9.61-33.236h-6.346l-5.077 17.341-.907 3.211-3.626 12.684 3.445 11.882-.363.16 1.088 3.854zm8.703 10.597l-3.626-12.524 3.445-1.445 3.808 1.445-3.627 12.524zm0-52.985l4.533 15.574-.362-.16-7.797-3.051 3.626-12.363zm-4.714 16.216l10.698 4.175 1.813 5.941-3.082 10.115-.363-.161 1.269-4.174-5.802 2.248-5.439-2.248-.182-.161-1.813-5.94 2.901-9.795zm1.632-95.372l-5.077 17.34-1.088 3.694-3.626 12.363 3.445 11.881-.363.161 1.088 3.853.363-.161 5.077 17.501h6.346l5.077-17.34 1.088-3.853 3.445-12.042-9.61-33.236h-6.165v-.16zm3.082 59.728l-3.626-12.523 3.445-1.285 3.808 1.445-3.627 12.363zm7.797-26.492l-3.082 10.115-.363-.16 1.269-4.175-5.802 2.248-4.895-1.927-.726-.321-1.813-5.941 3.082-10.115 10.698 4.175 1.632 6.101zm-3.626-10.918l-7.616-3.05 3.445-12.364 4.533 15.414h-.362zM595.358 1l-5.077 17.34-1.088 3.854-3.445 12.042 3.445 11.881-.363.16 1.088 3.854.363-.16 5.077 17.5h6.346l5.077-17.34 1.088-3.853 3.445-12.042L601.704 1h-6.346zm3.082 59.728l-3.626-12.524 3.445-1.284 3.808 1.445-3.627 12.363zm7.797-26.492l-3.082 10.115-.363-.16 1.269-4.175-5.802 2.248-4.714-1.927-.907-.321-1.813-5.94 3.082-10.116 9.248 3.693 1.45.642 1.632 5.94zm-11.242-13.969l3.445-12.363 4.533 15.574-7.978-3.21zm36.989 232.811l4.352-9.794 9.972 5.298.907 6.102-4.352 9.794-9.61-5.138-.362-.161-.907-6.101zm0 0l-1.994-.16m8.159 34.359l7.434-16.698 1.632-3.693 5.077-11.56-5.077-34.039-6.346-.642-7.434 16.698-1.632 3.693-5.077 11.56 5.077 34.039 6.346.642zm-2.176-7.064l-2.357-16.056 7.615 4.014-5.258 12.042zm7.253-52.664l2.357 16.056-.363-.16-7.071-3.854 5.077-12.042zm-1.451-12.845l6.346.643 7.434-16.699 1.632-3.692 5.077-11.561-4.896-34.038-6.346-.642-7.434 16.698-1.45 3.05-5.44 12.203 5.077 34.038zm4.17-6.422l-2.357-16.056.544.321 7.072 3.854-5.259 11.881zm7.253-52.503l2.357 16.056-7.615-4.014 5.258-12.042zm-6.89 15.574l8.703 4.657 1.451.802.906 6.102-4.351 9.794-10.154-5.459-.907-6.101 4.352-9.795zm.544-62.618l5.077 34.039 6.346.642 7.434-16.537 1.632-3.693 5.077-11.561-5.077-34.038-6.346-.642-7.434 16.698-1.632 3.693-5.077 11.399zm9.066 27.777l-2.357-16.056.181.161 7.253 4.014-5.077 11.881zm7.253-52.663l2.357 16.056-7.434-4.014 5.077-12.042zm-6.89 15.734l9.972 5.299.907 6.101-4.352 9.794-9.973-5.298-.906-6.101 4.352-9.794zm1.813 43.993v-.16.16zm-1.27-106.611l5.077 34.039 6.346.642 7.434-16.698 1.632-3.693 5.077-11.56-5.077-34.039-6.346-.642-7.434 16.698-1.45 3.532-5.259 11.721zm9.066 27.617l-2.357-16.056.181.16 7.253 4.014-5.077 11.882zm7.253-52.503l2.357 16.055-7.615-4.014 5.258-12.041zm-6.89 15.574l9.791 5.298h.181l.907 6.102-4.352 9.794-9.972-5.299-.907-6.101 4.352-9.794zm47.687 229.921l-8.522 9.954-5.621 34.039 5.983 2.248 12.148-14.29 2.72-3.211 8.522-9.955 5.621-34.038-5.983-2.248-12.149 14.29-2.719 3.211zm-8.16 38.855l2.539-15.895 5.983 5.78-8.522 10.115zm23.028-48.81l-2.539 15.895-.181-.16-5.802-5.62 8.522-10.115zm-11.423 13.487l7.977 7.546-.906 6.102-7.253 8.349-7.252-6.904-.726-.643.907-6.101 7.253-8.349zm30.642-73.536l-2.357 2.89-8.703 10.276-5.621 34.038 5.983 2.248 12.149-14.29 2.719-3.211 8.522-9.955 5.621-34.038-5.983-2.248-12.33 14.29zm-10.698 42.066l2.539-16.056 5.983 5.781-8.522 10.275zm22.846-48.81l-2.538 15.896-.363-.321-5.621-5.299 8.522-10.276zm-3.263 20.873l-.907 6.101-7.253 8.349-7.615-7.064-.363-.482.907-6.101 7.253-8.349 7.978 7.546zm23.934-45.759l2.719-3.211 8.522-9.955 5.44-34.039-5.984-2.248-12.148 14.29-2.72 3.211-8.522 9.955-5.62 34.039 5.983 2.248 12.33-14.29zm-12.149 6.904l2.539-15.896 5.983 5.62-8.522 10.276zm23.028-48.971l-2.539 15.896-5.983-5.781 8.522-10.115zm-18.676 21.836l7.253-8.349 7.615 7.225.363.321-.907 6.102-7.253 8.349-7.796-7.225-.182-.321.907-6.102zm39.346-46.562l2.72-3.211 8.521-9.955 5.621-34.038-5.983-2.248-12.148 14.29-2.539 2.89-8.703 10.275-5.621 34.039 5.984 2.248 12.148-14.29zm10.697-42.067l-2.538 15.896-5.983-5.78 8.521-10.115zm-11.241 13.487l7.796 7.386v.16l-.906 6.102-7.253 8.35-7.978-7.547.907-6.102 7.434-8.349zm-9.066 19.428l5.983 5.62-8.703 10.276 2.72-15.896zm-17.588 225.907l-2.538 5.78 5.802 8.831 9.247-6.583 2.539-5.78-5.803-8.831-9.247 6.583zm0 0l-.906-.642m7.796-10.115l-10.879 8.028-14.324 31.951 5.258 3.372 15.594-11.4 3.445-2.569 10.879-7.867 14.324-31.952-5.258-3.371-15.594 11.399-3.445 2.409zm-18.131 36.126l6.708-14.932 4.352 6.743-11.06 8.189zm35.175-42.87l-6.709 14.932-.181-.16-4.352-6.583 11.242-8.189zm34.45-54.269l-3.082 2.248-11.242 8.189-14.324 31.951 5.258 3.372 15.594-11.4 3.445-2.569 10.879-7.867 14.324-31.952-5.258-3.372-15.594 11.4zm-21.576 38.534l6.708-14.932.363.643 3.989 6.101-11.06 8.188zm23.752-17.34l-9.247 6.583-5.802-8.991 2.538-5.62 9.247-6.743 5.803 8.991-2.539 5.78zm4.714-10.436l-4.351-6.744 11.06-8.188-6.709 14.932zm41.159-69.362l-3.445 2.569-10.879 8.028-14.324 31.951 5.258 3.372 15.594-11.4 3.445-2.569 10.879-7.867 14.324-31.951-5.258-3.372-15.594 11.239zm-21.576 38.695l6.708-14.932v.16l4.352 6.744-11.06 8.028zm35.357-42.87l-6.709 14.932-4.352-6.743 11.061-8.189zm-9.248 19.107l.363.642-2.538 5.62-9.248 6.743-5.802-8.991 2.539-5.62 9.247-6.583 5.439 8.189zm29.374-62.939l11.06-8.028 3.264-2.409 15.593-11.399 5.258 3.371-14.324 31.952-10.879 7.867-3.626 2.569-15.412 11.4-5.258-3.372 14.324-31.951zm0 0l4.17 2.729m0 0l9.247-6.743 5.802 8.991-2.538 5.62m-12.511-7.868l-2.538 5.62 5.802 8.991 9.247-6.743m0 0l1.45.963m-1.269-17.983l11.061-8.188-6.709 14.932-4.352-6.744zm-17.406 19.589l.181.321 4.17 6.422-11.06 8.189 6.709-14.932zm-71.802 208.566l-12.873 4.817-24.116 26.974 3.808 4.496 18.676-6.904 4.17-1.606 12.874-4.817 24.115-26.974-3.808-4.495-18.676 6.904-4.17 1.605zm-29.011 29.864l11.242-12.684v.161l1.994 7.546-13.236 4.977zm47.687-31.951l-11.242 12.684-1.994-7.546 13.236-5.138zm-19.22 21.515l-10.879 4.014-2.538-10.115 4.351-4.817 10.879-4.014 2.539 10.115-4.352 4.817zm66.362-63.421l-13.598 5.138-24.116 26.974 3.808 4.495 18.676-6.904 4.17-1.605 12.874-4.817 24.115-26.974-3.808-4.496-18.494 6.904-3.627 1.285zm-29.736 30.185l11.242-12.684 1.995 7.707-13.237 4.977zm47.687-32.112l-11.242 12.684v-.321l-1.813-7.225 13.055-5.138zm-19.22 21.515l-10.879 4.014-2.538-9.794v-.321l4.351-4.817 11.061-4.014 2.538 10.115-4.533 4.817zm68.356-40.3l-13.054 4.817-4.171 1.605-18.675 6.904-3.808-4.495 24.478-26.974 13.055-4.978 3.989-1.445 18.49-6.904 3.81 4.496-24.114 26.974zm0 0l-3.082-3.693m0 0l-11.06 4.014-2.357-8.831-.363-1.284 4.352-4.817 11.06-4.014 2.72 10.115-4.352 4.817zm19.036-21.354l-11.239 12.684-1.995-7.547 13.234-5.137zm-34.448 27.134l-13.236 4.977 11.242-12.684 1.994 7.707zm67.808-63.903l-24.11 26.974 3.81 4.496 18.67-6.904 4.17-1.606 12.88-4.816 24.11-26.974-3.81-4.496-18.67 6.904-3.99 1.445-13.06 4.977zm0 0l3.09 3.693 10.88-4.014 2.35 9.313.18.803-4.35 4.816-11.06 4.014-2.35-9.152-.19-.963 4.36-4.817-2.91-3.693zm-15.95 25.048l11.24-12.684 2 7.706-13.24 4.978zm47.69-31.952l-11.25 12.685-1.99-7.707 13.24-4.978zM903.96 407.055l-13.961 1.605-31.368 20.391 2.357 5.299 19.945-2.409 4.533-.481 13.961-1.606-1.994-4.175-11.786 1.285.363-9.634v-.642l5.621-3.693 11.785-1.284-.363 9.954v.482l-5.62 3.693 1.994 4.175 31.187-20.391-2.357-5.299-19.945 2.408-4.352.322zm-22.665 20.391l-14.324 1.766 14.687-9.634-.363 7.868zm41.159-17.983l-14.686 9.633.362-7.867 14.324-1.766zm58.384-29.543l-15.049 1.766-31.186 20.391 2.357 5.299 19.945-2.409 4.532-.481 13.962-1.606 31.191-20.391-2.36-5.299-19.947 2.409-3.445.321zm-23.752 20.391l-14.324 1.766 14.686-9.633-.362 7.867zm21.939-5.459l-5.621 3.693-11.785 1.284.362-9.794v-.481l5.621-3.693 11.786-1.285-.363 10.276zm19.22-12.524l-14.687 9.634v-.161l.363-7.546 14.324-1.927zm45.325-23.441l11.79-1.285-.36 9.955v.482l-5.62 3.692-11.79 1.285.54-10.276 5.44-3.853zm0 0l-1.99-4.175-31.19 20.391 2.36 5.299 19.95-2.409 4.53-.481 13.96-1.606 31.19-20.391-2.36-5.299-19.95 2.409-4.17.482-14.14 1.605 1.81 4.175zm-10.33 6.904l-.36 7.385-14.33 1.767 14.69-9.634v.482zm26.65-8.831l14.33-1.766-14.69 9.633.36-7.867zm70.72-16.216l-5.62 3.692 1.99 4.335 31.19-20.391-2.36-5.298-19.95 2.408-4.35.482-14.14 1.606 1.99 4.174 11.79-1.284-.54 10.276zm4.71-3.212l.36-7.546 14.33-1.766-14.69 9.473v-.161z" stroke="#102237" stroke-opacity=".05" stroke-width=".5" stroke-miterlimit="10"/><path d="M1113.74 335.445l5.62-3.693-1.99-4.335-31.19 20.391 2.36 5.299 19.95-2.409 4.53-.481 13.96-1.606-1.99-4.175-11.79 1.285.54-10.276zm-4.71 2.89l-.36 7.868-14.33 1.766 14.69-9.634zm-194.735 163.61l6.346-2.408.181-.321 2.902-9.634-11.786-1.124-6.346 2.409-3.083 9.954 11.786 1.124zm0 0l.181.642m35.357-15.092l-20.126-1.766-4.533-.321-13.961-1.285-35.72 13.487.907 5.62 20.126 1.766 4.533.321 13.961 1.284 35.72-13.487-.907-5.619zm-49.499 5.78l-2.357 7.225-14.325-1.284 16.682-6.262v.321zm28.104-3.211l14.324 1.284-16.681 6.262 2.357-7.546zm63.461-16.698l15.051 1.284 3.62.321 20.13 1.766.73 5.62-35.724 13.326-13.961-1.284-4.533-.321-20.126-1.766-.907-5.62 35.72-13.326zm0 0l.725 4.495m0 0l11.786 1.124-3.08 9.955-6.349 2.408-11.785-1.124 3.082-9.954 6.346-2.409zm-11.423 4.496l-2.357 7.225-14.324-1.284 16.681-6.262v.321zm25.569 4.496l.18-.322 2.36-7.225 14.32 1.285-16.86 6.262zm104.8-20.873l-20.13-1.766-3.99-.322-14.5-1.284-35.72 13.326.9 5.62 20.13 1.766 4.53.321 13.97 1.285 35.71-13.487-.9-5.459zm-49.5 5.459l-2.36 7.386-14.32-1.285 16.68-6.101zm20.31 6.583l-6.35 2.408-11.79-1.124 3.09-9.954 6.34-2.409 11.79 1.124-3.08 9.955zm5.25-1.927l2.36-7.546 14.33 1.284-16.69 6.262zm84.68-22.639l-4.53-.321-14.15-1.284-35.72 13.487.91 5.619 20.13 1.766 4.53.321 13.96 1.285 35.72-13.327-.91-5.619-19.94-1.927zm-31.73 14.611l-14.33-1.284 16.69-6.262-2.36 7.546zm22.66-.803l-6.34 2.409-11.79-1.124 2.9-9.313.18-.642 6.35-2.408 11.79 1.124-3.09 9.954zm22.12-8.349l-16.86 6.262v-.161l2.36-7.385 14.5 1.284zM692.544 264.157l-6.89 10.918-2.176 3.532-9.972 15.574-6.165-1.445.363-34.359 6.89-10.918 2.175-3.533 9.973-15.574 6.165 1.445-.363 34.36zm0 0h-.181m-20.126 22.639l.181-16.056.362.16 6.528 4.656-7.071 11.24zm15.593-51.219l-.182 16.217-6.89-4.978 7.072-11.239zm-.725 21.033l.362.161v6.101l-5.802 9.152-9.066-6.583v-6.101l5.802-9.152 8.704 6.422zm17.225-48.007l2.357-3.532 6.89-10.918.363-34.36-6.165-1.445-9.973 15.574-1.813 3.051-7.253 11.4-.362 34.359 6.165 1.445 9.791-15.574zm4.533-43.03l-.182 16.217-6.89-4.978 7.072-11.239zm-15.231 23.924l5.802-9.152 8.703 6.262.363.16v6.101l-5.802 9.152-9.066-6.583v-5.94zm0 11.239l.181.16 6.528 4.817-7.072 11.239.363-16.216zm31.912-62.137l2.176-3.532 6.89-10.918.362-34.36-6.165-1.445-9.972 15.574-2.176 3.372-7.071 10.918-.363 34.36 6.165 1.445 10.154-15.414zm4.533-42.87l-.182 16.057-.362-.161-6.528-4.816 7.072-11.08zm-15.231 23.924l5.802-9.152 9.066 6.583v6.102l-5.802 9.151-8.703-6.261-.363-.161v-6.262zm0 11.079l6.89 4.977-7.071 11.239.181-16.216zm31.912-61.976l2.176-3.532 6.89-10.918.362-34.36-6.164-1.445-9.973 15.574-2.176 3.532-6.89 10.919-.362 34.36 6.164 1.444 9.973-15.574zm4.533-42.87l-.182 16.217-6.89-4.977 7.072-11.24zM736.06 49.65l5.802-9.151 8.341 5.94.725.482v6.101l-5.802 9.152-7.978-5.78-1.088-.803v-5.94zm-.181 11.24l6.89 4.977-7.071 11.24.181-16.217zm21.939 210.974l-3.082 2.89-9.973 8.991-10.516 33.075 5.621 2.89 14.143-12.845 3.263-2.89 9.791-8.83 10.517-33.076-5.621-2.89-14.143 12.685zm-16.862 40.3l4.895-15.574 5.077 6.422-9.972 9.152zm29.917-45.759l-4.896 15.574-5.076-6.423 9.972-9.151zm-6.709 20.23l.182.161-1.814 5.94-8.34 7.547-6.346-7.868-.363-.482 1.813-5.94 8.341-7.546 6.527 8.188zm34.451-77.55l-2.72 2.408-10.335 9.313-10.517 33.075 5.621 2.89 14.143-12.845 3.264-2.89 9.791-8.831 10.516-33.075-5.621-2.89-14.142 12.845zm-16.863 40.461l4.896-15.574 5.077 6.422-9.973 9.152zm21.758-19.588l-8.34 7.546-6.528-8.028-.362-.321 1.813-5.941 8.34-7.546 6.528 8.028.362.481-1.813 5.781zm3.264-10.758l-5.077-6.422 9.973-9.152-4.896 15.574zm19.763-61.012l-10.335 33.075 5.621 2.89 14.143-12.845 3.264-2.89 9.791-8.831 10.516-33.075-5.621-2.89-14.142 12.684-3.083 2.73-10.154 9.152zm-3.807 28.74l4.895-15.575.182.161 5.077 6.262-10.154 9.152zm29.917-45.92l-4.895 15.574-.182-.161-5.077-6.101 10.154-9.312zm-13.236 12.042l6.89 8.349-1.813 5.94-8.341 7.547-6.89-8.349 1.813-5.941 8.341-7.546zm37.17-34.36l3.264-2.89 9.791-8.831 10.516-33.075-5.621-2.89-14.142 12.845-3.083 2.89-9.972 8.991-10.516 33.075 5.62 2.89 14.143-13.005zm16.863-40.461l-4.896 15.574-5.077-6.422 9.973-9.152zm-21.577 19.588l8.34-7.546 6.165 7.707.544.803-1.813 5.94-8.341 7.547-6.89-8.349 1.995-6.102zm-3.445 10.758l.181.16 4.896 6.102-9.973 9.151 4.896-15.413zm-44.423 210.814l-12.148 6.262-19.764 29.543 4.533 4.014 17.407-9.152 3.989-2.087 12.148-6.423 19.764-29.543-4.533-4.014-17.407 9.152-3.989 2.248zm-24.115 33.236l9.247-13.969.181.482 2.902 6.743-12.33 6.744zm42.247-37.571l-9.247 13.808-3.083-7.386 12.33-6.422zm-12.33 18.143v.161l-3.445 5.298-10.335 5.299-4.17-9.634 3.626-5.298 10.335-5.299 3.989 9.473zm52.401-65.187l-12.511 6.583-19.764 29.543 4.533 4.014 17.407-9.152 3.989-2.087 12.148-6.423 19.582-29.382-4.533-4.014-17.406 9.152-3.445 1.766zm-24.659 33.397l9.247-13.809 3.082 7.226-12.329 6.583zm42.428-37.571l-9.247 13.808-.182-.482-2.901-6.904 12.33-6.422zm-12.33 18.303l-3.445 5.299-10.335 5.298-3.989-9.312-.181-.321 3.445-5.299 10.335-5.298 4.17 9.633zm55.846-67.113l-3.807 2.087-12.149 6.262-19.763 29.543 4.533 4.014 17.406-9.152 3.808-1.927 12.329-6.422 19.764-29.543-4.533-4.014-17.588 9.152zm-28.104 35.162l9.247-13.808 3.083 7.225-12.33 6.583zm42.428-37.571l-9.247 13.969v-.161l-3.082-7.064 12.329-6.744zm-12.329 18.304l-3.445 5.298-10.335 5.299-4.171-9.634 3.445-5.298 10.335-5.299 4.171 9.634zm24.659-25.047l17.406-9.152 3.989-2.087 12.144-6.423 19.77-29.543-4.53-4.014-17.41 9.152-3.809 2.087-12.148 6.423-19.945 29.543 4.533 4.014zm45.329-44.315l-9.25 13.969v-.161l-3.08-7.225 12.33-6.583zm-16.319 8.51l4.169 9.634-3.443 5.298-10.335 5.298-3.989-9.312-.182-.321 3.627-5.299 10.153-5.298zm-16.681 15.093l3.083 7.385-12.33 6.583 9.247-13.968zM877.85 378.636l-13.598 3.371-27.742 24.084 3.264 4.977 19.401-4.816 4.351-1.124 13.599-3.372 27.742-24.084-3.264-4.977-19.401 4.817-4.352 1.124zm-32.999 26.331l13.054-11.239v.321l.907 7.386-13.961 3.532zm51.856-26.492l-13.055 11.239-.906-7.707 13.961-3.532zm-22.12 19.107l-11.423 2.729-1.088-10.276 4.895-4.335 11.423-2.729 1.088 10.275-4.895 4.336zm60.56-51.861l-27.742 24.084 3.264 4.977 19.401-4.817 4.351-1.124 13.599-3.371 27.742-24.084-3.264-4.978-19.401 4.817-3.989 1.124-13.961 3.372zm-19.401 23.12l13.054-11.239.907 7.707-13.961 3.532zm51.675-26.492l-13.055 11.239v-.16l-.906-7.547 13.961-3.532zm-18.132 4.496l1.088 10.276-4.895 4.335-11.423 2.729-1.088-10.115v-.161l4.895-4.335 11.423-2.729zm70.351-40.782l-13.6 3.371 2.54 4.014 11.42-2.729.91 8.51.18 1.766-4.89 4.335-11.43 2.729-1.27-10.275 4.9-4.336-2.54-4.014-27.741 24.084 3.263 4.978 19.398-4.817 4.17-1.124 13.6-3.372 27.74-24.084-3.26-4.977-19.4 4.817-3.99 1.124zm-33.181 26.492l13.055-11.239v.482l.906 7.225-13.961 3.532zm51.861-26.492l-13.06 11.239-.91-7.868 13.97-3.371zm10.69-8.67l3.27 4.977 19.4-4.817 4.35-1.124 13.6-3.372 27.74-24.083-3.26-4.978-19.4 4.817-4.36 1.124-13.59 3.372-27.75 24.084zm8.34-.964l13.06-11.239v.321l.91 7.546-13.97 3.372zm51.68-26.492l-13.05 11.239v-.321l-.91-7.546 13.96-3.372zm-18.31 4.496l1.08 10.275-4.89 4.335-11.42 2.73-1.09-10.276 4.89-4.335 11.43-2.729zM917.196 447.997h-4.533l-14.143.161-33.725 16.858 1.632 5.459 20.126-.16h4.533l14.143-.161 33.725-16.858-1.632-5.459-20.126.16zm-28.285 10.436l-1.451 7.386-14.505.161 15.956-7.868v.321zm21.214 3.854v.482l-5.984 3.05h-11.967l1.814-10.115 5.983-3.051h11.786l-1.632 9.634zm20.851-9.955L915.02 460.2l1.451-7.707 14.505-.161zm87.034-17.822l-1.63-5.459-20.13.161h-4.17l-14.505.16.362 1.285-.362-1.124-33.725 16.698 1.632 5.459 20.126-.161h4.533l14.142-.16 33.727-16.859zm-22.666-.803l14.506-.16-15.957 7.867 1.451-7.707zm-27.56 5.781l-1.451 7.546-14.505.16 15.774-7.867.182.161zm3.263 7.546l1.813-10.115 5.984-3.051h11.967l-1.813 9.955v.16l-5.984 3.051h-11.967zm126.013-31.309l-1.63-5.459-20.13.16h-4.53l-14.14.161 1.27 4.496h11.97l-1.82 9.794v.321l-5.98 3.05 1.27 4.496 33.72-17.019zm-22.66-.803l14.5-.161-15.95 7.868 1.45-7.707z" stroke="#102237" stroke-opacity=".05" stroke-width=".5" stroke-miterlimit="10"/><path d="M1048.65 432.744l14.51-.161-1.27-4.495h-11.97l1.81-10.276 5.99-3.051-1.27-4.495-33.73 16.858 1.63 5.459 20.13-.16 4.17.321zm-17.59-4.174l15.78-7.868v.482l-1.27 7.225-14.51.161zm123.12-36.769h-4.35l-14.15.161-33.9 16.859 1.63 5.459 20.13-.161h4.53l14.14-.16 33.73-16.859-1.64-5.459-20.12.16zm-28.29 10.437l-1.45 7.386-14.5.16 15.95-7.867v.321zm21.22 2.729l-.37 1.445-5.98 3.051h-11.97l1.82-10.276 5.98-3.05h11.79l-1.27 8.83zm20.67-8.83l-15.96 7.867 1.45-7.707 14.51-.16zm-568.433 34.199l5.077-17.341 1.088-3.853 3.445-12.042-9.61-33.236h-6.346l-5.077 17.341-1.088 3.692-3.626 12.363 9.61 33.236h6.527v-.16zm-3.264-59.728l4.533 15.574-7.978-3.211 3.445-12.363zm-5.983 32.433l-1.813-5.941 3.082-10.115 10.516 4.174h.182l1.813 5.941-3.083 10.276-10.335-4.014-.362-.321zm9.428 8.028l-3.445 12.363-4.533-15.575 7.978 3.212zm38.983 8.028l2.176-3.533 6.89-10.918.363-34.36-6.165-1.445-9.972 15.575-1.995 3.211-7.071 11.078-.363 34.36 6.165 1.445 9.972-15.413zm4.352-42.87l-.181 16.217-6.709-4.817 6.89-11.4zm-15.049 23.763l5.802-9.152 9.066 6.583v6.101l-5.802 9.152-8.16-5.941-.906-.642v-6.101zm-.182 11.239l6.89 4.977-7.071 11.24.181-16.217zm42.066 21.676l3.264-2.89 9.791-8.831 10.516-33.075-5.62-2.89-14.143 12.684-2.901 2.729-9.973 8.992-10.516 33.075 5.621 2.89 13.961-12.684zm16.681-40.461l-4.895 15.574-.182-.161-5.076-6.101 10.153-9.312zm-13.236 12.202l6.89 8.349-1.813 5.941-8.341 7.546-6.89-8.349 1.814-5.941 8.34-7.546zm-11.785 18.304l.181.321 4.895 6.101-9.972 9.152 4.896-15.574zm16.862 39.498l17.407-9.152 3.988-2.088 12.149-6.422 19.763-29.543-4.533-4.014-17.406 9.152-3.626 1.927-12.511 6.583-19.764 29.543 4.533 4.014zm45.511-44.315l-9.247 13.969v-.161l-3.083-7.064 12.33-6.744zm-26.473 13.969l10.335-5.299 4.171 9.634-3.627 5.298-10.335 5.299-3.807-9.152-.182-.482 3.445-5.298zm-6.527 9.633l3.082 7.226-12.329 6.582 9.247-13.808zm29.192 13.166l-27.742 24.084 3.264 4.977 19.401-4.816 4.352-1.124 13.598-3.372 27.742-24.084-3.264-4.977-19.401 4.817-4.17 1.123-13.78 3.372zm0 0l2.538 4.014m-7.978 15.574l-13.961 3.533 13.055-11.239.906 7.706zm37.896-22.96l-13.055 11.24-.907-7.868 13.962-3.372zm-29.736 7.386l11.423-2.729 1.088 10.275-4.896 4.336-11.423 2.729-1.269-10.276 5.077-4.335zm15.23 27.295l14.506-.16h4.17l20.126-.161 1.632 5.459-33.725 16.859-14.143.16h-4.533l-20.126.161-1.632-5.459 33.725-16.859zm0 0l1.27 4.014m4.351 13.487l5.984-3.05v-.161l1.813-9.955h-11.967l-5.802 2.89-.363 1.606-1.632 8.67h11.967zm0 0l.182.803m-16.863-.642l-14.505.16 15.774-7.867-1.269 7.707zm28.829-13.327l14.506-.16-15.956 7.867 1.45-7.707zM601.704 290.489h-6.346l-5.077 17.34-1.088 3.853-3.445 12.042 3.445 11.882-.363.16 1.088 3.854.363-.161 5.077 17.501h6.346l5.077-17.34 1.088-3.854 3.445-12.042-9.61-33.235zm-3.264 59.888l-3.626-12.523 3.445-1.446 3.808 1.446-3.627 12.523zm7.797-26.492L603.155 334l-.363-.16 1.269-4.175-5.802 2.248-5.077-2.087-.725-.322-1.813-5.94 3.082-10.115 10.698 4.174 1.813 6.262zm-11.242-14.129l3.445-12.363 4.533 15.574-7.978-3.211zm67.088 38.694l2.175-3.532L671.149 334l.362-34.36-6.165-1.445-9.972 15.575-2.176 3.532-6.89 10.918-.363 34.36 6.165 1.445 9.973-15.575zm4.533-42.869l-.182 16.217-6.89-4.978 7.072-11.239zm-15.594 51.058l.182-16.056.544.321 6.346 4.656-7.072 11.079zm.363-21.194v-6.101l5.802-9.152 5.984 4.335 2.901 2.087v6.102l-5.803 9.151-8.884-6.422zm47.686 46.723l14.143-12.845 3.264-2.89 9.791-8.831 10.516-33.075-5.62-2.89-14.143 12.845-3.264 2.89-9.791 8.831-10.516 33.075 5.62 2.89zm30.824-53.145L725 344.597l-.182-.161-4.895-6.101 9.972-9.312zm-13.236 12.042l6.89 8.349-1.813 5.94-8.341 7.547-6.527-8.028-.363-.321 1.814-5.941 8.34-7.546zm-11.785 18.303l5.076 6.423-9.972 9.152 4.896-15.575zm33.906 51.219l17.406-9.152 3.989-2.087 12.149-6.262 19.763-29.543-4.533-4.014-17.406 9.152-3.989 2.087-12.148 6.262-19.764 29.543 4.533 4.014zm45.511-44.315l-9.248 13.809v-.161l-3.082-7.065 12.33-6.583zm-16.319 8.671l4.17 9.633-3.445 5.299-10.335 5.298-4.17-9.633 3.626-5.299 10.154-5.298zm-13.599 22.317l-12.329 6.583 9.247-13.808 3.082 7.225zm49.5 36.608l.725 1.124m-.725-1.124l-11.423 2.729-1.088-10.275 4.896-4.335 11.423-2.73 1.087 9.634v.642l-4.895 4.335zm3.264-19.107l-13.599 3.372-27.742 24.084 3.264 4.977 19.401-4.816 4.352-1.124 13.598-3.372 27.742-24.084-3.264-4.977-19.401 4.817-4.351 1.123zm-33 26.493l13.055-11.239v.321l.906 7.385-13.961 3.533zm51.857-26.493l-13.055 11.24-.907-7.868 13.962-3.372zm7.796 52.022l-14.142.16-33.726 16.859 1.632 5.459 20.127-.161h4.532l14.143-.16 33.725-16.859-1.632-5.459-20.126.161h-4.533zm-23.752 10.275l-1.451 7.386-14.505.161 15.956-7.868v.321zm21.032 4.336l-5.983 3.05h-11.786l1.814-10.115 5.983-3.051h11.967l-1.995 10.116zm20.852-10.437l-15.956 7.868v-.161l1.451-7.707h14.505zM555.287 220.485l-6.346.642-5.077 34.038 5.077 11.561 1.632 3.693 7.434 16.698h.181l6.346-.643 5.077-34.038-5.077-11.56-1.632-3.693-7.434-16.698h-.181zm5.077 59.246l-5.077-11.56 7.253-3.854-2.176 15.414zm3.989-26.653l-.907 6.101-.906.482-8.885 4.817-4.351-9.634.906-6.101 9.791-5.298 4.352 9.633zm-13.236-9.794l2.176-15.414 5.076 11.561-7.252 3.853zm-5.802-94.569l-6.346.642-5.077 34.038 5.077 11.561 1.631 3.853 7.434 16.538h.182l6.346-.643 5.077-34.038-5.44-12.203-1.45-3.211-7.072-16.537h-.362zm5.076 59.085l-5.076-11.56 7.071-3.853h.181l-2.176 15.413zm3.989-26.652l-.906 6.101-.725.321-9.066 4.817-4.352-9.634.907-6.101 9.791-5.299 4.351 9.795zm-13.236-9.634l2.176-15.414 5.077 11.561-7.253 3.853zm-5.802-94.73l-4.17.482-1.813.16-5.077 34.039 5.258 11.721 1.632 3.693.181.16v.642l7.071 15.735h.182l6.346-.642 5.077-34.039-5.077-11.56-1.632-3.693-7.434-16.537-.544-.161zm5.077 59.246l-5.077-11.56 6.89-3.693.363-.16-2.176 15.413zm3.989-26.652l-.907 6.101-.362.16-9.429 5.138-4.351-9.633.906-6.102 1.451-.802 8.34-4.496 4.352 9.634zm-13.236-9.795l-.182.161 2.358-15.574 5.076 11.56-7.252 3.853zm-11.786-48.328l1.632 3.693 7.434 16.698 6.346-.642 5.077-34.039-5.258-11.72-1.632-3.533-7.434-16.537-6.346.642-5.077 34.038 5.258 11.4zm11.786 8.51v1.766l-.363 3.211-5.258-11.881 7.253-3.854-1.632 10.758zm-7.797-47.847l5.258 11.881-7.615 4.014 2.357-15.895zm-3.082 21.194l1.088-.642 8.884-4.817.907 1.927v.642l3.263 7.225-.906 6.101-.725.321-1.632.803v.16l-7.253 4.015-4.352-9.794.726-5.941zM467.53 276.52l-5.621-34.039 5.983-2.248 12.148 14.29 2.72 3.211 8.522 9.955 5.621 34.039-5.984 2.247-12.148-14.289-2.72-3.212-8.521-9.954zm0 0l4.714-1.766m0 0l-.907-6.102.363-.481 7.615-7.065 7.253 8.349.906 6.101-7.978 7.547-7.252-8.349zm-1.813-11.24l-2.539-15.895 8.703 10.276-6.164 5.619zm20.307 32.915l-8.703-10.276 5.983-5.78 2.72 16.056zm-54.758-86.863l8.522 9.955 2.72 3.211 12.148 14.29 5.983-2.248-5.62-34.038-8.704-10.276-2.357-2.89-12.148-14.29-5.983 2.248 5.439 34.038zm23.39 20.07l-8.703-10.275 5.983-5.781 2.72 16.056zm-4.352-26.974l.907 6.102-7.978 7.546-7.253-8.349-.906-6.262 1.45-1.284 6.528-6.102 7.252 8.349zm-9.972-11.72l-5.984 5.619-2.538-15.895 8.522 10.276zm-40.615-48.168l4.714-1.766-.906-6.101.181-.161 7.797-7.386 7.252 8.349 4.714-1.766-8.521-10.115-2.72-3.211-12.148-14.29-5.984 2.248 5.621 34.199zm9.066-18.625l-5.984 5.78-2.538-15.895 8.522 10.115zm11.06 17.662l-7.978 7.546-7.253-8.349-4.714 1.766 8.522 9.955 2.72 3.211 12.148 14.29 5.983-2.248-5.62-34.039-4.896 1.927 1.088 5.941zm.725 5.137l2.539 15.896-8.704-10.276 6.165-5.62zm-52.219-70.967l8.522 9.955 2.72 3.211 12.148 14.29 5.983-2.248-5.62-34.039-8.522-10.115-2.539-3.05-12.148-14.29-5.983 2.248 5.439 34.038zm14.687 9.794l5.983-5.62 2.539 16.057-8.522-10.437zm4.351-16.859l.907 6.102-7.978 7.546-7.253-8.349-.906-6.101.544-.482 7.434-6.904 7.252 8.188zm-10.153-11.56l-5.984 5.78-2.538-16.056 8.522 10.276zm33.543 245.817l-10.879-7.868-3.445-2.569-15.593-11.399-5.258 3.371 14.324 31.952 10.879 7.867 3.445 2.569 15.593 11.4 5.258-3.372-14.324-31.951zm-21.214 0l-.181.321-6.709-14.932 11.06 8.188-4.17 6.423zm13.78 17.34l-9.247-6.583-2.538-5.619.181-.322 5.621-8.67 9.247 6.583 2.538 5.62-.362.642-5.44 8.349zm7.797-4.335l6.709 14.932-11.061-8.188 3.989-6.262.363-.482zm-59.653-79.798l-3.264-2.408-15.593-11.4-5.259 3.372 14.325 31.951 10.879 7.867 3.445 2.569 15.593 11.4 5.258-3.372-14.324-31.951-11.06-8.028zm-10.154 8.51l-6.709-14.932 11.06 8.188-4.351 6.744zm13.961 17.019l-9.247-6.583-2.538-5.62 5.802-8.991 9.247 6.744 2.538 5.619v.161l-5.802 8.67zm7.797-4.175l6.709 14.932-11.061-8.188 4.352-6.744zm-69.445-58.283l10.879 7.868 3.445 2.569 15.594 11.399 5.258-3.371-14.324-31.952-10.879-8.028-3.445-2.569-15.594-11.399-5.258 3.372 14.324 32.111zm21.396-.321l6.708 14.932-11.06-8.188 4.352-6.744zm-13.962-17.019l9.247 6.743 2.539 5.62-5.802 8.991-9.248-6.743-2.538-5.62 5.802-8.991zm-3.445-2.569l-4.351 6.744-6.709-14.932 11.06 8.188zm-31.186-52.021l14.324 31.951-5.259 3.372-15.593-11.4-3.445-2.569-10.879-7.867-14.324-32.112 5.258-3.372 15.594 11.4 3.263 2.408 11.061 8.189zm0 0l-4.171 2.729m0 0l2.539 5.62-5.802 8.991-9.248-6.743-2.538-5.62.363-.642 5.439-8.349 9.247 6.743zm4.533 10.437l6.709 14.932-11.06-8.189 4.351-6.743zm-28.467-27.777l11.061 8.188-4.352 6.744-6.709-14.932zm77.604 227.834l-3.807 4.495 24.115 26.974 12.873 4.817 4.171 1.606 18.675 6.904 3.808-4.496-24.115-26.974-13.055-4.817-4.17-1.605-18.495-6.904zm15.412 18.946l-11.423-12.524 13.237 4.977-1.814 7.547zm25.022 6.904l11.242 12.684-13.236-4.978 1.994-7.706zm-21.395-3.051l2.538-9.794 10.879 4.014 4.352 4.817-2.539 10.115-11.06-4.014-4.352-4.817.182-.321zm-84.132-66.472l-3.807 4.496 24.115 26.974 12.873 4.817 4.171 1.605 18.675 6.904 3.808-4.495-24.115-26.974-13.78-5.138-3.445-1.285-18.495-6.904zm40.434 25.85v-.16l11.242 12.684-13.236-4.977 1.994-7.547zm-18.857-13.005l11.06 4.014 4.352 4.817-2.538 10.115-11.061-4.014-4.351-4.817 2.538-10.115zm-6.165 6.101l-11.241-12.684 13.236 4.978-1.995 7.706zm-57.84-54.429l-4.17-1.606-18.676-6.904-3.807 4.496 24.115 26.974 12.873 4.817 4.171 1.605 18.675 6.904 3.808-4.495-24.115-26.974-12.874-4.817zm-7.253 10.597l-11.241-12.684 13.236 4.977-1.995 7.707zm25.022 6.904v-.161l11.242 12.684-13.236-4.977 1.994-7.546zm-3.626-4.175l-2.539 10.115-11.06-4.014-4.351-4.816.181-.643 2.357-9.473 11.06 4.014 4.352 4.817zm-81.774-34.038l12.873 4.816 4.171 1.606 18.675 6.904 3.808-4.496-24.115-26.974-3.082 3.693 4.351 4.817-.181.482-2.539 9.473-11.06-4.014-4.352-4.817v-.321l2.539-9.794 11.06 4.014 3.083-3.693-12.874-4.817-3.989-1.445-18.676-6.904-3.807 4.496 24.115 26.974zm20.308-5.62l11.241 12.684-13.236-4.977 1.995-7.707zm-25.022-6.743l-11.242-12.685 13.236 4.978-1.994 7.707zm156.295 201.341l-31.186-20.391 2.357-5.299 19.945 2.409 4.532.482 13.962 1.605 31.186 20.391-2.357 5.299-19.945-2.409-4.532-.481-13.962-1.606zm0 0l1.269-2.73m31.187 2.088l-14.324-1.766-.363-7.868 14.687 9.634zm-24.841-16.217l5.621 3.533.544 10.275-11.785-1.284-5.621-3.693-.544-10.276 11.785 1.445zm-15.955 5.78v.161l-14.687-9.634 14.324 1.767.363 7.706zM215.68 379.92l-3.264-.321-19.945-2.409-2.357 5.299L221.3 402.88l13.962 1.606 4.533.481 19.945 2.409 2.357-5.299-31.187-20.391-15.23-1.766zm-17.407 2.408l14.324 1.767.363 7.867-14.687-9.634zm55.483 19.749l-14.324-1.766-.363-7.225v-.642l14.687 9.633zm-19.219-12.523l.543 10.275-11.785-1.284-5.621-3.693-.544-10.276 11.786 1.285 5.621 3.693zm-98.093-37.25l-19.945-2.248-2.357 5.298 31.187 20.391 13.961 1.606 4.533.482 19.945 2.408 2.357-5.298-31.187-20.391-14.324-1.606-4.17-.642zm-13.961 2.89l14.324 1.766.362 7.867-14.686-9.633zm40.796 10.276l14.687 9.473-14.324-1.766-.363-7.707zm-10.154-6.744l5.621 3.693.544 10.276-11.786-1.285-5.62-3.693v-.802l-.363-9.634 11.604 1.445zm-83.587-10.115l13.961 1.606 4.533.481 19.945 2.409 2.357-5.299-31.186-20.391-13.962-1.606-4.351-.481-19.945-2.409-2.357 5.299 31.005 20.391zm17.95-10.276l14.687 9.634-14.324-1.766-.363-7.868zm-26.11-.642l-14.686-9.473 14.324 1.766.363 7.707zm3.99-7.386l11.785 1.445 5.621 3.693.544 10.276-11.785-1.285-5.621-3.692-.544-10.437zm230.091 175.01l4.533-.321 20.126-1.766.907-5.62-35.72-13.487-13.961 1.285-4.533.321-20.126 1.766-.907 5.619 35.72 13.487 13.961-1.284zm17.407-6.101l-14.324 1.284-2.176-7.065-.181-.481 16.681 6.262zm-59.11-7.868l14.324-1.284 2.357 7.546-16.681-6.262zm22.121 8.189v-.321l-3.082-9.634 11.785-1.124 6.346 2.409v.16l3.083 9.794-11.786 1.124-6.346-2.408zm-110.966-17.18l35.719 13.326 13.962-1.284 4.533-.321 20.126-1.766.907-5.62-35.72-13.326-15.049 1.284-3.445.321-19.945 1.766-1.088 5.62zm67.269 6.101l-14.324 1.285-2.358-7.547 16.682 6.262zm-28.467-10.597l6.346 2.409.181.481 2.901 9.313-11.785 1.124-.363 1.605.181-1.605-6.346-2.409-.362-1.445-2.72-8.509 11.967-.964zm-16.319 1.445l2.357 7.547-16.862-6.262 14.505-1.285zm-103.351-7.707l35.72 13.487.725-4.495-6.346-2.409-3.083-9.954 11.786-1.124.725-4.496-14.324 1.284-4.17.322-20.126 1.766-.907 5.619zm22.484-3.05l2.357 7.546-16.863-6.262 14.506-1.284z" stroke="#102237" stroke-opacity=".05" stroke-width=".5" stroke-miterlimit="10"/><path d="M119.763 485.086l13.961-1.284 4.533-.321 20.126-1.766.907-5.62-35.72-13.326-.725 4.495 6.346 2.409.182.481 3.082 9.473-11.786 1.124-.906 4.335zm31.549-7.385l-14.324 1.284-2.176-6.743-.181-.803 16.681 6.262zM42.703 451.69l35.72 13.487-.907 5.62-20.126 1.766-4.533.321-13.962 1.284-35.9-13.487.906-5.619 20.126-1.766 4.352-.321 14.324-1.285zm0 0l-.725 4.496m0 0l-11.786 1.124 3.083 9.633.18.321 6.347 2.409 11.786-1.124-3.083-9.473-.181-.482-6.346-2.408zm28.467 10.757l-14.324 1.285-2.358-7.547 16.682 6.262zm-59.11-7.867l14.324-1.285 2.357 7.386v.161l-16.68-6.262zm492.82-194.919l4.171-.964m-4.171.964l6.89 10.918 2.176 3.532 9.973 15.574 6.164-1.445-.362-34.359-6.89-10.918-2.176-3.533-9.972-15.574-6.165 1.445.362 34.36zm13.237 11.399l6.346-4.656.544-.321.181 16.056-7.071-11.079zm6.527-16.056l.181 6.102-.362.321-8.704 6.262-5.802-9.152v-6.101l9.066-6.583 5.621 9.151zm-7.978-12.684l-6.89 4.978-.181-16.056 7.071 11.078zm-33-52.663l6.89 10.757 2.176 3.533 9.973 15.574 6.164-1.445-.362-34.36-7.253-11.239-1.994-3.051-9.792-15.574-6.164 1.445.362 34.36zm13.236 11.56l6.89-4.977.182 16.056-7.072-11.079zm6.709-16.216v6.101l-.362.321-8.704 6.262-5.802-9.152v-6.101l.725-.482 8.341-5.941 5.802 8.992zm-8.159-12.685l-6.89 4.978-.182-16.056 7.072 11.078zm-7.978-58.283l.363 34.36-6.165 1.445-9.973-15.574-2.175-3.532-6.89-10.918-.363-34.36 6.165-1.445 9.972 15.574 1.995 3.372 7.071 11.078zm0 0l-5.077 1.124m0 0v6.102l-9.066 6.583-5.802-9.152v-6.102l.907-.642 8.159-5.94 5.802 9.151zm0 11.24l.363 16.055-7.072-11.239 6.709-4.816zm-8.159-23.924l-6.89 4.978-.182-16.056 7.072 11.078zm-32.819-52.663l6.89 10.918 2.176 3.532 9.972 15.574 6.165-1.445-.362-34.36-6.89-10.917-2.176-3.372-9.973-15.574-6.164 1.445.362 34.199zm20.126 22.639l-7.071-11.24 6.89-4.977.181 16.217zm-.362-27.295v6.1l-.182.161-8.884 6.423-5.802-9.152V47.08l.725-.481 8.341-5.94 5.802 8.99zm-8.16-12.685l-6.89 4.978-.181-16.056 7.071 11.078zm-10.334 237.789l-3.264-2.89-14.143-12.845-5.621 2.89 10.517 33.075 9.791 8.831 3.264 2.89 14.142 12.845 5.621-2.89-10.516-33.076-9.791-8.83zm-16.138-8.349l9.973 9.151-5.077 6.423-4.896-15.574zm16.5 33.717l-8.34-7.546-1.814-5.941 6.891-8.349 8.34 7.546 1.813 5.941-6.89 8.349zm3.264 2.89l5.077-6.262 4.895 15.574-9.972-9.312zm-39.165-79.798l4.533-2.248-10.516-9.473-2.539-2.408-14.142-12.684-5.621 2.89 10.516 33.075 9.791 8.831 3.264 2.89 14.143 12.684 5.621-2.89-10.517-33.075-4.533 2.408zm0 0l1.814 5.941v.16l-6.709 8.35-8.341-7.547-1.813-5.94 6.89-8.35 8.159 7.386zm3.445 10.758l4.896 15.574-10.154-9.152 5.258-6.422zM389.744 219.2l-4.895-15.574 9.972 9.152-5.077 6.422zm-41.884-49.613l9.791 8.831 3.264 2.89 14.142 12.684 5.621-2.89-10.335-33.075-9.791-8.831-3.082-2.89-14.143-12.684-5.621 2.89 10.154 33.075zm15.956 8.028l5.077-6.262 4.895 15.575-9.972-9.313zm-6.528-24.565l8.341 7.546 1.813 5.941-6.89 8.349-8.341-7.547-1.813-5.94 6.89-8.349zm-3.263-2.89l-5.077 6.422-4.896-15.574 9.973 9.152zm-37.17-34.36l3.263 2.89 14.143 12.845 5.621-2.89-10.698-33.076-9.972-8.99-3.083-2.891-14.142-12.684-5.621 2.89 10.516 33.075 9.973 8.831zm11.241-7.225l4.896 15.574-9.973-9.152 4.896-5.941.181-.481zm-11.785-18.304l8.34 7.546 1.813 5.941-6.89 8.349-8.34-7.546-1.813-5.94 6.89-8.35zm-3.083-2.73l-4.895 6.102-.182.16-4.895-15.574 9.972 9.313zm55.483 229.761l-17.406-8.991-4.533 4.014 19.764 29.542 12.148 6.423 3.989 2.087 17.406 9.152 4.533-4.014-19.763-29.543-12.149-6.262-3.989-2.408zm-4.895 11.721l-9.247-13.808 12.329 6.583-3.082 7.225zm23.208 10.918l.544-1.285 9.248 13.969-12.33-6.583 2.538-6.101zm-6.527 4.014l-10.335-5.299-3.445-5.298.181-.321 3.989-9.313 10.335 5.299 3.445 5.298-4.17 9.634zm-53.489-69.362l19.764 29.543-4.533 4.014-17.407-9.152-3.989-2.087-12.148-6.262-19.763-29.543 4.533-4.014 17.406 9.152 3.626 1.927 12.511 6.422zm0 0l-3.626 3.211m0 0l3.445 5.299-4.17 9.633-10.335-5.298-3.445-5.299 4.17-9.633 10.335 5.298zm6.165 10.116l.181-.482 9.247 13.969-12.329-6.583 2.901-6.904zm-23.572-10.276v.16l-9.247-13.968 12.33 6.583-3.083 7.225zm-42.972-31.791l3.808 2.087 17.407 9.152 4.532-4.014-19.763-29.543-12.33-6.422-3.626-1.927-17.407-9.152-4.532 4.014 19.763 29.543 12.148 6.262zm8.885-9.473l9.247 13.808-12.329-6.583 3.082-7.225zm-16.681-15.093l10.335 5.299 3.445 5.298-4.17 9.634-10.336-5.299-3.445-5.298.363-.642 3.808-8.992zm-6.709 4.657l-.363.642-9.247-13.969 12.33 6.583-2.72 6.744zm-55.302-37.571l12.148 6.422 3.989 2.087 17.407 9.152 4.533-4.014-19.945-29.703-12.148-6.423-3.989-2.087-17.407-9.152-4.533 4.014 19.945 29.704zm30.099 10.597l-12.33-6.583 3.083-7.386 9.247 13.969zm-25.929-28.74l10.335 5.298 3.446 5.298-4.171 9.634-10.335-5.298-3.445-5.299 4.17-9.633zm-16.318-8.671l12.329 6.583-3.082 7.225-9.247-13.808zm133.268 215.953l-19.401-4.817-3.263 4.977 27.741 24.084 2.539-4.014-4.896-4.335 1.088-10.276 11.423 2.73 4.895 4.335-1.087 10.276-11.423-2.89-2.539 4.014 13.599 3.371 4.17 1.124 19.401 4.817 3.264-4.977-27.742-24.084-13.598-3.372-4.171-.963zm-1.45 12.202l-13.055-11.239 13.961 3.532-.906 7.707zm25.747 4.496v-.482l13.055 11.239-13.962-3.532.907-7.225zm-95.192-52.985l-19.401-4.817-3.264 4.978 27.742 24.084 13.599 3.371 4.351 1.124 19.401 4.817 3.264-4.977-27.742-24.084-13.78-3.372-4.17-1.124zm-1.269 12.363l-13.055-11.239 13.961 3.532-.906 7.707zm25.747 4.175l13.055 11.078-13.962-3.532.907-7.546zm-4.17-3.854l-1.088 10.276-11.423-2.729-4.896-4.335.181-1.445 1.088-8.831 11.423 2.729 4.715 4.335zm-91.022-48.81l-19.401-4.816-3.263 4.977 27.741 24.084 13.599 3.372 4.17 1.124 19.401 4.816 3.264-4.977-27.742-24.084-13.961-3.372-3.808-1.124zm-1.269 11.882v.481l-13.055-11.239 13.962 3.533-.907 7.225zm25.566 4.335l13.055 11.239-13.962-3.532.907-7.707zm-3.989-3.532l-1.269 10.275-11.423-2.729-4.896-4.335 1.269-10.276 11.423 2.73 4.896 4.335zm-86.126-24.727l13.599 3.372 4.352 1.124 19.401 4.817 3.263-4.977-27.741-24.084-13.78-3.372-4.171-1.124-19.4-4.817-3.264 4.978 27.741 24.083zm19.401-7.867l13.055 11.239-13.961-3.532.906-7.707zm-25.747-4.014l-13.055-11.239 13.962 3.532-.907 7.707zm3.989 3.532v-.481l1.088-9.794 11.423 2.729 4.896 4.335-1.088 10.276-11.423-2.73-4.896-4.335zm152.851 168.588l33.725 16.858 14.143.161h4.533l20.126.16 1.632-5.459-33.725-16.858-14.143-.161h-4.533l-20.126-.16-1.632 5.459zm65.999 12.684l-14.505-.161-1.451-7.386v-.321l15.956 7.868zm-26.835-13.487l5.984 3.05 1.813 10.276h-11.967l-5.983-3.05-1.814-10.116 11.967-.16zm-16.318 0l1.45 7.546v.161l-15.956-7.868 14.506.161zM178.51 434.51l33.725 16.859 14.142.161h4.533l20.126.16 1.632-5.459-33.725-16.859-1.269 4.496 5.984 3.051 1.813 10.115h-11.967l-5.984-3.051-1.813-10.276h11.967l1.269-4.495-14.686-.161h-3.989l-20.127-.16-1.631 5.619zm65.999 12.684l-14.505-.16-1.451-7.546v-.161l15.956 7.867zm-43.335-13.487l1.451 7.226v.481l-15.956-7.867 14.505.16zM99.636 415.885l-.18-.16.18.16zm.001 0l33.725 16.859 14.505.161h4.17l20.127.16 1.631-5.459-33.725-16.859-14.142-.16h-4.533l-20.126-.161-1.632 5.459zm65.999 12.684l-14.505-.16-1.451-7.707 15.956 7.867zm-27.016-13.486l5.983 3.05v.161l1.814 9.954H134.45l-5.984-3.05-1.813-10.115h11.967zm-16.5 0l1.451 7.546v.16l-15.956-7.867 14.505.161zm-67.813-1.124l14.143.16h4.533l20.126.161 1.632-5.459-33.725-16.859-14.143-.161h-4.351l-20.127-.16-1.631 5.459 33.543 16.859zm32.275-4.175l-14.505-.16-1.451-7.707 15.956 7.867zm-57.84-13.647l14.505.16 1.45 7.707-15.955-7.867zm19.038.16h11.967l5.983 3.051.182.642 1.813 9.634H55.758l-5.984-3.051-1.994-10.276zm236.438 146.43l-37.533-8.509v-5.62l19.582-4.496 4.352-.963 13.599-3.051 37.532 8.51v5.62l-19.582 4.495-4.351.964-13.599 3.05zm0 0v-4.495m0 0l-6.709-1.606-4.714-9.473 11.423-2.73 6.708 1.606v.161l4.715 9.312-11.423 2.73zm-30.099-6.905l13.961-3.05 3.446 6.904.181.321-17.588-4.175zm45.873 3.212l-3.626-7.065 17.588 4.014-13.962 3.051zm-135.263-.321l37.533 8.509 13.599-3.05 4.352-.964 19.582-4.495v-5.62l-37.533-8.51-13.961 3.212-3.989.802-19.583 4.496v5.62zm67.632-2.891l-13.962 3.051-3.626-7.065 17.588 4.014zm-29.918-6.743l6.709 1.445.182.482 4.532 8.83-11.423 2.73-6.708-1.606-4.715-9.473 11.423-2.408zm-15.955 3.693l3.626 7.064-17.588-4.014 13.962-3.05zm-103.532 5.941l37.532 8.509 13.599-3.05 4.352-.964 19.582-4.495v-5.62l-37.351-8.67-13.781 3.211-4.17.963-19.582 4.496v5.62h-.181zm67.631-2.891l-13.962 3.051-3.626-7.065 17.588 4.014zm-29.917-6.743l6.708 1.606 4.715 9.312-11.423 2.73-6.709-1.606-.725-1.285-4.171-8.188 11.605-2.569zm-15.956 3.693l3.445 6.583.362.481-17.588-4.014 13.781-3.05zm-65.819-8.189l37.533 8.51v5.62l-19.582 4.495-4.352.964-13.599 3.05-37.714-8.349v-5.619l19.582-4.496 4.17-.963 13.962-3.212zm0 0v4.496m0 0l6.709 1.606 4.714 9.473-11.423 2.729-6.709-1.605v-.161l-4.714-9.313 11.423-2.729zm29.917 6.743l-13.96 3.051-3.627-7.065 17.587 4.014zm-59.834 0l13.961-3.05 3.627 7.064-17.588-4.014zm557.732-143.7l-1.994-3.211-9.973-15.575h-.181l-6.165 1.445.363 34.36 6.89 10.918 2.175 3.533 9.973 15.574h.181l6.165-1.445-.363-34.36-7.071-11.239zm-6.346-.161l-6.528 4.817-.181-15.574 6.709 10.757zm-6.346 16.217v-6.101l1.269-.964 7.434-5.459 5.802 8.992v6.101l-8.884 6.422-5.621-8.991zm8.159 12.523l6.346-4.656.182-.16.181 15.574-6.709-10.758zm-25.928-6.422l-9.973-8.991-3.082-2.89-14.143-12.845-5.621 2.89 10.517 33.075 9.791 8.831 3.263 2.89 4.171 3.853v.161l9.61 8.67h.181l5.621-2.89-10.335-32.754zm-21.215-1.766l-4.895-15.574 9.972 9.152-5.077 6.422zm11.786 18.304l-8.341-7.547-1.813-5.94 6.89-8.349 7.797 7.064v.161l.363.321 1.813 5.941-.363.481-1.813 2.088v.321l-4.533 5.459zm3.083 2.89l4.895-6.102v-.16l4.714 14.932-9.609-8.67zm-7.072 29.222l-19.764-29.543-12.329-6.423-3.626-1.926-17.407-9.152-4.533 4.014 19.764 29.543 12.148 6.422 3.989 2.087 17.406 9.152 4.352-4.174zm-40.796-26.493l-9.248-13.808 12.33 6.583-3.082 7.225zm16.681 15.093l-10.335-5.299-3.445-5.298 4.17-9.634 10.335 5.299 3.445 5.298-4.17 9.634zm3.989 2.087l3.082-7.386 9.247 13.969-12.329-6.583zm-26.11 5.78l-13.78-3.371-4.17-.964-19.401-4.817-3.264 4.978 27.742 24.084 13.599 3.371 4.351 1.124 19.401 4.817 3.264-4.977-27.742-24.245zm-19.401 7.868L444.14 451.53l13.961 3.532-.907 7.707zm21.577 1.284l-1.088 9.473-11.423-2.729-4.895-4.335 1.088-10.276 11.423 2.729 4.895 4.335v.803zm3.445 10.436l.907-7.706 13.055 11.239-13.962-3.533zm-23.571 11.721l-14.324-.16h-4.352l-20.126-.161-1.632 5.459 33.725 16.859 14.143.16h4.533l20.126.161 1.632-5.459-33.725-16.859zm0 0l-1.27 4.496 5.984 3.051 1.813 10.115h-11.967l-5.983-3.051-.182-.963-1.631-9.313h11.966l1.27-4.335zm-32.275 4.175l14.506.16 1.45 7.707-15.956-7.867zm57.84 13.647l-14.505-.16-1.45-7.546v-.161l15.955 7.867zm-20.126 36.126l4.352-.963 19.582-4.496v-5.619l-37.532-8.51-13.781 3.211-4.17.964-19.582 4.495v5.62l37.533 8.509 13.598-3.211zm16.319-8.349l-13.962 3.051-3.626-7.065 17.588 4.014zm-59.835 0l13.962-3.05 3.626 7.064-17.588-4.014zm18.313-4.014l11.423-2.729 6.709 1.445.725 1.445 3.989 8.028-11.423 2.729-6.708-1.605-4.715-9.313zM550.21 328.22l-7.071-10.918-2.176-3.532-9.973-15.575-6.164 1.445.362 34.36 5.802 9.152v.321l.726 1.285 2.176 3.532 9.972 15.574h.181l6.165-1.445V328.22zm-20.126-6.583l-.181-16.056 1.269 1.927v.481l5.621 8.831-5.621 4.014v.161l-1.088.642zm.181 11.239v-6.101l.907-.642 7.978-5.78 5.802 8.991v6.101l-8.885 6.422-5.802-8.991zm8.159 12.684l6.528-4.816.181 15.574-6.709-10.758zm-45.692.803l-9.791-8.831-3.264-2.89-14.142-12.684-5.621 2.89 10.516 33.075 9.791 8.831 3.264 2.89 14.143 12.684 5.621-2.89-10.517-33.075zm-16.137-8.188l-5.077 6.422-4.895-15.574 9.972 9.152zm6.709 24.726l-8.341-7.547-1.813-5.94 1.632-1.927 5.258-6.422 8.341 7.546 1.813 5.941-.182.321-6.708 8.028zm13.236 12.042l-9.973-9.152 5.077-6.423 4.896 15.575zm-66-4.335l-3.989-2.088-17.406-9.152-4.533 4.014 19.764 29.543 12.148 6.262 3.989 2.087 17.406 9.152 4.533-4.014-19.763-29.543-12.149-6.261zm-8.884 9.151l-.181.322-9.248-13.809 12.33 6.583-2.901 6.904zm16.681 15.414l-10.335-5.298-3.445-5.299 4.17-9.633 10.335 5.298 3.627 5.299-4.352 9.633zm6.89-4.977l.181-.321 9.248 13.808-12.33-6.583 2.901-6.904zm-42.247 27.937l-13.599-3.372-4.351-1.123-19.401-4.817-3.264 4.977 27.742 24.084 13.599 3.372 4.351 1.124 19.401 4.816 3.264-4.977-27.742-24.084zm-19.219 7.868l-13.055-11.24 13.961 3.533-.906 7.707zm25.565 4.335v-.321l13.055 11.239-13.961-3.533.906-7.385zm-5.076 6.261l-11.423-2.729-4.896-4.335 1.088-10.276 11.423 2.73 4.895 4.335-1.087 10.275zm-19.945 52.343h4.533l20.126.16 1.632-5.459-33.725-16.858-14.143-.161h-4.533l-20.126-.16-1.632 5.459 33.725 16.858 14.143.161zm18.131-4.175l-14.505-.16-1.45-7.707 15.955 7.867zm-57.84-13.647l14.506.16 1.45 7.707-15.956-7.867zm20.852 10.276l-.182-.803-1.813-9.473h11.967l5.984 3.05v.161l1.813 9.955H371.25l-5.802-2.89zm-37.17 52.824l37.532 8.509 13.599-3.05 4.352-.964 19.582-4.495v-5.62l-37.533-8.51-13.599 3.051-4.351.963-19.582 4.496v5.62zm67.45-2.891l-13.962 3.051-3.626-7.065 17.588 4.014zm-29.918-6.743l6.709 1.606 4.714 9.473-11.423 2.729-6.708-1.605-1.27-2.409-3.626-6.904 11.604-2.89zm-15.774 3.693l3.445 6.743.181.482-17.588-4.014 13.962-3.211zm212.141 277.768l-4.352 9.633-9.791-5.298-.907-6.102 4.352-9.633 9.791 5.298.907 6.102zm0 0h.181m-6.165-34.2h-.181l-7.434 16.699-1.632 3.692-5.077 11.561 5.077 34.038 6.346.642h.181l7.434-16.698 1.632-3.693 5.077-11.56-5.077-34.038-6.346-.643zm1.995 7.547l2.176 15.413-7.253-3.853 5.077-11.56zm-7.253 51.7l-2.176-15.414h.182l7.071 3.853-5.077 11.561zm1.632 13.326l-6.346-.642h-.181l-7.434 16.698-1.632 3.693-5.077 11.56 5.077 34.039 6.346.642h.181l7.434-16.698 1.451-3.051 5.439-12.202-5.258-34.039zm-4.351 6.744l2.175 15.413-.181-.16-7.071-3.854 5.077-11.399zm-7.072 51.7l-2.176-15.414 7.253 3.853-5.077 11.561zm6.709-15.253l-8.341-4.496-1.45-.803-.907-6.101 4.352-9.634 9.791 5.299.907 6.101-4.352 9.634zm-5.258 28.579l-6.346-.642h-.182l-4.714 10.757v.643l-2.357 5.298-1.632 3.693-5.077 11.56 5.077 34.039 4.17.481 1.995.161h.181l7.434-16.698 1.632-3.693 5.077-11.56-5.258-34.039zm-4.352 6.904l2.176 15.414-7.253-3.854 5.077-11.56zm-7.071 51.54v.642l-2.357-16.056 2.357 1.284v.161l4.895 2.73-4.895 11.239zm6.708-15.253l-9.791-5.299-.906-6.101 4.351-9.634 9.066 4.817.725.482.907 6.101-4.352 9.634zm-.181 62.781h-.181.181zm-5.077-34.041l-6.346-.642-7.434 16.693-1.632 3.7-5.077 11.56 5.077 34.04 6.346.64 7.434-16.7 1.632-3.53 5.258-11.72-5.258-34.041zm-4.17 6.422l2.357 16.059-.181-.16-7.253-4.02 5.077-11.879zm-7.253 52.499l-2.357-16.05 7.615 4.01-5.258 12.04zm9.973-23.12v.65l-3.083 6.9-9.791-5.3h-.181l-.907-6.1 4.352-9.79 9.61 5.13v.16h.181l.907 6.11-1.088 2.24zm-66-241.317l8.522-9.955 2.72-3.211 12.148-14.29 5.984 2.248-5.621 34.039-8.522 9.954-2.72 3.212-12.148 14.289-5.983-2.248 5.62-34.038zm0 0l4.715 1.766m0 0l7.252-8.349 7.253 6.904.725.642-.906 6.102-7.253 8.349-7.978-7.547.907-6.101zm9.972-11.56l8.703-10.276-2.538 15.895-6.165-5.619zm-14.324 38.695l2.538-16.056.182.16 5.802 5.62-8.522 10.276zm-16.863 56.998l8.704-10.276 5.62-34.038-5.983-2.248-12.148 14.29-2.72 3.211-8.522 9.955-5.621 34.038 5.984 2.248 12.148-14.29 2.538-2.89zm8.341-39.176l-2.538 16.056-5.984-5.781 8.522-10.275zm-22.846 48.97l2.538-15.895.363.321 5.621 5.298-8.522 10.276zm3.445-21.033l.907-6.101 7.252-8.349 7.434 7.064.544.482-.906 6.101-7.253 8.349-7.978-7.546zm-24.115 45.92l-2.72 3.211-8.522 9.955-5.439 34.038 5.983 2.248 12.148-14.29 2.72-3.211 8.522-9.955 5.621-34.038-5.984-2.248-12.329 14.29zm12.148-6.904l-2.538 15.895-5.984-5.619 8.522-10.276zm-23.027 48.81l2.538-16.056 5.984 5.78-8.522 10.276zm11.423-13.487l-7.616-7.225-.362-.321.906-6.102 7.253-8.349 7.797 7.386.181.161-.906 6.101-7.253 8.349zm-32.094 38.374l-2.719 3.211-8.522 9.955-5.621 34.038 5.983 2.25 12.149-14.29 2.357-2.89 8.703-10.278 5.621-34.038-5.984-2.248-11.967 14.29zm-10.697 41.904l2.538-16.054 5.984 5.784-8.522 10.27zm11.423-13.325l-7.978-7.385v-.161l.906-6.101 7.253-8.349 7.978 7.546-.907 6.101-7.252 8.349zm8.884-19.588l-5.983-5.62 8.703-10.275-2.72 15.895zm17.588-225.746l2.539-5.62-5.802-8.831-9.248 6.583-2.538 5.62 5.802 8.991 9.247-6.743zm0 0l.907.642m-7.797 9.954l10.879-8.028 14.324-31.951-5.258-3.372-15.593 11.4-3.445 2.569-10.879 7.868-14.324 31.951 5.258 3.372 15.593-11.4 3.445-2.409zm7.072-27.776l11.06-8.189-6.709 14.932-4.351-6.743zm-24.116 34.68l6.709-14.932.181.161 4.171 6.583-11.061 8.188zm-34.45 54.269l3.082-2.247 11.242-8.349 14.324-31.952-5.258-3.372-15.593 11.4-3.445 2.569-10.879 7.868-14.325 31.951 5.259 3.372 15.593-11.24zm21.577-38.694l-6.709 14.932-.363-.643-3.989-6.101 11.061-8.188zm-23.753 17.501l9.247-6.583 5.802 8.991-2.538 5.62-9.247 6.743-5.802-8.991 2.538-5.78zm-4.714 10.436l4.351 6.743-11.06 8.189 6.709-14.932zm-47.687 45.278l10.879-7.868 3.445-2.569 15.594-11.399 5.258 3.371-14.324 31.952-10.879 8.028-3.445 2.569-15.593 11.239-5.259-3.372 14.324-31.951zm0 0l4.171 2.729m0 0l9.247-6.743 5.802 8.991-2.538 5.62-9.248 6.743-5.439-8.349-.363-.642 2.539-5.62zm12.692-9.152l11.06-8.188-6.708 14.932v-.161l-4.352-6.583zm-24.115 34.681l6.708-14.932 4.352 6.744-11.06 8.188zm-20.127 43.833l-11.06 8.028-3.264 2.408-15.593 11.4-5.258-3.372 14.324-31.951 10.879-7.867 3.626-2.569 15.412-11.4 5.258 3.372-14.324 31.951zm0 0l-4.17-2.73m0 0l-9.247 6.744-5.802-8.991 2.538-5.62m12.511 7.867l2.539-5.619-5.803-8.991-9.247 6.743m0 0l-1.45-.963m1.269 17.982l-11.06 8.189 6.708-14.932 4.352 6.743zm17.406-19.588l-.181-.321-4.17-6.422 11.06-8.189-6.709 14.932zm71.802-208.567l12.874-4.816 24.115-26.974-3.808-4.496-18.675 6.904-4.171 1.606-12.873 4.816-24.115 26.974 3.807 4.496 18.676-6.904 4.17-1.606zm29.011-30.024l-11.242 12.684v-.161l-1.994-7.546 13.236-4.977zm-47.686 32.112l11.241-12.684 1.995 7.546-13.236 5.138zm19.219-21.515l10.879-4.014 2.539 10.115-4.352 4.817-10.879 4.014-2.538-10.115 4.351-4.817zm-66.362 63.421l13.599-5.138 24.115-26.974-3.808-4.496-18.675 6.904-4.171 1.606-12.873 4.817-24.115 26.974 3.807 4.495 18.495-6.904 3.626-1.284zm29.736-30.185l-11.242 12.684-1.994-7.707 13.236-4.977zm-47.687 31.951l11.242-12.684v.321l1.813 7.225-13.055 5.138zm19.22-21.355l11.06-4.014 2.539 9.795v.321l-4.352 4.816-11.06 4.014-2.538-10.115 4.351-4.817zm-68.356 40.14l13.055-4.816 4.17-1.606 18.676-6.904 3.807 4.496-24.478 26.973-13.054 4.817-3.989 1.606-18.495 6.904-3.807-4.496 24.115-26.974zm0 0l3.082 3.693m0 0l11.061-4.014 2.357 8.831.362 1.284-4.351 4.817-11.061 4.014-2.719-10.115 4.351-4.817zm-19.038 21.355l11.242-12.685 1.994 7.547-13.236 5.138zm34.45-26.974l13.236-4.978-11.241 12.684-1.995-7.706zm-47.686 32.433l-18.676 6.904-4.17 1.605-12.874 4.817-24.115 26.974 3.808 4.496 18.675-6.904 3.989-1.445 13.236-4.978 24.116-26.974-3.989-4.495zm-51.857 38.373l11.242-12.684 1.994 7.707-13.236 4.977zm28.467-10.597l-10.879 4.014-2.357-9.312-.182-.803 4.352-4.817 11.06-4.014 2.357 9.152.182.964-4.533 4.816zm7.978-8.83l-1.995-7.707 13.236-4.978-11.241 12.685zm126.74-171.799l13.962-1.605 31.186-20.392-2.357-5.298-19.945 2.408-4.533.482-13.961 1.606 1.994 4.174 11.786-1.284-.363 9.633v.643l-5.62 3.692-11.786 1.285.363-9.955v-.481l5.62-3.693-1.994-4.175-31.187 20.552 2.357 5.298 19.945-2.408 4.533-.482zm22.665-20.391l14.324-1.766-14.687 9.633.363-7.867zm-41.159 17.983l14.687-9.634-.363 7.868-14.324 1.766zm-58.384 29.543l15.049-1.766 31.187-20.392-2.358-5.298-19.944 2.408-4.533.482-13.962 1.606-31.186 20.391 2.357 5.298 19.945-2.408 3.445-.321zm23.752-20.552l14.324-1.766-14.686 9.633.362-7.867zm-21.939 5.459l5.621-3.693 11.785-1.284-.362 9.794v.482l-5.621 3.692-11.786 1.285.363-10.276zm-19.22 12.684l14.687-9.633v.16l-.363 7.547-14.324 1.926zm-12.148 7.386l-2.357-5.298-19.945 2.408-4.533.482-13.961 1.605-31.187 20.391 2.357 5.299 19.945-2.409 4.171-.481 14.142-1.606 31.368-20.391zm-22.846 8.991l.363-7.385 14.324-1.767-14.687 9.634v-.482zm-26.472 8.992l-14.324 1.766 14.687-9.634-.363 7.868zm4.352-.643l.362-9.954v-.482l5.621-3.693 11.786-1.284-.544 10.275-5.621 3.693-11.604 1.445zM36.175 730.742l2.358 5.299 19.945-2.409 4.351-.481 14.143-1.606-1.995-4.175-11.785 1.285.544-10.276 5.62-3.693-1.994-4.335-31.186 20.391zm22.847-9.152l-.363 7.547-14.324 1.766 14.687-9.634v.321z" stroke="#102237" stroke-opacity=".05" stroke-width=".5" stroke-miterlimit="10"/><path d="M74.977 727.37l1.995 4.336 31.186-20.392-2.357-5.298-19.945 2.408-4.532.482-13.962 1.606 1.995 4.174 11.785-1.284-.544 10.276-5.62 3.692zm10.335-6.743l.363-7.867L100 710.993l-14.686 9.634zm183.675-146.912L282.948 575l35.72-13.487-.907-5.62-20.126-1.766-4.533-.321-13.961-1.285.725 4.496 11.786 1.124-3.083 9.955-6.346 2.408-11.786-1.124 3.083-9.634.181-.321 6.346-2.408-.725-4.496-35.719 13.487.906 5.62 20.126 1.766 4.352.321zm25.022-7.867l2.357-7.225 14.324 1.284-16.681 6.262v-.321zm-42.429 1.926l16.682-6.261-2.357 7.546-14.325-1.285zm-49.137 17.983l-15.049-1.445-3.626-.321-20.126-1.766-.726-5.62 35.72-13.326 13.961 1.284 4.533.321 20.126 1.767.907 5.619-35.72 13.487zm0 0l-.725-4.496m0 0l-11.785-1.123 3.082-9.955 6.346-2.409 11.786 1.124-3.083 9.955-6.346 2.408zm11.423-4.656l2.357-7.225 14.324 1.284-16.681 6.262v-.321zm-25.566-4.335l-.181.321-2.357 7.225-14.324-1.284 16.862-6.262zM102.9 594.909l3.989.321 14.506 1.285 35.719-13.327-.906-5.619-20.127-1.767-4.533-.321-13.961-1.284-35.72 13.326.907 5.62 20.126 1.766zm29.374-7.386l2.357-7.385 14.324 1.284-16.681 6.101zm-20.308-6.422l6.346-2.409 11.786 1.124-3.083 9.955-6.346 2.409-11.785-1.124 3.082-9.955zm-5.258 1.927l-2.357 7.546-14.324-1.285 16.681-6.261zm-84.675 22.638l4.351.322 14.143 1.284 35.72-13.487-.907-5.62-20.126-1.766-4.533-.321-13.962-1.284L1 598.281l.907 5.619 20.126 1.766zm29.373-7.225l2.357-7.546 14.324 1.284-16.68 6.262zM31.1 591.858l6.346-2.408 11.785 1.124-2.9 9.312-.182.642-6.346 2.409-11.786-1.124 3.083-9.955zm-22.121 8.189l16.862-6.262v.161l-2.357 7.385-14.505-1.284zm508.594 215.149l2.176-3.532 6.89-10.918.362-34.36-6.164-1.445-9.973 15.574-2.176 3.533-6.89 10.918-.362 34.36 6.164 1.445 9.973-15.575zm4.533-42.869l-.182 16.056-.362-.161-6.528-4.656 7.072-11.239zm-15.594 51.218l.182-16.216 6.89 4.977-7.072 11.239zm.726-21.033l-.363-.321v-6.101l5.802-9.152 9.066 6.583v6.101l-5.802 9.152-8.703-6.262zm-17.225 48.007l-2.357 3.533-6.891 10.918-.362 34.359 6.165 1.446 9.972-15.575 1.813-3.05 7.253-11.4.363-34.36-6.165-1.445-9.791 15.574zm-4.533 42.87l.181-16.217 6.89 4.978-7.071 11.239zm15.23-23.763l-5.802 9.152-8.703-6.262-.363-.161v-6.101l5.803-9.152 9.065 6.583v5.941zm0-11.239l-.362-.161-6.528-4.816 7.072-11.24-.182 16.217zm-31.911 61.976l-2.176 3.532-6.89 10.918-.363 34.36 6.165 1.445 9.972-15.574 2.176-3.372 7.072-10.918.362-34.36-6.165-1.445-10.153 15.414zm-4.533 42.869l.181-16.056.363.161 6.527 4.817-7.071 11.078zm15.23-23.763l-5.802 9.152-9.066-6.583v-6.101l5.802-9.152 8.704 6.262.362.16v6.262zm0-11.239l-6.89-4.977 7.072-11.239-.182 16.216zm-31.912 62.137l-2.176 3.532-6.89 10.921-.362 34.36 6.165 1.44 9.972-15.57 2.176-3.53 6.89-10.92.362-34.363-6.164-1.445-9.973 15.575zm-4.351 42.873l.181-16.22 6.89 4.98-7.071 11.24zm15.049-23.77l-5.802 9.16-8.159-5.95-.907-.64v-6.1l5.802-9.151 7.978 5.781 1.088.8v6.1zm.181-11.236l-6.89-4.977 7.072-11.239-.182 16.216zm-18.675-213.865l9.972-8.991 10.517-33.076-5.621-2.89-14.143 12.845-3.264 2.89-9.791 8.831-10.516 33.075 5.621 2.89 14.142-12.684 3.083-2.89zm13.599-37.571l-4.896 15.574-5.077-6.422 9.973-9.152zm-13.236 12.042l6.346 7.867.362.482-1.813 5.941-8.341 7.546-6.708-8.188-.182-.161 1.814-5.941 8.522-7.546zm-16.682 33.878l4.896-15.574 5.077 6.422-9.973 9.152zm-14.686 45.438l10.516-33.075-5.621-2.89-14.143 12.845-3.263 2.89-9.791 8.831-10.517 33.075 5.621 2.89 14.143-12.845 2.719-2.408 10.336-9.313zm0 0l-4.533-2.247-8.341 7.546-6.527-8.028-.363-.482 1.813-5.94 8.341-7.547 6.527 8.028.363.321-1.813 5.941 4.533 2.408zm-16.138 8.028l-9.972 9.152 4.895-15.574 5.077 6.422zm9.973-27.455l9.972-9.152-4.895 15.574-5.077-6.422zm-34.813 82.045l10.516-33.075-5.621-2.89-14.142 12.845-3.264 2.89-9.791 8.831-10.517 33.075 5.621 2.89 14.143-12.845 3.082-2.729 9.973-8.992zm3.807-28.579l-4.895 15.574-.181-.16-5.077-6.262 10.153-9.152zm-29.917 45.92l4.896-15.574.181.16 5.077 6.101-10.154 9.313zm13.236-12.042l-6.89-8.349 1.813-5.941 8.341-7.546 6.89 8.349-1.813 5.941-8.341 7.546zm-37.17 34.36l-3.264 2.89-9.791 8.831-10.516 33.075 5.621 2.89 14.143-12.845 3.082-2.89 9.972-8.991 10.517-33.075-5.621-2.891-14.143 13.006zm-16.862 40.3l4.895-15.574 5.077 6.422-9.972 9.152zm23.39-18.625l-1.814-.803-8.34 7.547-6.165-7.707-.544-.803 1.813-5.941 8.341-7.546 6.89 8.349-1.813 5.941 1.632.963zm1.631-11.721l-.181-.321-4.895-6.101 9.972-9.152-4.896 15.574zm44.423-210.814l12.149-6.262 19.763-29.543-4.533-4.014-17.406 9.152-3.989 2.087-12.148 6.423-19.764 29.543 4.533 4.014 17.406-9.152 3.989-2.248zm24.116-33.075l-9.248 13.968-.181-.481-2.901-6.744 12.33-6.743zm-42.247 37.571l9.247-13.969 3.082 7.386-12.329 6.583zm12.329-18.144v-.16l3.445-5.299 10.335-5.298 4.171 9.633-3.627 5.299-10.335 5.298-3.989-9.473zm-52.401 65.027l12.511-6.583 19.764-29.543-4.533-4.014-17.407 9.152-3.989 2.087-12.148 6.423-19.764 29.543 4.533 4.013 17.407-9.151 3.626-1.927zm24.659-33.236l-9.247 13.808-3.082-7.225 12.329-6.583zm-42.428 37.41l9.247-13.808.182.482 2.901 6.904-12.33 6.422zm12.33-18.303l3.445-5.299 10.335-5.298 3.989 9.312.181.321-3.445 5.299-10.335 5.298-4.17-9.633zm-55.846 67.274l3.808-2.087 12.148-6.423 19.764-29.543-4.533-4.014-17.407 9.152-3.807 1.927-12.33 6.422-19.764 29.543 4.533 4.014 17.588-8.991zm28.104-35.162l-9.247 13.808-3.082-7.226 12.329-6.582zm-42.428 37.41l9.247-13.969v.161l3.083 7.064-12.33 6.744zm12.33-18.304l3.445-5.298 10.335-5.299 4.17 9.634-3.445 5.298-10.335 5.299-4.17-9.634zm-24.659 25.208l-17.407 9.152-3.989 2.087-12.148 6.423-19.763 29.543 4.532 4.013 17.407-9.151 3.808-2.088 12.148-6.422 19.763-29.543-4.351-4.014zm-36.082 30.346l3.082 7.385-12.33 6.583 9.248-13.968zm7.071 5.298l-4.17-9.633 3.445-5.299 10.335-5.298 3.989 9.312.181.321-3.445 5.299-10.335 5.298zm16.681-14.932l-3.082-7.386 12.329-6.582-9.247 13.968zm104.62-193.474l13.599-3.372 27.741-24.084-3.263-4.977-19.401 4.817-4.352 1.124-13.599 3.372-27.741 24.083 3.264 4.978 19.4-4.817 4.352-1.124zm33-26.492l-13.055 11.239v-.321l-.907-7.386 13.962-3.532zm-51.857 26.492l13.055-11.239.907 7.707-13.962 3.532zm22.121-19.106l11.423-2.73 1.088 10.276-4.896 4.335-11.423 2.729-1.269-10.275 5.077-4.335zm-32.819 27.937l-3.264-4.977-19.4 4.816-4.352 1.124-13.599 3.372-27.741 24.084 3.263 4.977 19.401-4.817 3.989-.963 13.78-3.372 27.923-24.244zm-8.34.963l-13.055 11.239-.907-7.706 13.962-3.533zm-51.857 26.492l13.055-11.239v.161l.906 7.546-13.961 3.532zm29.917-7.385l-11.423 2.729-1.088-10.276 4.896-4.335 11.423-2.729 1.088 10.115v.161l-4.896 4.335zm-81.955 43.511l13.599-3.371-2.539-4.014-11.423 2.729-.906-8.509-.182-1.767 4.896-4.335 11.423-2.729 1.269 10.276-4.895 4.335 2.538 4.014 27.742-24.084-3.264-4.978-19.401 4.817-4.17 1.124-13.599 3.372-27.742 24.084 3.264 4.977 19.401-4.817 3.989-1.124zm33.181-26.492l-13.055 11.239v-.481l-.906-7.226 13.961-3.532zm-51.857 26.492l13.055-11.239.907 7.868-13.962 3.371zm-10.697 8.831l-3.264-4.977-19.401 4.817-4.352 1.123-13.599 3.372-27.741 24.084 3.264 4.977 19.4-4.816 4.352-1.124 13.599-3.372 27.742-24.084zm-8.341.963l-13.055 11.24v-.321l-.906-7.386c.181 0 13.961-3.533 13.961-3.533zm-51.675 26.493l13.054-11.239v.321l.907 7.546-13.962 3.372zm18.313-4.656l-1.088-10.276 4.895-4.335 11.423-2.73 1.088 10.276-4.895 4.335-11.423 2.73zm173.52-173.405h4.533l14.143-.16 33.725-16.859-1.632-5.459-20.126.161h-4.533l-14.143.16-33.725 16.859 1.632 5.459 20.126-.161zm28.286-10.436l1.45-7.386 14.506-.16-15.956 7.867v-.321zm-21.214-3.853v-.482l5.983-3.051h11.967l-1.813 10.276-5.984 3.051h-11.785l1.632-9.794zm-20.852 9.954l15.956-7.867-1.45 7.707-14.506.16zm-46.599 22.8l-14.505.16h-4.17l-20.126.161-1.632-5.459 33.725-16.859 14.142-.16h4.533l20.127-.161 1.632 5.459-33.726 16.859zm0 0l-.362-1.124m9.972-8.991l1.451-7.547 14.505-.16-15.956 7.867v-.16zm-21.032-4.175v-.161l5.983-3.05h11.967l-1.813 10.276-5.984 3.05h-11.967l1.814-10.115zm-5.077 2.248l-1.451 7.707-14.505.16 15.956-7.867zm-62.374 30.827l-14.142.161h-4.533l-20.308.16-1.632-5.459 33.725-16.698 1.27 4.496-5.984 3.05v.322l-1.813 9.794h11.967l5.983-3.051 1.813-10.276h-11.966l-1.27-4.495 14.506-.161h4.17l20.308-.161 1.631 5.459-33.725 16.859zm0 0l-.362-1.124m9.972-9.312l1.269-7.225 14.506-.161-15.956 7.868.181-.482zm-26.11-1.606l-1.45 7.707-14.505.161 15.955-7.868zm-81.229 30.988h4.351l14.143-.16 33.725-16.859-1.632-5.459-20.126.16h-4.533l-14.143.161-33.544 16.859 1.632 5.459 20.127-.161zm28.285-10.436l1.45-7.386 14.506-.16-15.956 7.867v-.321zm-21.214-2.89l.181-1.445 5.984-3.051h11.967l-1.813 10.276-5.984 3.051H45.785l1.45-8.831zm-20.67 8.991l15.956-7.867-1.45 7.707-14.506.16zm539.237-38.534h-.181l-9.973 15.574-2.175 3.533-6.89 10.918-.363 34.359 6.165 1.445h.181l9.972-15.574 1.995-3.211 7.071-11.079.363-34.36-6.165-1.605zm-14.324 57.962l.181-15.574 6.528 4.816-6.709 10.758zm14.868-23.442l-5.802 8.991-8.885-6.422v-6.101l5.803-8.991 8.884 6.422v6.101zm.181-11.4l-6.527-4.816 6.709-10.758-.182 15.574zm-36.988-.642l1.632-5.298v-.803l-6.709-8.189-8.341 7.547-1.813 5.94 6.89 8.35 8.341-7.547zm0 0l1.632.803m7.615-34.199h-.181l-7.434 6.743v.321l-6.346 5.781-3.264 2.89-9.791 8.83-10.517 33.076 5.621 2.89 14.143-12.845 2.901-2.73 9.973-8.991 10.516-33.075-5.621-2.89zm-31.005 52.984l4.895-15.574.182.161 5.077 6.101-10.154 9.312zm24.84-30.506l-4.895-6.101 9.61-8.831-4.715 14.932zm-16.5-39.337l-17.406 9.152-3.989 2.087-12.148 6.423-19.764 29.543 4.533 4.014 17.407-9.152 3.626-1.927 12.511-6.583 19.763-29.543-4.533-4.014zm-45.51 44.154l9.247-13.969v.161l3.082 7.225-12.329 6.583zm26.472-13.808l-10.335 5.298-4.17-9.633 3.626-5.299 10.335-5.298 3.808 8.991.181.642-3.445 5.299zm6.528-9.794l-3.083-7.225 12.33-6.583-9.247 13.808zm-29.374-13.166l27.742-24.084-3.264-4.977-19.401 4.816-4.352 1.124-13.598 3.372-27.742 24.084 3.264 4.977 19.401-4.817 4.17-1.123 13.78-3.372zm19.582-23.121l-13.054 11.239-.907-7.706 13.961-3.533zm-51.856 26.653l13.054-11.239.907 7.867-13.961 3.372zm17.043-14.932l4.896-4.335 11.423-2.73 1.269 10.276-4.895 4.335-11.423 2.73-1.27-10.276zm-17.043-19.749l14.505-.16 33.725-16.859-1.632-5.459-20.126.161h-4.533l-14.143.16-33.725 17.019 1.632 5.459 20.126-.16 4.171-.161zm25.565-17.661l14.506-.161-15.956 7.868 1.45-7.707zm-22.483 3.211v-.161l5.983-3.05h11.967l-1.632 8.509-.362 1.606-5.984 3.051h-11.967l1.995-9.955zm-20.852 10.276l15.956-7.868-1.45 7.707-14.506.161zm117.675 126.36l-9.972 15.574-.725 1.124v.482l-1.269 1.927-6.89 10.918-.363 34.359 6.165 1.445 9.972-15.574 2.176-3.532 6.89-10.918.363-34.36-6.165-1.445h-.182zm-10.697 52.663v.322l-3.445 5.459.181-16.056 3.264 2.408v.161l3.264 2.408-3.264 5.298zm5.621-8.991l-5.621-4.014-3.264-2.408v-6.101l5.802-8.992 8.885 6.423v6.101l-5.802 8.991zm6.164-35.965l-.181 15.574-.181-.16-6.346-4.657 6.708-10.757zm-47.686-26.011l-14.143 12.845-3.264 2.89-9.791 8.831-10.516 33.075 5.621 2.89 14.142-12.845 3.264-2.89 9.791-8.831 10.517-33.075-5.621-2.89zm-30.824 53.145l4.895-15.574.182.161 4.895 6.101-9.972 9.312zm13.236-12.042l-6.89-8.349 1.813-5.94 8.341-7.547 6.527 8.028.363.321-1.813 5.941-8.341 7.546zm11.786-18.303l-5.077-6.262 9.972-9.152-4.895 15.414zm-49.137-17.501l19.763-29.543-4.533-4.014-17.406 9.152-3.989 2.087-12.149 6.262-19.763 29.543 4.533 4.014 17.406-9.152 3.989-2.087 12.149-6.262zm11.966-26.814l-9.247 13.808v-.16l-3.082-7.225 12.329-6.423zm-42.246 37.411l9.247-13.808v.16l3.082 7.065-12.329 6.583zm12.148-18.144l3.445-5.298 10.335-5.299 4.17 9.634-3.626 5.299-10.335 5.298-3.989-9.634zm-31.731-49.291l-.725-1.124m.725 1.124l11.423-2.73 1.088 10.276-4.895 4.335-11.423 2.73-1.088-9.634v-.642l4.895-4.335zm-3.263 19.106l13.599-3.371 27.741-24.084-3.264-4.978-19.401 4.817-4.351 1.124-13.599 3.372-27.742 24.084 3.264 4.977 19.401-4.817 4.352-1.124zm32.999-26.492l-13.054 11.239v-.321l-.907-7.386 13.961-3.532zm-51.856 26.492l13.055-11.239.906 7.707-13.961 3.532zm-7.797-52.021l14.143-.161 33.725-16.858-1.632-5.459-20.126.16h-4.533l-14.143.161-33.725 16.859 1.632 5.459 20.126-.161h4.533zm23.753-10.436l1.45-7.386 14.506-.161-15.956 7.868v-.321zm-21.033-4.335l5.983-3.051h11.786l-1.813 10.276-5.984 3.05h-11.967l1.995-10.275zm-20.851 10.436l15.955-7.867v.16l-1.45 7.707h-14.505z" stroke="#102237" stroke-opacity=".05" stroke-width=".5" stroke-miterlimit="10"/></svg>