<svg width="44" height="45" viewBox="0 0 44 45" fill="none" xmlns="http://www.w3.org/2000/svg">
<g id="_&#195;&#171;&#195;&#142;&#195;&#147;&#195;&#136;_1" clip-path="url(#clip0_74_13746)">
<path id="Vector" d="M3.97407 17.5199C4.02901 10.3646 9.10185 4.24971 15.9255 2.03052C22.7491 -0.18866 30.9187 1.59926 35.8615 6.97562C38.528 9.87403 40.0242 13.6188 40.0553 17.5217C40.0608 18.2153 41.1596 18.2171 41.1541 17.5217C41.0955 9.91716 35.748 3.43571 28.516 1.03144C21.284 -1.37282 12.4294 0.585807 7.23205 6.38803C4.46671 9.47692 2.9064 13.4068 2.87526 17.5217C2.86977 18.2153 3.96858 18.2171 3.97407 17.5217L3.97407 17.5199Z" fill="#B81734"/>
<path id="Vector_2" d="M2.60592 28.2222C3.62232 28.2222 4.7779 28.3804 5.68442 27.8287C6.59094 27.2771 6.91875 26.3247 6.92791 25.3184C6.94622 23.4245 6.99384 21.5144 6.92791 19.6222C6.88579 18.4129 6.14592 17.3455 4.91159 17.0437C4.0765 16.8388 2.79638 16.837 1.96495 17.049C-0.468912 17.6726 0.0456976 20.5602 0.0456976 22.4164C0.0456976 24.5763 -0.543997 28.03 2.60592 28.2222C3.31282 28.2654 3.30916 27.1872 2.60592 27.1441C0.607922 27.0219 1.14451 24.1936 1.14451 22.8656L1.14451 20.3248C1.14451 19.6366 1.05843 18.8927 1.65912 18.3895C2.2598 17.8864 3.47032 18.014 4.22667 18.0499C5.28153 18.0984 5.80712 18.8262 5.8291 19.7965C5.86389 21.3904 5.8291 22.9878 5.8291 24.5817C5.8291 25.304 5.94997 26.1432 5.37676 26.7038C4.70648 27.3615 3.47215 27.1477 2.60592 27.1477C1.89902 27.1477 1.89719 28.2258 2.60592 28.2258L2.60592 28.2222Z" fill="#B81734"/>
<path id="Vector_3" d="M41.4252 27.1441C40.7256 27.1441 39.755 27.3058 39.103 27.0093C38.2716 26.6319 38.202 25.8485 38.202 25.0758L38.202 20.1703C38.202 19.4156 38.2185 18.6627 39.0023 18.2386C39.6304 17.8972 40.7054 18.0104 41.4014 18.0481C43.3957 18.1577 42.8866 20.8154 42.8866 22.1487L42.8866 24.9932C42.8866 26.003 42.7364 27.065 41.4252 27.1459C40.7219 27.189 40.7183 28.2671 41.4252 28.224C42.8774 28.136 43.9286 27.1225 43.9854 25.685C44.0165 24.8961 43.9854 24.1001 43.9854 23.3113L43.9854 20.0858C43.9854 19.0777 43.8517 18.1451 42.9617 17.4821C42.0716 16.819 40.8812 16.9394 39.8374 16.97C38.5042 17.0095 37.3431 17.8343 37.1361 19.1802C37.0226 19.9205 37.1032 20.7183 37.1032 21.4622L37.1032 24.7811C37.1032 25.8467 37.138 26.8584 38.0481 27.6149C38.9583 28.3714 40.2751 28.224 41.4252 28.224C42.1321 28.224 42.1339 27.1459 41.4252 27.1459L41.4252 27.1441Z" fill="#B81734"/>
<path id="Vector_4" d="M28.8219 43.4205C30.2723 43.4205 31.7191 43.4654 33.1439 43.1545C35.1327 42.7215 37.0062 41.717 38.4291 40.2831C39.8521 38.8491 40.7604 37.0846 41.0516 35.1529C41.2238 34.0011 41.156 32.8115 41.156 31.6507L41.156 27.9023C41.156 27.2087 40.0572 27.2069 40.0572 27.9023L40.0572 31.9041C40.0572 33.4494 40.1268 34.9642 39.603 36.452C38.7771 38.7934 36.8322 40.6622 34.5174 41.6038C32.6695 42.3567 30.7778 42.3423 28.8219 42.3423C28.115 42.3423 28.1131 43.4205 28.8219 43.4205Z" fill="#B81734"/>
<path id="Vector_5" d="M27.4684 43.9129L23.4047 43.9129C22.8022 43.9129 22.1722 43.965 21.5715 43.9129C20.436 43.8141 20.2547 42.0064 21.4616 41.85C22.6685 41.6937 24.0896 41.85 25.3532 41.85C25.9942 41.85 26.659 41.7997 27.2999 41.85C27.82 41.8914 28.1918 42.0549 28.2724 42.6389C28.353 43.2229 28.1625 43.8518 27.4684 43.9129C26.7743 43.974 26.7634 45.0539 27.4684 44.991C28.6405 44.8886 29.3529 44.1016 29.3712 42.9533C29.3859 41.9632 28.9225 41.0396 27.8585 40.8132C27.3238 40.7 26.7121 40.7719 26.1718 40.7719L23.4065 40.7719C21.9158 40.7719 19.7731 40.5006 19.5717 42.5203C19.4783 43.4655 19.7584 44.425 20.7144 44.8347C21.2345 45.0575 21.8498 44.991 22.4029 44.991L27.4703 44.991C28.1772 44.991 28.179 43.9129 27.4703 43.9129L27.4684 43.9129Z" fill="#B81734"/>
<path id="Vector_6" d="M15.0885 6.22804C17.0077 10.8964 20.0899 15.0491 24.4503 17.784C27.5655 19.739 31.2611 20.9483 34.9751 20.9663C35.682 20.9699 35.6838 19.8917 34.9751 19.8881C26.3073 19.845 19.2566 13.5055 16.147 5.94234C15.8851 5.30623 14.8229 5.58475 15.0867 6.22984L15.0885 6.22804Z" fill="#B81734"/>
<path id="Vector_7" d="M11.0669 17.8361C12.1346 14.4345 14.3743 11.6601 17.4748 9.81826C18.0792 9.45887 17.5279 8.52628 16.9199 8.88746C13.574 10.8748 11.1585 13.8793 10.0066 17.5486C9.7978 18.2134 10.8581 18.4973 11.0669 17.8361Z" fill="#B81734"/>
<path id="Vector_8" d="M33.5191 27.7353C34.3029 25.3724 34.5611 22.898 34.2993 20.4273C34.226 19.7445 33.1272 19.7373 33.2005 20.4273C33.4532 22.81 33.2151 25.1693 32.4588 27.4478C32.239 28.1091 33.2993 28.393 33.5191 27.7353Z" fill="#B81734"/>
<path id="Vector_9" d="M16.8759 32.4091C19.6504 35.6651 24.3808 35.6651 27.1553 32.4091C27.6058 31.8808 26.8329 31.1135 26.3788 31.6472C23.965 34.4791 20.0679 34.4809 17.6542 31.6472C17.2 31.1135 16.4272 31.8808 16.8777 32.4091L16.8759 32.4091Z" fill="#B81734"/>
<path id="Vector_10" d="M18.5845 21.9924C17.7274 21.0256 16.288 21.0256 15.4309 21.9924C14.9694 22.5135 15.7422 23.279 16.2074 22.7543C16.6725 22.2296 17.319 22.2044 17.8061 22.7543C18.2933 23.3041 19.046 22.5135 18.5826 21.9924L18.5845 21.9924Z" fill="#B81734"/>
<path id="Vector_11" d="M28.5984 21.9924C27.7413 21.0256 26.3019 21.0256 25.4448 21.9924C24.9833 22.5135 25.7561 23.279 26.2213 22.7543C26.6865 22.2296 27.3329 22.2044 27.8201 22.7543C28.3072 23.3041 29.0599 22.5135 28.5966 21.9924L28.5984 21.9924Z" fill="#B81734"/>
</g>
<defs>
<clipPath id="clip0_74_13746">
<rect width="44" height="45" fill="white"/>
</clipPath>
</defs>
</svg>
