<svg width="44" height="45" viewBox="0 0 44 45" fill="none" xmlns="http://www.w3.org/2000/svg"><g clip-path="url(#clip0_146_40854)" fill="#fff"><path d="M3.974 17.52C4.03 10.365 9.102 4.25 15.925 2.03 22.75-.188 30.92 1.6 35.861 6.977c2.667 2.898 4.163 6.643 4.194 10.546.006.693 1.105.695 1.1 0-.06-7.605-5.407-14.086-12.639-16.49C21.284-1.374 12.429.585 7.232 6.387c-2.765 3.089-4.326 7.019-4.357 11.134-.005.693 1.094.695 1.1 0v-.002z"/><path d="M2.606 28.222c1.016 0 2.172.158 3.079-.393.906-.552 1.234-1.504 1.243-2.51.018-1.895.066-3.805 0-5.697-.042-1.21-.782-2.276-2.016-2.578-.835-.205-2.115-.207-2.947.005-2.434.624-1.92 3.511-1.92 5.367 0 2.16-.589 5.614 2.561 5.806.707.043.703-1.035 0-1.078-1.998-.122-1.461-2.95-1.461-4.278v-2.541c0-.688-.086-1.432.514-1.935.6-.504 1.811-.376 2.568-.34 1.055.048 1.58.776 1.602 1.747.035 1.593 0 3.19 0 4.785 0 .722.121 1.561-.452 2.122-.67.657-1.905.444-2.77.444-.708 0-.71 1.078-.001 1.078v-.004zm38.819-1.078c-.7 0-1.67.162-2.322-.135-.831-.377-.901-1.16-.901-1.933V20.17c0-.754.017-1.507.8-1.931.628-.342 1.703-.229 2.4-.19 1.994.109 1.485 2.766 1.485 4.1v2.844c0 1.01-.15 2.072-1.462 2.153-.703.043-.707 1.121 0 1.078 1.452-.088 2.504-1.102 2.56-2.539.032-.789 0-1.585 0-2.374v-3.225c0-1.008-.133-1.94-1.023-2.604-.89-.663-2.08-.543-3.125-.512-1.333.04-2.494.864-2.7 2.21-.114.74-.034 1.538-.034 2.282v3.32c0 1.065.035 2.076.945 2.833.91.756 2.227.609 3.377.609.707 0 .709-1.078 0-1.078v-.002z"/><path d="M28.822 43.42c1.45 0 2.897.045 4.322-.266 1.989-.433 3.862-1.437 5.285-2.87 1.423-1.435 2.331-3.2 2.622-5.131.173-1.152.105-2.341.105-3.502v-3.749c0-.693-1.099-.695-1.099 0v4.002c0 1.545.07 3.06-.454 4.548-.826 2.341-2.77 4.21-5.086 5.152-1.848.753-3.74.738-5.695.738-.707 0-.709 1.078 0 1.078z"/><path d="M27.468 43.913h-4.063c-.603 0-1.233.052-1.834 0-1.135-.099-1.316-1.907-.11-2.063 1.208-.156 2.629 0 3.892 0 .641 0 1.306-.05 1.947 0 .52.041.892.205.972.789.081.584-.11 1.213-.804 1.274-.694.061-.705 1.14 0 1.078 1.172-.102 1.885-.89 1.903-2.038.015-.99-.448-1.913-1.512-2.14-.535-.113-1.147-.041-1.687-.041h-2.765c-1.491 0-3.634-.271-3.835 1.748-.094.945.186 1.905 1.142 2.315.52.222 1.136.156 1.689.156h5.067c.707 0 .709-1.078 0-1.078h-.002zM15.088 6.228c1.92 4.668 5.002 8.821 9.362 11.556 3.116 1.955 6.811 3.164 10.525 3.182.707.004.709-1.074 0-1.078-8.668-.043-15.718-6.383-18.828-13.946-.262-.636-1.324-.357-1.06.288l.002-.002z"/><path d="M11.067 17.836c1.067-3.401 3.307-6.176 6.408-8.018.604-.36.053-1.292-.555-.93-3.346 1.987-5.762 4.991-6.914 8.66-.208.665.852.95 1.06.288zm22.453 9.899a17.325 17.325 0 00.78-7.308c-.074-.683-1.173-.69-1.1 0a16.567 16.567 0 01-.741 7.02c-.22.662.84.946 1.06.288zM16.876 32.41c2.774 3.255 7.505 3.255 10.28 0 .45-.53-.323-1.296-.777-.763-2.414 2.832-6.311 2.834-8.725 0-.454-.534-1.227.234-.776.762h-.002zm1.709-10.418a2.077 2.077 0 00-3.154 0c-.461.521.311 1.287.777.762.465-.524 1.111-.55 1.598 0 .487.55 1.24-.24.777-.762h.002zm10.013 0a2.077 2.077 0 00-3.153 0c-.462.521.311 1.287.776.762.465-.524 1.112-.55 1.6 0 .486.55 1.239-.24.776-.762h.001z"/></g><defs><clipPath id="clip0_146_40854"><path fill="#fff" d="M0 0h44v45H0z"/></clipPath></defs></svg>