<svg width="26" height="22" viewBox="0 0 26 22" fill="none" xmlns="http://www.w3.org/2000/svg"><path d="M19.458.12c1.867 0 3.36.667 4.48 2 1.067 1.387 1.6 3.173 1.6 5.36 0 2.987-.8 5.68-2.4 8.08-1.653 2.453-4.16 4.507-7.52 6.16l-.88-1.28c1.6-.96 3.067-2.32 4.4-4.08 1.28-1.707 1.92-3.44 1.92-5.2 0-.48-.133-.88-.4-1.2-.266-.267-.666-.4-1.2-.4-1.333 0-2.453-.48-3.36-1.44-.96-.907-1.44-2.027-1.44-3.36 0-1.333.48-2.453 1.44-3.36.907-.853 2.027-1.28 3.36-1.28zm-13.84 0c1.867 0 3.36.667 4.48 2 1.067 1.387 1.6 3.173 1.6 5.36 0 2.987-.8 5.68-2.4 8.08-1.653 2.453-4.16 4.507-7.52 6.16l-.88-1.28c1.6-.96 3.067-2.32 4.4-4.08 1.28-1.707 1.92-3.44 1.92-5.2 0-.48-.133-.88-.4-1.2-.266-.267-.666-.4-1.2-.4-1.333 0-2.453-.48-3.36-1.44-.96-.907-1.44-2.027-1.44-3.36 0-1.333.48-2.453 1.44-3.36C3.165.547 4.285.12 5.618.12z" fill="#B81734"/></svg>