<svg width="178" height="75" viewBox="0 0 178 75" fill="none" xmlns="http://www.w3.org/2000/svg"><g clip-path="url(#clip0_146_40887)"><path d="M59.2 44.67c0 16.35-13.25 29.6-29.6 29.6S0 61.02 0 44.67s13.25-29.6 29.6-29.6 29.6 13.25 29.6 29.6z" fill="#fff"/><path d="M78.63 68.83c1.32 0 2.06-.51 2.52-.99.46-.46.57-.75.75-.75.13 0 .22.09.22.22 0 .24-1.38 2.88-4.94 2.88-2.28 0-4.32-1.87-4.32-4.39 0-3.45 3.62-5.92 6.19-5.92 1.93 0 3.69 1.34 3.69 3.12 0 .92-.66 1.73-1.6 1.73-.83 0-1.29-.61-1.29-1.38 0-.94.48-1.43.48-2.19 0-.35-.39-.75-1.38-.75-2.13 0-3.53 2.41-3.53 4.81 0 2.08 1.32 3.62 3.23 3.62m11.51-8.57c-2.24 0-3.64 3.38-3.64 6.76 0 1.62.7 2.77 1.93 2.77 2.24 0 3.64-3.38 3.64-6.76 0-1.62-.7-2.76-1.93-2.76m4.61 4.13c0 2.88-2.74 5.79-6.25 5.79-1.95 0-4.67-1.29-4.67-4.52 0-2.88 2.74-5.79 6.25-5.79 1.95 0 4.67 1.29 4.67 4.52zm5.88-.76c1.23-2.61 2.55-3.78 4.06-3.78 1.6 0 2.33.97 2.33 2.5 0 1.32-1.29 5.31-1.29 6.06 0 .4.24.75.72.75.55 0 1.08-.51 1.4-1.14.44-.86.37-1.21.61-1.21.15 0 .22.09.22.28 0 .26-.88 3.07-3.34 3.07-1.25 0-1.95-1.01-1.95-2.04 0-1.16 1.29-5.44 1.29-6.61 0-.51-.31-.79-.75-.79-1.29 0-3.12 3.03-3.75 5.44l-1.05 3.99c-.42-.09-.81-.22-1.23-.22-.42 0-.81.04-1.23.22l1.62-7.29c.13-.55.2-.9.2-1.32 0-.57-.29-.83-.55-.83-.35 0-.86.33-1.25.99-.68 1.14-.59 1.65-.83 1.65-.13 0-.2-.07-.2-.22 0-.57 1.16-3.29 3.16-3.29 1.07 0 2 .81 2 2.15 0 .62-.11 1.01-.24 1.58l.04.04.01.02zm14.06-3.77c1.67 0 3.64.83 3.64 2.3 0 .61-.42 1.08-1.05 1.08-2.5 0-.2-2.98-2.76-2.98-1.14 0-2.09.64-2.09 1.51 0 2 5.11 2.15 5.11 5.05 0 1.98-1.56 3.36-4.57 3.36-3.01 0-3.95-1.47-3.95-2.44 0-.77.55-1.27 1.21-1.27 2.26 0 .13 3.31 2.98 3.31 1.32 0 2.26-.61 2.26-1.78 0-2.22-4.85-2.04-4.85-5.16 0-1.56 1.56-2.98 4.06-2.98m12.02 6.93c-.97 2-2.26 3.38-3.84 3.38-1.76 0-2.5-1.23-2.5-2.41 0-1.89 1.38-5.53 1.38-6.39 0-.39-.22-.72-.7-.72-.55 0-1.08.44-1.65 1.65-.15.33-.22.61-.39.61-.11 0-.17-.07-.17-.2 0-.24.83-2.85 3.09-2.85 1.34 0 2.15.66 2.15 2.17 0 1.29-1.38 5.31-1.38 6.39 0 .59.33 1.05.92 1.05 1.51 0 2.98-3.07 3.29-4.3l1.32-5.22c.37.15.77.31 1.23.31.5 0 .9-.2 1.18-.31-.81 4.02-1.69 7.9-1.69 8.4s.17.94.61.94c.66 0 1.27-1.08 1.62-2.11.09-.26.11-.53.31-.53.13 0 .18.13.18.22 0 .22-.79 3.29-3.01 3.29-1.34 0-2.04-.88-2.04-2.33 0-.46.07-.79.13-1.01l-.04-.04v.01zm8.62-10.14c0-1.03-1.62-.83-1.62-1.27 0-.53 1.01-.13 4.65-1.4-.92 4.67-2.79 13.47-2.79 14.2 0 .42.15.72.55.72.59 0 1.03-.61 1.34-1.18.33-.61.44-.88.57-.88.15 0 .22.09.22.22 0 .18-.99 3.12-3.36 3.12-.88 0-1.78-.53-1.78-2.06 0-.83 2.22-10.58 2.22-11.46m11 4.64h-2.55c-.57 3.01-1.29 5.92-1.29 6.54 0 .81.59 1.18 1.14 1.18.79 0 1.32-.39 1.78-.77.29-.24.37-.35.44-.35.11 0 .18.07.18.17 0 .2-1.25 2.09-3.69 2.09-1.73 0-2.39-.81-2.39-2.11 0-.66.66-3.23 1.38-6.76h-1.67c1.01-.68 3.44-2.48 5.05-4.39h.04l-.7 3.12h2.85l-.57 1.27v.01zm5.61-6.67c.88 0 1.58.7 1.58 1.51 0 .77-.68 1.78-1.82 1.78-.53 0-1.56-.29-1.56-1.62 0-.83.81-1.67 1.8-1.67zm-.04 7.04c0 .97-1.56 6.03-1.56 6.63 0 .46.22.72.66.72.77 0 1.36-1.12 1.65-1.73.13-.28.2-.39.29-.39.11 0 .2.07.2.18 0 .09-.77 3.09-3.4 3.09-1.03 0-1.84-.66-1.84-1.93 0-1.41 1.56-5.77 1.56-6.74 0-.42-.24-.64-.55-.64-.4 0-.9.37-1.38 1.18-.46.79-.53 1.27-.72 1.27-.09 0-.15-.07-.15-.18 0-.46 1.12-3.29 3.45-3.29 1.14 0 1.82.7 1.82 1.82m6.79 1.97c1.23-2.61 2.55-3.78 4.06-3.78 1.6 0 2.33.97 2.33 2.5 0 1.32-1.29 5.31-1.29 6.06 0 .4.24.75.73.75.55 0 1.07-.51 1.4-1.14.44-.86.37-1.21.61-1.21.15 0 .22.09.22.28 0 .26-.88 3.07-3.34 3.07-1.25 0-1.95-1.01-1.95-2.04 0-1.16 1.29-5.44 1.29-6.61 0-.51-.31-.79-.75-.79-1.29 0-3.11 3.03-3.75 5.44l-1.05 3.99c-.42-.09-.81-.22-1.23-.22-.42 0-.81.04-1.23.22l1.62-7.29c.13-.55.2-.9.2-1.32 0-.57-.29-.83-.55-.83-.35 0-.85.33-1.25.99-.68 1.14-.59 1.65-.83 1.65-.13 0-.2-.07-.2-.22 0-.57 1.16-3.29 3.16-3.29 1.08 0 2 .81 2 2.15 0 .62-.11 1.01-.24 1.58l.04.04v.02zm13.44 2.02c.79 0 1.47-.48 1.82-1.38.29-.7.59-1.65.59-2.28 0-1.21-.53-1.73-1.43-1.73-1.38 0-2.33 1.98-2.33 3.82 0 .77.31 1.58 1.34 1.58m-1.95 8.08c3.1 0 4.32-.7 4.32-1.78 0-1.65-2.55-.9-6.28-1.6-.88.24-1.43.79-1.43 1.56s.57 1.82 3.38 1.82m.13-7.99c-1.16-.33-2.06-1.16-2.06-2.48 0-1.69 1.58-3.38 4.89-3.4.42-1.36 1.34-2.63 2.94-2.63.97 0 1.36.53 1.36 1.12 0 .55-.42 1.21-1.27 1.21-.85 0-.94-.5-1.65-.5s-.75.5-.79.81c2 .29 3.36 1.23 3.36 2.72 0 2.74-2.96 3.47-5.73 3.47-1.69 0-2.41.51-2.41 1.18 0 2.37 7.57-.09 7.57 3.64 0 2.61-3.25 3.38-6.34 3.38-2.52 0-4.52-.64-4.52-2.02 0-1.05.55-1.51 2.11-2.17-.57-.37-.92-.9-.92-1.58 0-1.71 1.6-2.44 3.47-2.7v-.04l-.01-.01z" fill="#92AEB9"/><path d="M77.37 32.29c0 5.05 2.96 9.83 8.45 9.83 5.49 0 8.62-4.56 8.62-9.77s-3.24-9.33-8.67-9.33c-5.11 0-8.4 4.45-8.4 9.28m21.25 13.18h-4.39v-3.57h-.11c-2.25 2.85-5.27 4.28-8.9 4.28-7.58 0-12.35-6.42-12.35-13.56 0-7.14 4.67-13.67 12.41-13.67 3.51 0 6.7 1.65 8.84 4.39h.11v-3.68h4.39v25.81zM111.45 0h-4.39v45.3h4.39V0zm12.74.21h-4.39v45.26h4.39V.21zm14.78 22.25h.11c1.54-2.03 2.86-3.51 5.71-3.51 1.48 0 2.69.49 3.95 1.21l-2.09 4.01c-.88-.6-1.48-1.15-2.64-1.15-4.83 0-5.05 6.21-5.05 9.55v12.9h-4.39v-25.8h4.39v2.8l.01-.01zm16.71 9.83c0 5.05 2.96 9.83 8.45 9.83 5.49 0 8.62-4.56 8.62-9.77s-3.24-9.33-8.67-9.33c-5.11 0-8.4 4.45-8.4 9.28m21.25 13.18h-4.39v-3.57h-.11c-2.25 2.85-5.27 4.28-8.9 4.28-7.58 0-12.35-6.42-12.35-13.56 0-7.14 4.67-13.67 12.41-13.67 3.51 0 6.7 1.65 8.84 4.39h.11v-3.68h4.39v25.81z" fill="#fff"/><path d="M16.95 43.85c0 6.09 3.57 11.85 10.19 11.85 6.62 0 10.39-5.49 10.39-11.78 0-6.29-3.91-11.25-10.46-11.25-6.16 0-10.13 5.36-10.13 11.19m25.62 15.89h-5.3v-4.3h-.13c-2.71 3.44-6.36 5.16-10.72 5.16-9.13 0-14.89-7.74-14.89-16.35 0-8.61 5.63-16.48 14.96-16.48 4.24 0 8.07 1.99 10.66 5.3h.13v-4.43h5.3v31.11l-.01-.01z" fill="#102237"/><path d="M42.58 59.73l13.55-20.41h-5.29L37.28 59.73h5.3z" fill="#92AEB9"/><path d="M72.86 50.38h104.62" stroke="#92AEB9" stroke-width=".86" stroke-miterlimit="10"/><path d="M48.19 43.31h5.3l2.64-3.99h-5.29l-2.65 3.99zm82.66-33.82h-11.04v4.06h11.04V9.49z" fill="#E30413"/></g><defs><clipPath id="clip0_146_40887"><path fill="#fff" d="M0 0h177.48v74.27H0z"/></clipPath></defs></svg>