<svg width="42" height="44" viewBox="0 0 42 44" fill="none" xmlns="http://www.w3.org/2000/svg"><g fill="#B81734"><path d="M28.328 11.927H13.672c-.683 0-.685 1.06 0 1.06h14.656c.683 0 .684-1.06 0-1.06zm0 4.413H13.672c-.683 0-.685 1.06 0 1.06h14.656c.683 0 .684-1.06 0-1.06zM21 20.754h-7.328c-.683 0-.685 1.06 0 1.06H21c.683 0 .685-1.06 0-1.06z"/><path d="M.025 17.13v24.12c0 1.32.387 2.633 1.996 2.712 1.772.087 3.571 0 5.346 0h32.238c1.243 0 2.31-.637 2.376-2.006.039-.807 0-1.626 0-2.433v-22.39c0-.681-1.062-.683-1.062 0v23.723c0 .821.188 1.934-.96 2.048-1.863.184-3.838 0-5.708 0H2.572c-.755 0-1.429-.12-1.486-1.079-.056-.958 0-1.926 0-2.88V17.132c0-.681-1.061-.683-1.061 0v-.001z"/><path d="M41.821 16.756l-4.957-4.148c-.52-.434-1.275.311-.75.749l4.957 4.148c.52.434 1.276-.31.75-.749zm-36.68-4.153c-1.654 1.384-3.308 2.769-4.964 4.153-.524.438.23 1.185.75.749 1.654-1.384 3.308-2.769 4.964-4.153.524-.438-.23-1.185-.75-.75zm8.589-5.808c1.973-1.651 3.945-3.302 5.92-4.953.25-.209.5-.488.782-.654.693-.413 1.114-.019 1.594.382 1.143.955 2.284 1.912 3.427 2.868l2.818 2.357c.52.436 1.276-.31.75-.749L22.707.763c-1.017-.851-2.075-1.091-3.186-.19-1.111.903-2.26 1.892-3.388 2.837-1.051.88-2.1 1.759-3.151 2.636-.524.438.23 1.185.75.749h-.002z"/><path d="M10.888 37.655c3.465-2.257 6.933-4.513 10.399-6.768l16.595-10.802 3.833-2.495c.57-.371.04-1.29-.536-.915-3.465 2.257-6.933 4.514-10.399 6.769L14.185 34.245l-3.834 2.495c-.57.371-.038 1.29.537.915zM.18 17.505l10.775 9.015 1.562 1.306c.52.437 1.275-.31.75-.748L2.493 18.063c-.52-.436-1.042-.87-1.562-1.307-.52-.436-1.276.311-.75.749zm36.052 19.712l-5.838.154c-.681.017-.685 1.077 0 1.06l5.838-.154c.681-.018.685-1.077 0-1.06z"/><path d="M6.047 21.284V8.229c0-.217-.138-1.045 0-1.226.205-.266 1.79-.054 2.126-.054h26.414c.326 0 .839-.103 1.152 0 .27.088.22.053.22.41v12.998c0 .681 1.06.683 1.06 0V8.188c0-.92.181-2.182-1.087-2.297-.851-.078-1.745 0-2.6 0H9.538c-1.104 0-2.225-.057-3.33 0-1.103.056-1.222.809-1.222 1.688v13.705c0 .682 1.062.683 1.062 0z"/></g></svg>