<svg width="42" height="44" viewBox="0 0 42 44" fill="none" xmlns="http://www.w3.org/2000/svg"><g clip-path="url(#clip0_146_40837)" fill="#fff"><path d="M28.328 11.927H13.672c-.683 0-.684 1.06 0 1.06h14.656c.683 0 .685-1.06 0-1.06zm0 4.413H13.672c-.683 0-.684 1.059 0 1.059h14.656c.683 0 .685-1.06 0-1.06zM21 20.754h-7.328c-.683 0-.684 1.06 0 1.06H21c.683 0 .685-1.06 0-1.06z"/><path d="M.025 17.13v24.12c0 1.32.387 2.633 1.995 2.712 1.773.087 3.572 0 5.347 0h32.237c1.244 0 2.311-.637 2.377-2.006.038-.807 0-1.626 0-2.433v-22.39c0-.681-1.062-.683-1.062 0v23.723c0 .821.188 1.934-.96 2.048-1.864.184-3.838 0-5.708 0H2.572c-.755 0-1.43-.12-1.486-1.079-.056-.958 0-1.926 0-2.88V17.132c0-.681-1.061-.683-1.061 0v-.001z"/><path d="M41.821 16.756l-4.957-4.148c-.52-.434-1.275.311-.75.749l4.957 4.148c.52.434 1.276-.31.75-.749zm-36.68-4.153c-1.654 1.384-3.308 2.769-4.964 4.153-.524.438.23 1.185.75.749 1.654-1.384 3.308-2.769 4.964-4.153.524-.438-.23-1.185-.75-.75zm8.589-5.808l5.92-4.953c.25-.209.5-.488.782-.654.694-.413 1.115-.019 1.594.382 1.143.955 2.284 1.912 3.427 2.868l2.818 2.357c.52.436 1.276-.31.75-.749-2.105-1.76-4.208-3.523-6.314-5.283-1.017-.851-2.075-1.091-3.186-.19-1.111.903-2.26 1.892-3.388 2.837-1.05.88-2.1 1.759-3.15 2.636-.524.438.23 1.185.75.749h-.003z"/><path d="M10.887 37.655c3.466-2.257 6.934-4.513 10.4-6.768L37.88 20.085l3.834-2.495c.57-.371.04-1.29-.536-.915a32830.33 32830.33 0 01-10.399 6.769L14.185 34.245l-3.834 2.495c-.57.371-.039 1.29.536.915zM.18 17.505l10.775 9.015 1.562 1.306c.52.437 1.276-.31.75-.748L2.493 18.063c-.52-.436-1.042-.87-1.562-1.307-.52-.436-1.276.311-.75.749zm36.053 19.712l-5.839.154c-.68.017-.684 1.077 0 1.06l5.839-.154c.68-.018.684-1.077 0-1.06z"/><path d="M6.047 21.284V8.229c0-.217-.138-1.045 0-1.226.205-.266 1.79-.054 2.127-.054h26.413c.326 0 .839-.103 1.152 0 .27.088.22.053.22.41v12.998c0 .681 1.06.683 1.06 0V8.188c0-.92.181-2.182-1.087-2.297-.851-.078-1.745 0-2.6 0H9.539c-1.104 0-2.226-.057-3.33 0-1.104.056-1.223.809-1.223 1.688v13.705c0 .682 1.062.683 1.062 0z"/></g><defs><clipPath id="clip0_146_40837"><path fill="#fff" d="M0 0h42v44H0z"/></clipPath></defs></svg>