<svg width="42" height="44" viewBox="0 0 42 44" fill="none" xmlns="http://www.w3.org/2000/svg">
<g id="_&#195;&#171;&#195;&#142;&#195;&#147;&#195;&#136;_1" clip-path="url(#clip0_146_40837)">
<path id="Vector" d="M28.3279 11.9266H13.6721C12.9892 11.9266 12.9875 12.9862 13.6721 12.9862H28.3279C29.0108 12.9862 29.0126 11.9266 28.3279 11.9266Z" fill="white"/>
<path id="Vector_2" d="M28.3279 16.3395H13.6721C12.9892 16.3395 12.9875 17.399 13.6721 17.399H28.3279C29.0108 17.399 29.0126 16.3395 28.3279 16.3395Z" fill="white"/>
<path id="Vector_3" d="M21 20.7542H13.6721C12.9892 20.7542 12.9875 21.8137 13.6721 21.8137H21C21.6829 21.8137 21.6847 20.7542 21 20.7542Z" fill="white"/>
<path id="Vector_4" d="M0.0247803 17.1306C0.0247803 23.8303 0.0247803 30.53 0.0247803 37.2296V41.2487C0.0247803 42.5696 0.412228 43.8816 2.0204 43.9611C3.7931 44.0476 5.59235 43.9611 7.36682 43.9611C15.6094 43.9611 23.8519 43.9611 32.0945 43.9611H39.6046C40.8483 43.9611 41.9151 43.3236 41.9806 41.9551C42.0195 41.1481 41.9806 40.3287 41.9806 39.5217V17.1324C41.9806 16.4507 40.9191 16.449 40.9191 17.1324V40.855C40.9191 41.6761 41.1066 42.7886 39.9584 42.9034C38.0955 43.087 36.1211 42.9034 34.2511 42.9034C26.2367 42.9034 18.2207 42.9034 10.2063 42.9034H2.57238C1.81695 42.9034 1.14289 42.7833 1.08628 41.8244C1.02967 40.8656 1.08628 39.8979 1.08628 38.9443C1.08628 31.8438 1.08628 24.7432 1.08628 17.6445V17.1324C1.08628 16.4507 0.0247803 16.449 0.0247803 17.1324V17.1306Z" fill="white"/>
<path id="Vector_5" d="M41.8213 16.7562C40.1689 15.3735 38.5165 13.9909 36.8641 12.6082C36.344 12.1738 35.5885 12.919 36.114 13.3569C37.7664 14.7396 39.4188 16.1223 41.0712 17.5049C41.5913 17.9393 42.3468 17.1942 41.8213 16.7562Z" fill="white"/>
<path id="Vector_6" d="M5.14125 12.6029C3.48708 13.9874 1.83291 15.3718 0.176968 16.7562C-0.346706 17.1942 0.406959 17.9411 0.927094 17.505C2.58126 16.1205 4.23543 14.7361 5.89137 13.3516C6.41505 12.9137 5.66138 12.1668 5.14125 12.6029Z" fill="white"/>
<path id="Vector_7" d="M13.7305 6.79505C15.7031 5.14397 17.6757 3.49289 19.6501 1.8418C19.8996 1.63343 20.1508 1.35443 20.4321 1.18843C21.1256 0.775222 21.5467 1.16901 22.0261 1.56986C23.169 2.52519 24.3101 3.48229 25.453 4.43762C26.3924 5.22343 27.3319 6.00924 28.2713 6.79505C28.7914 7.23122 29.5468 6.48426 29.0214 6.04632C26.9161 4.28576 24.8126 2.52343 22.7073 0.762861C21.69 -0.0882844 20.632 -0.328442 19.521 0.573914C18.4099 1.47627 17.2618 2.46515 16.133 3.40989C15.0821 4.28929 14.033 5.16869 12.9821 6.04632C12.4585 6.48426 13.2121 7.23122 13.7323 6.79505H13.7305Z" fill="white"/>
<path id="Vector_8" d="M10.8875 37.6553C14.3533 35.3985 17.8208 33.1417 21.2866 30.8867L37.8814 20.0849C39.1588 19.2532 40.4379 18.4215 41.7152 17.5898C42.2849 17.2189 41.7541 16.3007 41.1791 16.675C37.7134 18.9318 34.2458 21.1886 30.78 23.4436C25.2478 27.0442 19.7174 30.6448 14.1852 34.2454C12.9079 35.0771 11.6288 35.9088 10.3514 36.7405C9.78176 37.1114 10.3125 38.0296 10.8875 37.6553Z" fill="white"/>
<path id="Vector_9" d="M0.18051 17.505C3.77192 20.5105 7.36332 23.5142 10.9547 26.5197C11.4749 26.9559 11.9968 27.3903 12.5169 27.8264C13.037 28.2626 13.7925 27.5156 13.267 27.0777C9.67562 24.0722 6.08422 21.0685 2.49281 18.063C1.97267 17.6268 1.45077 17.1924 0.930636 16.7562C0.410501 16.3201 -0.344933 17.067 0.18051 17.505Z" fill="white"/>
<path id="Vector_10" d="M36.2325 37.2173C34.2864 37.2685 32.3403 37.3197 30.3943 37.3709C29.7131 37.3885 29.7096 38.4481 30.3943 38.4304C32.3403 38.3792 34.2864 38.328 36.2325 38.2768C36.9136 38.2591 36.9172 37.1996 36.2325 37.2173Z" fill="white"/>
<path id="Vector_11" d="M6.04697 21.284V8.22898C6.04697 8.01178 5.90898 7.18359 6.04697 7.00347C6.2522 6.73683 7.83737 6.94873 8.17351 6.94873H34.5872C34.9127 6.94873 35.4257 6.84631 35.7389 6.94873C36.0096 7.03702 35.9583 7.0017 35.9583 7.35841V20.3569C35.9583 21.0385 37.0198 21.0403 37.0198 20.3569V8.18836C37.0198 7.26835 37.2002 6.00576 35.9317 5.89098C35.0808 5.81328 34.1873 5.89098 33.3328 5.89098H9.53754C8.43358 5.89098 7.31193 5.83447 6.20797 5.89098C5.10401 5.94749 4.98547 6.69974 4.98547 7.57914V21.284C4.98547 21.9656 6.04697 21.9674 6.04697 21.284Z" fill="white"/>
</g>
<defs>
<clipPath id="clip0_146_40837">
<rect width="42" height="44" fill="white"/>
</clipPath>
</defs>
</svg>
