<svg width="48" height="48" viewBox="0 0 48 48" fill="none" xmlns="http://www.w3.org/2000/svg">
<path d="M47.2 24.2899C47.2 37.3258 36.6358 47.8899 23.6 47.8899C10.5642 47.8899 0 37.3258 0 24.2899C0 11.2541 10.5642 0.689941 23.6 0.689941C36.6358 0.689941 47.2 11.2541 47.2 24.2899Z" fill="white"/>
<path d="M13.5144 23.6363C13.5144 28.4918 16.3607 33.0843 21.6388 33.0843C26.917 33.0843 29.9228 28.7071 29.9228 23.6921C29.9228 18.6771 26.8053 14.7225 21.583 14.7225C16.6717 14.7225 13.5064 18.996 13.5064 23.6443M33.9332 36.3133H29.7075V32.8849H29.6038C27.4432 35.6276 24.533 36.999 21.0568 36.999C13.7775 36.999 9.18506 30.8279 9.18506 23.9632C9.18506 17.0985 13.6738 10.8237 21.1126 10.8237C24.4932 10.8237 27.5468 12.4104 29.6118 15.0494H29.7155V11.5174H33.9411V36.3213L33.9332 36.3133Z" fill="#102237"/>
<path d="M33.9488 36.2973L44.7522 20.0244H40.5345L29.7231 36.2973H33.9488Z" fill="#92AEB9"/>
<path d="M38.4219 23.2056H42.6476L44.7524 20.0244H40.5347L38.4219 23.2056Z" fill="#E30413"/>
</svg>
