<svg width="291" height="695" viewBox="0 0 291 695" fill="none" xmlns="http://www.w3.org/2000/svg">
<g clip-path="url(#clip0_434_11359)">
<path d="M281.282 175.76L267.88 157.756L264.487 159.189L267.671 181.506L270.408 180.346L269.846 176.361L274.425 171.407L278.556 176.909L279.128 180.894L274.549 185.849L270.408 180.346L267.671 181.506L281.074 199.51L284.476 198.077L281.292 175.76H281.282ZM269.367 173.062L267.869 162.573L272.833 169.32L269.367 173.062ZM276.121 187.946L279.586 184.204L281.084 194.693L276.121 187.946Z" fill="white" fill-opacity="0.04"/>
<path d="M249.618 137.643L263.02 155.637L266.412 154.204L263.228 131.888L249.826 113.894L246.434 115.327L249.618 137.643ZM263.03 150.82L258.067 144.084L261.532 140.342L263.03 150.83V150.82ZM260.502 133.047L261.074 137.032L256.496 141.986L252.354 136.484L251.782 132.499L256.36 127.545L260.491 133.047H260.502ZM254.789 125.457L251.324 129.2L249.826 118.711L254.789 125.457Z" fill="white" fill-opacity="0.04"/>
<path d="M231.564 93.7702L234.3 92.6106L233.739 88.626L238.317 83.6716L242.448 89.1741L245.185 88.0146L231.782 70.0205L228.39 71.4541L231.564 93.7702ZM236.735 81.5844L233.27 85.3265L231.772 74.8379L236.735 81.5844Z" fill="white" fill-opacity="0.04"/>
<path d="M243.02 93.1585L238.442 98.113L234.301 92.6104L231.564 93.7699L244.966 111.775L248.369 110.341L245.185 88.0249L242.448 89.1844L243.02 93.1691V93.1585ZM244.987 106.947L240.024 100.2L243.489 96.458L244.987 106.936V106.947Z" fill="white" fill-opacity="0.04"/>
<path d="M213.521 49.8971L226.923 67.9017L230.326 66.4681L227.142 44.1521L224.395 45.3116L224.967 49.2963L220.399 54.2507L216.258 48.7481L215.696 44.7635L220.264 39.809L224.395 45.3116L227.131 44.1521L213.729 26.1475L210.337 27.5811L213.521 49.8971ZM225.435 52.5957L226.934 63.0843L221.97 56.3379L225.435 52.5957ZM218.682 37.7113L215.217 41.4535L213.719 30.9649L218.682 37.7113Z" fill="white" fill-opacity="0.04"/>
<path d="M237.839 199.057L220.68 184.7L217.704 186.892L225.914 207.849L243.073 222.206L246.049 220.013L237.839 199.046V199.057ZM225.633 199.236L221.773 189.391L228.141 194.777L225.623 199.236H225.633ZM228.307 206.078L226.84 202.335L230.149 196.443L235.435 200.828L236.902 204.57L233.593 210.463L228.307 206.088V206.078ZM241.98 217.515L235.612 212.128L238.13 207.669L241.98 217.515Z" fill="white" fill-opacity="0.04"/>
<path d="M193.074 146.276L190.098 148.469L198.308 169.436L215.467 183.793L218.443 181.6L210.233 160.634L193.074 146.276ZM198.027 160.813L194.167 150.957L200.545 156.354L198.027 160.813ZM210.514 169.246L214.374 179.092L208.006 173.705L210.514 169.246ZM205.987 172.039L200.701 167.665L199.234 163.923L202.554 158.03L207.84 162.405L209.307 166.147L205.987 172.039Z" fill="white" fill-opacity="0.04"/>
<path d="M170.692 130.991L187.851 145.349L190.827 143.156L182.617 122.189L165.458 107.832L162.482 110.025L170.681 130.981L170.692 130.991ZM182.908 130.812L186.768 140.658L180.4 135.261L182.918 130.812H182.908ZM180.234 123.96L181.701 127.702L178.382 133.595L173.096 129.22L171.628 125.478L174.948 119.586L180.234 123.971V123.96ZM172.939 117.92L170.432 122.379L166.571 112.533L172.939 117.931V117.92Z" fill="white" fill-opacity="0.04"/>
<path d="M143.097 92.5685L160.255 106.926L163.231 104.733L155.021 83.7665L152.618 85.5374L154.085 89.2796L150.776 95.1722L145.49 90.787L144.023 87.0448L147.342 81.1522L152.618 85.5374L155.021 83.7665L137.863 69.4092L134.887 71.6018L143.097 92.5685ZM155.302 92.3893L159.163 102.235L152.795 96.8483L155.313 92.3893H155.302ZM138.955 74.1106L145.323 79.5078L142.805 83.9668L138.945 74.1106H138.955Z" fill="white" fill-opacity="0.04"/>
<path d="M181.181 226.749L194.999 244.427L215.519 253.176L217.746 250.204L203.927 232.526L183.407 223.787L181.181 226.749ZM206.643 240.695L213.136 249.002L205.509 245.692L206.653 240.695H206.643ZM195.832 232.273L202.137 234.929L204.603 238.081L203.105 244.691L196.799 242.045L194.333 238.882L195.832 232.273ZM193.428 231.261L192.283 236.258L185.79 227.951L193.428 231.25V231.261Z" fill="white" fill-opacity="0.04"/>
<path d="M143.825 198.003L157.643 215.681L178.163 224.42L180.39 221.447L166.571 203.769L164.781 206.162L167.247 209.314L165.749 215.923L159.443 213.267L156.977 210.115L158.476 203.506L164.781 206.162L166.571 203.769L146.051 195.03L143.825 198.003ZM169.287 211.949L175.78 220.256L168.153 216.956L169.297 211.96L169.287 211.949ZM156.072 202.515L154.927 207.522L148.434 199.215L156.072 202.525V202.515Z" fill="white" fill-opacity="0.04"/>
<path d="M108.696 166.284L106.469 169.246L120.288 186.924L140.807 195.673L143.034 192.701L129.216 175.023L108.706 166.284H108.696ZM117.572 178.765L111.079 170.459L118.717 173.769L117.572 178.765ZM131.931 183.203L138.425 191.51L130.787 188.2L131.931 183.203ZM129.892 180.578L128.394 187.188L122.088 184.531L119.622 181.369L121.12 174.759L127.426 177.416L129.892 180.568V180.578Z" fill="white" fill-opacity="0.04"/>
<path d="M82.9212 158.178L103.441 166.927L105.668 163.955L91.8491 146.277L90.049 148.67L92.5151 151.821L91.0167 158.431L84.7109 155.774L82.2448 152.623L83.7432 146.013L90.0386 148.67L91.8387 146.277L71.3191 137.527L69.0923 140.5L82.9108 158.178H82.9212ZM94.5649 154.446L101.058 162.753L93.4203 159.443L94.5649 154.446ZM80.2054 150.008L73.7123 141.702L81.35 145.012L80.2054 150.008Z" fill="white" fill-opacity="0.04"/>
<path d="M151.952 268.872L169.87 282.249L170.598 280.425L169.88 282.239L191.95 285.211L193.324 281.754L175.395 268.377L153.325 265.415L151.952 268.872ZM188.558 281.827L180.338 280.668L180.14 275.545L188.558 281.827ZM174.282 271.181L177.476 273.563L177.747 280.341L170.973 279.466L167.778 277.084L167.508 270.306L174.282 271.191V271.181ZM164.938 269.968L165.135 275.102L156.717 268.819L164.938 269.968Z" fill="white" fill-opacity="0.04"/>
<path d="M131.89 250.593L109.83 247.631L108.446 251.089L126.365 264.466L148.435 267.428L149.808 263.97L131.89 250.593L130.776 253.387L133.981 255.769L134.252 262.547L127.478 261.672L124.273 259.29L124.003 252.512L130.776 253.387L131.89 250.593ZM145.053 264.034L136.832 262.885L136.635 257.751L145.053 264.034ZM113.202 251.015L121.432 252.164L121.63 257.298L113.202 251.015Z" fill="white" fill-opacity="0.04"/>
<path d="M64.9409 233.306L82.8592 246.683L83.9726 243.889L80.7677 241.496L80.4971 234.718L87.2711 235.604L90.476 237.986L90.7466 244.764L83.9726 243.889L82.8592 246.672L104.929 249.645L106.303 246.187L88.3741 232.81L66.3144 229.848L64.9409 233.306ZM101.547 246.261L93.3271 245.101L93.1294 239.978L101.547 246.261ZM77.927 234.402L78.1247 239.525L69.6962 233.242L77.9166 234.391L77.927 234.402Z" fill="white" fill-opacity="0.04"/>
<path d="M40.0611 227.129L39.3535 228.899L61.4236 231.872L62.7971 228.415L44.8788 215.038L43.7654 217.831L46.9703 220.213L47.2409 226.991L40.4669 226.106L37.2724 223.713L37.0019 216.935L43.7759 217.821L44.8892 215.038L22.8296 212.065L21.4561 215.523L39.3743 228.899L40.0819 227.118L40.0611 227.129ZM58.0314 228.478L49.811 227.329L49.6133 222.206L58.0314 228.488V228.478ZM26.1906 215.459L34.4213 216.619L34.619 221.752L26.1906 215.47V215.459Z" fill="white" fill-opacity="0.04"/>
<path d="M183.095 330.297L183.647 326.607L163.148 317.805L141.005 320.103L140.454 323.793L160.942 332.595L183.085 330.297H183.095ZM179.027 327.798L170.765 328.61L169.402 323.666L179.027 327.798ZM145.074 322.623L153.336 321.811L154.699 326.755L145.063 322.623H145.074ZM157.737 328.062L155.916 321.526L162.701 320.788L166.363 322.359L168.184 328.895L161.4 329.633L157.737 328.062Z" fill="white" fill-opacity="0.04"/>
<path d="M94.0659 316.73L114.565 325.532L136.708 323.234L137.259 319.545L116.76 310.743L94.6174 313.041L94.0659 316.73ZM132.639 320.725L124.377 321.537L123.014 316.593L132.639 320.725ZM116.323 313.726L119.976 315.297L121.797 321.822L115.012 322.56L114.856 323.571L115.002 322.56L111.339 320.989L109.528 314.453L116.313 313.715L116.323 313.726ZM106.948 314.738L108.321 319.682L98.686 315.55L106.958 314.738H106.948Z" fill="white" fill-opacity="0.04"/>
<path d="M47.678 309.646L68.1665 318.448L68.6035 315.476L64.9408 313.905L63.1302 307.369L69.9146 306.631L70.3516 303.659L48.2087 305.957L47.6572 309.636L47.678 309.646ZM60.56 307.654L61.9232 312.598L52.2877 308.466L60.5496 307.654H60.56Z" fill="white" fill-opacity="0.04"/>
<path d="M75.3983 314.738L68.6035 315.476L68.1665 318.448L90.3094 316.15L90.8609 312.461L70.3621 303.669L69.925 306.642L73.5878 308.213L75.3983 314.748V314.738ZM86.2409 313.642L77.9789 314.453L76.6158 309.52L86.2409 313.652V313.642Z" fill="white" fill-opacity="0.04"/>
<path d="M21.7788 311.375L43.9217 309.077L44.4732 305.387L23.9743 296.585L23.5373 299.484L23.9639 296.585L1.82102 298.883L1.26953 302.573L21.7684 311.375H21.7788ZM39.8531 306.579L31.5912 307.39L30.228 302.446L39.8531 306.579ZM5.89998 301.403L14.1724 300.591L15.5355 305.535L5.89998 301.403ZM16.7529 300.307L23.5373 299.579L27.2 301.15L29.021 307.685L22.2262 308.423L18.5739 306.853L16.7633 300.317L16.7529 300.307Z" fill="white" fill-opacity="0.04"/>
<path d="M288.753 173.452L291.177 172.798L288.753 173.462L299.678 193.112L303.237 192.152L303.008 169.604L292.082 149.966L288.534 150.936L288.763 173.484L288.753 173.452ZM296.286 180.968L300.209 177.721L300.313 188.315L296.276 180.968H296.286ZM300.136 170.363L300.178 174.39L294.996 178.691L291.614 172.682L291.573 168.656L296.755 164.365L300.126 170.374L300.136 170.363ZM295.475 162.067L291.552 165.314L291.437 154.72L295.475 162.067Z" fill="white" fill-opacity="0.04"/>
<path d="M276.609 127.545L287.535 147.194L291.083 146.234L290.855 123.686L287.983 124.466L288.024 128.493L282.842 132.794L279.461 126.786L279.419 122.759L284.601 118.458L287.983 124.466L290.855 123.686L279.929 104.048L276.37 105.007L276.599 127.555L276.609 127.545ZM288.066 131.814L288.18 142.408L284.143 135.06L288.066 131.814ZM283.331 116.149L279.409 119.396L279.294 108.802L283.331 116.149Z" fill="white" fill-opacity="0.04"/>
<path d="M264.466 81.6368L275.392 101.286L278.94 100.316L278.711 77.7681L275.85 78.5482L275.891 82.575L270.71 86.8758L267.328 80.8673L267.286 76.8405L272.468 72.5502L275.85 78.5587L278.711 77.7787L267.786 58.1401L264.237 59.1099L264.466 81.6579V81.6368ZM275.923 85.9166L276.037 96.5106L272 89.1633L275.923 85.9166ZM271.178 70.2521L267.255 73.4989L267.14 62.9048L271.178 70.2521Z" fill="white" fill-opacity="0.04"/>
<path d="M252.323 35.7293L263.249 55.3784L266.807 54.4191L266.579 31.8711L266.485 31.9028L266.579 31.8817L255.653 12.2432L252.104 13.2024L252.333 35.7504L252.323 35.7293ZM259.857 43.2453L263.779 39.9985L263.884 50.5926L259.846 43.2453H259.857ZM263.707 32.6407L263.748 36.6675L258.566 40.9683L255.185 34.9598L255.143 30.933L260.325 26.6426L263.696 32.6512L263.707 32.6407ZM259.045 24.3446L255.122 27.5914L255.008 16.9973L259.045 24.3552V24.3446Z" fill="white" fill-opacity="0.04"/>
<path d="M258.722 186.228L243.145 170.121L239.961 171.987L245.944 193.702L261.521 209.82L264.705 207.954L258.722 186.228ZM243.749 174.896L249.524 180.937L246.558 185.1L243.749 174.896ZM248.514 192.195L247.442 188.315L251.355 182.813L256.152 187.736L257.224 191.615L253.311 197.128L248.514 192.205V192.195ZM255.143 198.983L258.108 194.819L260.918 205.023L255.143 198.983Z" fill="white" fill-opacity="0.04"/>
<path d="M232.698 146.572L235.269 145.064L219.692 128.957L216.497 130.823L222.48 152.549L238.057 168.656L241.241 166.79L235.258 145.064L232.688 146.572L233.76 150.451L229.847 155.964L225.05 151.041L223.979 147.162L227.891 141.649L232.688 146.572H232.698ZM234.655 153.666L237.464 163.87L231.689 157.83L234.655 153.666ZM223.115 143.947L220.295 133.743L226.07 139.783L223.105 143.947H223.115Z" fill="white" fill-opacity="0.04"/>
<path d="M199.026 111.385L214.603 127.492L217.787 125.626L211.804 103.9L209.234 105.408L210.306 109.287L206.393 114.8L201.586 109.877L200.525 105.998L204.437 100.495L209.234 105.418L211.804 103.911L196.227 87.8037L193.043 89.6695L199.026 111.385ZM211.19 112.513L214 122.717L208.225 116.676L211.19 112.513ZM202.606 98.6297L199.64 102.794L196.82 92.5895L202.595 98.6297H202.606Z" fill="white" fill-opacity="0.04"/>
<path d="M175.572 70.2204L191.149 86.3276L194.333 84.4618L188.35 62.7361L172.773 46.6289L169.589 48.4947L175.572 70.2204ZM190.546 81.5418L184.771 75.5016L187.736 71.3378L190.546 81.5418ZM185.78 64.2435L186.852 68.1227L182.939 73.6358L178.142 68.713L177.07 64.8338L180.983 59.3312L185.78 64.254V64.2435ZM179.152 57.4549L176.186 61.6187L173.366 51.4147L179.141 57.4654L179.152 57.4549Z" fill="white" fill-opacity="0.04"/>
<path d="M198.443 205.076L209.775 224.483L228.931 235.962L231.533 233.327L220.201 213.91L201.045 202.441L198.443 205.076ZM221.804 222.385L227.121 231.503L220.004 227.181L221.804 222.385ZM218.099 216.05L220.128 219.507L217.756 225.853L211.866 222.364L209.848 218.896L212.21 212.55L218.099 216.039V216.05ZM209.962 211.232L208.162 216.029L202.834 206.91L209.962 211.232Z" fill="white" fill-opacity="0.04"/>
<path d="M184.937 182.444L187.039 180.314L167.882 168.835L165.281 171.47L176.612 190.887L195.769 202.367L198.37 199.732L187.039 180.314L184.937 182.444L186.955 185.901L184.583 192.247L178.693 188.758L176.675 185.29L179.047 178.944L184.937 182.433V182.444ZM188.641 188.79L193.958 197.908L186.841 193.586L188.641 188.79ZM175.01 182.423L169.682 173.304L176.81 177.626L175.01 182.423Z" fill="white" fill-opacity="0.04"/>
<path d="M145.521 155.152L143.502 151.684L145.875 145.338L151.764 148.828L153.856 146.698L134.699 135.219L132.098 137.854L143.419 157.261L145.521 155.142V155.152ZM136.499 139.688L143.627 144.01L141.827 148.807L136.499 139.688Z" fill="white" fill-opacity="0.04"/>
<path d="M145.521 155.152L143.419 157.271L162.575 168.75L165.177 166.115L153.845 146.708L151.754 148.838L153.783 152.306L151.421 158.652L145.521 155.163V155.152ZM155.458 155.173L160.775 164.291L153.658 159.97L155.458 155.173Z" fill="white" fill-opacity="0.04"/>
<path d="M110.257 123.665L129.413 135.145L132.015 132.509L120.683 113.103L118.581 115.232L120.61 118.7L118.238 125.046L112.348 121.557L110.33 118.089L112.702 111.743L118.592 115.232L120.693 113.103L101.537 101.634L98.9355 104.269L110.257 123.686V123.665ZM122.285 121.567L127.613 130.686L120.496 126.364L122.296 121.567H122.285ZM103.327 106.082L110.454 110.404L108.654 115.2L103.327 106.082Z" fill="white" fill-opacity="0.04"/>
<path d="M166.8 247.937L182.7 263.717L184.188 261.114L181.347 258.299L182.013 251.553L188.6 253.376L191.441 256.191L190.775 262.937L184.188 261.114L182.71 263.717L204.146 269.779L205.987 266.553L190.088 250.773L168.652 244.711L166.811 247.937H166.8ZM193.792 258.531L201.263 265.942L193.282 263.633L193.792 258.531ZM179.505 250.857L178.996 255.959L171.524 248.548L179.505 250.857Z" fill="white" fill-opacity="0.04"/>
<path d="M126.167 224.177L142.066 239.957L143.544 237.354L140.703 234.539L141.369 227.793L147.956 229.616L150.796 232.431L150.13 239.188L143.544 237.364L142.066 239.968L163.501 246.029L165.343 242.804L149.444 227.023L128.008 220.962L126.167 224.188V224.177ZM153.158 234.771L160.63 242.182L152.648 239.873L153.158 234.771ZM138.872 227.097L138.362 232.21L130.891 224.799L138.882 227.108L138.872 227.097Z" fill="white" fill-opacity="0.04"/>
<path d="M85.5435 200.407L101.443 216.187L102.931 213.583L100.09 210.758L100.756 204.012L107.343 205.846L110.184 208.66L109.518 215.417L102.931 213.594L101.453 216.197L122.899 222.259L124.741 219.033L108.841 203.253L87.406 197.191L85.5747 200.417L85.5435 200.407ZM112.535 211.001L120.006 218.411L112.025 216.103L112.535 211.001ZM98.2486 203.316L97.7387 208.418L90.2676 201.007L98.2486 203.316Z" fill="white" fill-opacity="0.04"/>
<path d="M60.8098 192.416L82.2451 198.477L84.0869 195.251L68.1873 179.471L46.7519 173.41L44.9102 176.635L60.8098 192.416ZM71.8916 187.229L79.3628 194.64L71.3817 192.331L71.8916 187.229ZM57.1054 184.657L49.6343 177.247L57.6257 179.555L57.1158 184.657H57.1054ZM60.123 180.24L66.7097 182.064L69.5504 184.879L68.8844 191.625L62.2977 189.801L59.457 186.987L60.123 180.24Z" fill="white" fill-opacity="0.04"/>
<path d="M147.175 297.629L166.561 308.698L188.818 308.93L189.775 305.325L170.38 294.246L148.122 294.014L147.175 297.608V297.629ZM185.062 305.978L176.758 305.841L175.946 300.781L185.051 305.978H185.062ZM169.62 297.166L173.085 299.137L174.167 305.831L167.341 305.788L163.876 303.807L162.794 297.113L169.62 297.155V297.166ZM160.203 297.113L161.015 302.183L151.899 296.986L160.203 297.123V297.113Z" fill="white" fill-opacity="0.04"/>
<path d="M101.86 285.327L121.255 296.396L143.513 296.627L144.47 293.033L125.074 281.954L124.304 284.863L127.769 286.835L128.851 293.528L122.025 293.486L118.56 291.504L117.478 284.811L124.304 284.853L125.064 281.943L102.806 281.711L101.849 285.317L101.86 285.327ZM139.746 293.676L131.442 293.539L130.631 288.479L139.736 293.676H139.746ZM114.877 284.8L115.688 289.87L106.573 284.674L114.877 284.811V284.8Z" fill="white" fill-opacity="0.04"/>
<path d="M56.5433 273.026L75.9287 284.105L98.1861 284.337L99.133 280.731L79.7371 269.663L78.9775 272.562L82.4426 274.544L83.5247 281.237L76.6883 281.206L73.2233 279.224L72.1411 272.53L78.9671 272.572L79.7267 269.663L57.4694 269.431L56.5225 273.026H56.5433ZM94.4297 281.385L86.1261 281.248L85.3145 276.188L94.4193 281.385H94.4297ZM69.5606 272.509L70.3722 277.569L61.257 272.372L69.5606 272.509Z" fill="white" fill-opacity="0.04"/>
<path d="M30.6232 271.792L52.8806 272.024L53.8379 268.419L34.4421 257.351L33.6721 260.26L37.1371 262.242L38.2193 268.936L31.3932 268.893L27.9282 266.912L26.846 260.218L33.6721 260.26L34.4421 257.351L12.1847 257.119L11.2378 260.713L30.6232 271.792ZM49.1138 269.073L40.8102 268.936L39.9986 263.876L49.1138 269.073ZM15.9411 260.07L24.2447 260.207L25.0563 265.278L15.9411 260.081V260.07Z" fill="white" fill-opacity="0.04"/>
<path d="M184.042 347.036L162.482 341.428L140.922 347.036V350.768L162.482 356.376V353.372L158.632 352.37L155.875 346.193L162.472 344.443L166.322 345.444L169.079 351.632L162.472 353.382V356.386L184.032 350.778V347.047L184.042 347.036ZM145.313 348.902L153.367 346.857L155.448 351.537L145.313 348.902ZM171.597 350.947L169.516 346.267L179.641 348.902L171.587 350.947H171.597Z" fill="white" fill-opacity="0.04"/>
<path d="M94.0034 350.768L115.564 356.376L137.124 350.757V347.036L115.564 341.428V344.201V341.439L94.0138 347.047V350.778L94.0034 350.768ZM132.733 348.902L124.679 350.947L122.608 346.267L132.733 348.902ZM115.564 344.433L119.414 345.434L122.171 351.622L115.564 353.372L111.714 352.37L108.956 346.182L115.564 344.433ZM106.448 346.846L108.53 351.527L98.3945 348.892L106.448 346.846Z" fill="white" fill-opacity="0.04"/>
<path d="M47.0851 350.768L68.6453 356.376V353.372L64.7953 352.36L62.0378 346.182L68.6349 344.433V341.428L47.0747 347.036V350.757L47.0851 350.768ZM59.5301 346.857L61.6112 351.537L51.4762 348.902L59.5301 346.857Z" fill="white" fill-opacity="0.04"/>
<path d="M68.645 356.376L90.2052 350.768V347.036L68.645 341.428V344.433L72.4951 345.434L75.2525 351.622L68.645 353.382V356.386V356.376ZM85.8141 348.902L77.7602 350.947L75.6895 346.267L85.8141 348.902Z" fill="white" fill-opacity="0.04"/>
<path d="M21.737 356.376L43.2972 350.768V347.036L21.737 341.428V344.433L25.587 345.434L28.3444 351.611L21.737 353.361L17.8869 352.36L15.1295 346.182L21.7265 344.433V341.428L0.176758 347.047V350.768L21.737 356.386V356.376ZM38.906 348.902L30.8522 350.947L28.7815 346.267L38.906 348.902ZM4.56788 348.902L12.6217 346.857L14.7028 351.537L4.56788 348.902Z" fill="white" fill-opacity="0.04"/>
<path d="M307.15 269.062L291.573 252.955L288.389 254.821L294.372 276.536L304.267 286.772V286.919L309.803 292.643L309.897 292.591L309.949 292.643L313.133 290.777L307.15 269.052V269.062ZM297.951 263.781L294.986 267.945L292.166 257.741L297.941 263.781H297.951ZM296.942 275.039L295.87 271.16L299.783 265.647L304.267 270.243V270.39L304.434 270.559L305.506 274.438L304.267 276.188V276.399L301.739 279.951L296.942 275.029V275.039ZM306.432 277.812L309.137 287.657L303.57 281.838L306.432 277.822V277.812Z" fill="white" fill-opacity="0.04"/>
<path d="M299.439 301.023L288.108 281.617L268.951 270.137L266.35 272.773L277.681 292.179L296.838 303.659L299.439 301.023ZM270.751 274.596L277.879 278.918L276.079 283.714L270.751 274.596ZM279.773 290.05L277.754 286.582L280.126 280.236L286.016 283.736L288.035 287.204L285.662 293.55L279.773 290.06V290.05ZM287.91 294.878L289.71 290.081L295.027 299.2L287.91 294.878Z" fill="white" fill-opacity="0.04"/>
<path d="M272.926 298.725L251.49 292.664L249.648 295.89L265.548 311.67L286.983 317.731L288.825 314.506L272.926 298.725ZM261.844 303.912L254.373 296.501L262.364 298.81L261.854 303.912H261.844ZM273.612 310.89L267.026 309.056L264.185 306.241L264.851 299.484L271.438 301.318L274.278 304.133L273.612 310.89ZM276.12 311.586L276.63 306.473L284.101 313.894L276.12 311.586Z" fill="white" fill-opacity="0.04"/>
<path d="M262.624 319.239L240.367 319.007L239.42 322.601L258.805 333.67L281.063 333.912L282.02 330.307L262.624 319.239L261.854 322.148L265.319 324.119L266.401 330.813L259.575 330.771L256.11 328.8L255.028 322.106L261.854 322.148L262.624 319.249V319.239ZM277.296 330.961L268.992 330.824L268.181 325.753L277.296 330.961ZM244.123 321.948L252.427 322.085L253.238 327.155L244.123 321.958V321.948Z" fill="white" fill-opacity="0.04"/>
<path d="M236.361 347.363V351.084L257.922 356.692L279.482 351.084V347.353L257.922 341.745V344.19V341.755L236.361 347.363ZM240.752 349.229L248.806 347.184L250.887 351.864L240.752 349.229ZM275.091 349.229L267.037 351.274L264.956 346.594L275.08 349.229H275.091ZM257.922 344.759L261.772 345.761L264.529 351.949L257.922 353.699L254.071 352.697L251.314 346.509L257.922 344.759Z" fill="white" fill-opacity="0.04"/>
<path d="M282.176 227.392L266.599 211.285L263.415 213.151L269.398 234.866L271.968 233.369L270.897 229.49L274.809 223.977L279.606 228.889L280.678 232.768L276.765 238.282L271.968 233.369L269.398 234.866L284.975 250.973L288.159 249.108L282.176 227.392ZM270.023 226.275L267.203 216.071L272.978 222.111L270.012 226.275H270.023ZM278.607 240.158L281.573 235.994L284.382 246.198L278.607 240.158Z" fill="white" fill-opacity="0.04"/>
<path d="M245.393 246.166L251.282 249.655L253.384 247.537L234.228 236.057L231.626 238.692L242.958 258.099L262.115 269.579L264.716 266.943L253.384 247.537L251.282 249.655L253.312 253.124L250.939 259.469L245.05 255.98L243.031 252.512L245.403 246.166H245.393ZM254.976 256.001L260.294 265.12L253.176 260.798L254.976 256.001ZM241.345 249.634L236.018 240.516L243.145 244.838L241.345 249.634Z" fill="white" fill-opacity="0.04"/>
<path d="M229.223 277.137L232.064 279.951L231.398 286.708L224.811 284.885L221.97 282.07L222.636 275.324L229.223 277.147L230.7 274.544L209.265 268.482L207.423 271.708L223.323 287.488L244.758 293.55L246.6 290.324L230.7 274.544L229.223 277.147V277.137ZM219.619 279.72L212.147 272.309L220.139 274.617L219.629 279.72H219.619ZM234.415 282.292L241.886 289.702L233.905 287.394L234.415 282.292Z" fill="white" fill-opacity="0.04"/>
<path d="M234.145 321.231L235.102 317.637L215.706 306.568L193.449 306.336L192.502 309.942L211.887 321.01L234.145 321.242V321.231ZM230.378 318.28L222.074 318.143L221.263 313.083L230.368 318.28H230.378ZM197.205 309.277L205.509 309.414L206.32 314.485L197.205 309.288V309.277ZM209.192 316.119L208.11 309.425L214.936 309.467L218.401 311.438L219.483 318.132L212.657 318.101L209.192 316.119Z" fill="white" fill-opacity="0.04"/>
<path d="M187.84 350.768L209.401 356.376L230.961 350.768V347.036L209.401 341.428L187.84 347.036V350.757V350.768ZM226.57 348.902L218.516 350.947L216.445 346.267L226.57 348.902ZM209.401 344.433L213.251 345.434L216.008 351.622L209.401 353.372L205.55 352.37L202.793 346.182L209.39 344.433H209.401ZM200.285 346.846L202.356 351.527L192.221 348.892L200.275 346.836L200.285 346.846Z" fill="white" fill-opacity="0.04"/>
<path d="M280.002 519.63L283.186 497.314L279.783 495.88L266.381 513.885L269.118 515.045L273.259 509.542L277.827 514.496L277.255 518.481L273.124 523.984L268.545 519.029L269.107 515.045L266.371 513.885L263.187 536.201L266.579 537.635L279.981 519.63H280.002ZM274.841 507.444L279.804 500.698L278.306 511.186L274.841 507.444ZM268.088 522.329L271.553 526.071L266.589 532.817L268.088 522.329Z" fill="white" fill-opacity="0.04"/>
<path d="M259.222 562.344L255.091 567.846L250.513 562.892L251.085 558.907L255.227 553.404L259.805 558.359L259.233 562.344L261.969 563.503L265.153 541.187L261.761 539.753L248.359 557.758L245.175 580.074L248.577 581.508L261.98 563.514L259.243 562.354L259.222 562.344ZM261.751 544.571L260.252 555.059L256.787 551.317L261.751 544.581V544.571ZM248.546 576.68L250.045 566.191L253.51 569.933L248.546 576.68Z" fill="white" fill-opacity="0.04"/>
<path d="M237.037 611.708L232.459 606.754L233.021 602.769L230.284 601.61L227.11 623.926L230.503 625.36L243.905 607.365L241.168 606.206L237.037 611.708ZM230.492 620.542L231.991 610.053L235.456 613.796L230.492 620.542Z" fill="white" fill-opacity="0.04"/>
<path d="M230.294 601.621L233.031 602.78L237.172 597.278L241.751 602.232L241.179 606.217L243.915 607.376L247.099 585.06L243.707 583.626L230.305 601.631L230.294 601.621ZM242.209 598.922L238.744 595.18L243.707 588.433L242.209 598.911V598.922Z" fill="white" fill-opacity="0.04"/>
<path d="M212.241 645.483L209.057 667.799L212.449 669.233L225.852 651.228L223.115 650.069L218.984 655.571L214.406 650.617L214.967 646.632L219.109 641.13L223.677 646.084L223.105 650.069L225.852 651.228L229.036 628.912L225.633 627.479L212.231 645.483H212.241ZM217.413 657.669L212.449 664.415L213.948 653.927L217.413 657.669ZM224.166 642.785L220.701 639.042L225.664 632.296L224.166 642.774V642.785Z" fill="white" fill-opacity="0.04"/>
<path d="M236.559 496.323L244.769 475.356L241.793 473.164L224.634 487.521L227.027 489.292L232.313 484.917L235.622 490.81L234.155 494.552L234.696 494.953L234.145 494.552L228.859 498.937L225.55 493.045L227.017 489.302L224.624 487.531L216.414 508.488L219.39 510.68L236.559 496.323ZM234.321 483.252L240.69 477.854L236.829 487.7L234.311 483.252H234.321ZM224.343 496.144L226.861 500.603L220.493 505.989L224.353 496.144H224.343Z" fill="white" fill-opacity="0.04"/>
<path d="M217.163 513.79L214.187 511.597L197.028 525.954L188.818 546.911L191.794 549.103L208.953 534.746L217.163 513.779V513.79ZM213.094 516.288L209.234 526.134L206.716 521.675L213.084 516.288H213.094ZM192.887 544.423L196.747 534.567L199.265 539.026L192.887 544.423ZM206.56 532.986L201.274 537.371L197.954 531.478L199.422 527.736L204.708 523.361L208.027 529.254L206.56 532.996V532.986Z" fill="white" fill-opacity="0.04"/>
<path d="M179.297 571.662L181.347 573.18L189.557 552.213L186.581 550.021L169.422 564.378L171.816 566.149L177.102 561.774L180.411 567.667L178.943 571.409L173.657 575.794L170.338 569.901L171.805 566.159L169.412 564.388L161.212 585.355L164.188 587.548L181.347 573.19L179.297 571.672V571.662ZM179.12 560.109L185.488 554.722L181.628 564.568L179.11 560.119L179.12 560.109ZM165.291 582.846L169.152 573.001L171.66 577.46L165.291 582.857V582.846Z" fill="white" fill-opacity="0.04"/>
<path d="M141.816 602.822L133.606 623.778L136.582 625.971L153.741 611.613L151.337 609.842L146.062 614.228L142.742 608.335L144.21 604.593L143.356 603.96L144.22 604.593L149.506 600.208L152.815 606.1L151.348 609.842L153.751 611.613L161.961 590.647L158.985 588.454L141.827 602.811L141.816 602.822ZM144.054 615.893L137.675 621.29L141.535 611.434L144.054 615.893ZM154.022 603.001L151.504 598.553L157.872 593.156L154.012 603.001H154.022Z" fill="white" fill-opacity="0.04"/>
<path d="M202.637 462.854L216.455 445.176L214.228 442.204L193.709 450.953L195.498 453.346L201.804 450.689L203.303 457.299L200.836 460.451L194.531 463.107L193.032 456.498L195.498 453.346L193.709 450.953L179.89 468.631L182.117 471.603L202.637 462.854ZM211.845 446.378L205.352 454.685L204.208 449.688L211.835 446.378H211.845ZM190.993 459.112L192.137 464.109L184.5 467.408L190.993 459.101V459.112Z" fill="white" fill-opacity="0.04"/>
<path d="M165.281 491.611L163.481 489.218L157.175 491.874L155.676 485.265L158.143 482.113L164.448 479.457L165.947 486.066L163.481 489.218L165.27 491.611L179.089 473.933L176.862 470.96L156.342 479.71L142.524 497.388L144.751 500.36L165.27 491.621L165.281 491.611ZM174.49 475.135L167.997 483.441L166.852 478.445L174.479 475.145L174.49 475.135ZM153.637 487.869L154.782 492.876L147.144 496.186L153.637 487.879V487.869Z" fill="white" fill-opacity="0.04"/>
<path d="M127.925 520.368L126.136 517.975L119.83 520.631L118.331 514.022L120.798 510.86L119.008 508.467L105.2 526.145L107.426 529.107L127.936 520.368H127.925ZM116.292 516.636L117.437 521.633L109.799 524.943L116.292 516.636Z" fill="white" fill-opacity="0.04"/>
<path d="M141.743 502.679L139.517 499.707L118.997 508.456L120.787 510.849L127.093 508.203L128.591 514.812L126.125 517.964L127.915 520.357L141.733 502.679H141.743ZM137.134 503.881L130.641 512.187L129.496 507.191L137.134 503.881Z" fill="white" fill-opacity="0.04"/>
<path d="M90.5697 549.114L104.388 531.436L102.161 528.463L81.6417 537.213L67.8232 554.891L70.05 557.863L90.5697 549.114L88.7695 546.721L82.4742 549.377L80.9758 542.768L83.4419 539.616L89.7476 536.96L91.246 543.569L88.7799 546.721L90.5801 549.114H90.5697ZM72.4329 553.689L78.9259 545.382L80.0705 550.379L72.4329 553.689ZM99.7785 532.638L93.2855 540.944L92.1409 535.948L99.7785 532.638Z" fill="white" fill-opacity="0.04"/>
<path d="M174.115 427.003L192.044 413.626L190.67 410.168L168.611 413.141L169.724 415.924L176.498 415.049L176.228 421.827L173.023 424.21L166.249 425.095L166.519 418.317L169.714 415.924L168.6 413.141L150.682 426.518L152.056 429.976L174.126 427.003H174.115ZM179.058 414.722L187.278 413.573L178.86 419.856L179.058 414.733V414.722ZM163.855 420.299L163.658 425.432L155.437 426.581L163.855 420.299Z" fill="white" fill-opacity="0.04"/>
<path d="M129.496 441.993L130.61 444.786L148.528 431.409L147.154 427.952L125.084 430.924L107.166 444.291L108.55 447.748L130.61 444.786L129.507 441.993L122.733 442.878L123.003 436.1L126.208 433.718L132.982 432.843L132.712 439.621L129.517 442.003L129.496 441.993ZM120.142 443.205L111.911 444.354L120.339 438.071L120.142 443.205ZM135.542 432.495L143.762 431.346L135.344 437.629L135.542 432.495Z" fill="white" fill-opacity="0.04"/>
<path d="M87.094 462.559L85.991 459.766L79.217 460.651L79.4876 453.873L82.6821 451.48L89.456 450.605L89.1855 457.383L85.9806 459.766L87.0836 462.559L105.012 449.182L103.639 445.725L81.5687 448.697L82.0577 449.92L81.5687 448.687L63.6504 462.064L65.0239 465.521L87.0836 462.559H87.094ZM92.0366 450.278L100.257 449.119L91.8389 455.402L92.0366 450.278ZM76.8342 455.855L76.6365 460.978L68.4057 462.137L76.8342 455.855Z" fill="white" fill-opacity="0.04"/>
<path d="M35.7116 478.434L35.9822 471.656L39.1767 469.263L38.0633 466.47L20.145 479.847L21.5185 483.304L43.5782 480.332L42.4648 477.549L35.7012 478.434H35.7116ZM33.1311 478.761L24.9003 479.91L33.3288 473.627L33.1311 478.761Z" fill="white" fill-opacity="0.04"/>
<path d="M60.1334 463.508L38.0737 466.48L39.1767 469.263L45.9507 468.378L45.6802 475.156L42.4753 477.538L43.5886 480.332L61.5173 466.955L60.1334 463.497V463.508ZM48.3336 473.185L48.5313 468.061L56.7516 466.912L48.3336 473.195V473.185Z" fill="white" fill-opacity="0.04"/>
<path d="M160.11 365.758L159.673 362.785L139.184 371.587L139.725 375.277L161.868 377.575L182.367 368.773L181.815 365.083L159.673 362.785L160.11 365.758L166.894 366.496L165.083 373.031L161.421 374.602L161.473 374.939L161.421 374.591L154.636 373.854L156.457 367.318L160.11 365.747V365.758ZM169.485 366.78L177.747 367.581L168.122 371.714L169.485 366.77V366.78ZM152.056 373.579L143.794 372.768L153.429 368.636L152.066 373.579H152.056Z" fill="white" fill-opacity="0.04"/>
<path d="M115.033 381.665L108.248 380.927L110.059 374.391L113.722 372.821L120.516 373.558L118.695 380.084L115.033 381.654L115.47 384.627L135.969 375.825L135.417 372.135L113.274 369.837L92.7754 378.629L93.3269 382.318L115.47 384.616L115.033 381.644V381.665ZM123.097 373.854L131.359 374.665L121.734 378.798L123.097 373.854ZM105.668 380.653L97.3954 379.841L107.031 375.709L105.668 380.653Z" fill="white" fill-opacity="0.04"/>
<path d="M46.939 389.423L69.0715 391.721L68.6345 388.748L61.8501 388.01L63.6607 381.475L67.3234 379.904L74.1182 380.642L72.3076 387.178L68.6449 388.748L69.0819 391.721L89.5808 382.93L89.0293 379.24L66.8864 376.953L46.3979 385.755L46.9494 389.434L46.939 389.423ZM76.6988 380.937L84.9607 381.749L75.3356 385.881L76.6988 380.937ZM60.6327 382.793L59.2696 387.736L51.0076 386.925L60.6431 382.793H60.6327Z" fill="white" fill-opacity="0.04"/>
<path d="M22.6944 398.794L43.1932 389.992L42.6417 386.303L20.4988 384.005L0 392.807L0.551492 396.496L22.6944 398.794ZM30.3112 388.011L38.5732 388.822L28.9481 392.954L30.3112 388.011ZM12.882 394.81L4.60964 393.998L14.2451 389.866L12.882 394.81ZM17.2731 388.559L20.9255 386.988L27.7203 387.726L25.8993 394.262L22.2366 395.832L15.4522 395.094L17.2627 388.559H17.2731Z" fill="white" fill-opacity="0.04"/>
<path d="M301.729 525.807L301.958 503.259L298.399 502.3L287.473 521.949L290.335 522.729L293.716 516.72L298.898 521.021L298.857 525.048L295.485 531.057L290.303 526.766L290.345 522.739L287.473 521.959L287.244 544.507L290.792 545.477L301.718 525.828L301.729 525.807ZM290.158 540.67L290.272 530.076L294.195 533.323L290.158 540.67ZM295.017 514.422L299.054 507.075L298.95 517.669L295.027 514.422H295.017Z" fill="white" fill-opacity="0.04"/>
<path d="M275.33 567.835L275.101 590.383L278.659 591.342L289.585 571.704L289.814 549.156L286.266 548.197L275.34 567.846L275.33 567.835ZM278.014 586.578L278.129 575.984L282.062 579.23L278.025 586.578H278.014ZM286.713 570.934L283.331 576.943L278.149 572.653L278.191 568.626L281.573 562.617L286.755 566.918L286.713 570.945V570.934ZM286.786 563.566L282.863 560.319L286.9 552.972L286.796 563.566H286.786Z" fill="white" fill-opacity="0.04"/>
<path d="M263.186 613.743L266.047 614.523L269.429 608.515L274.611 612.816L274.57 616.842L271.188 622.851L266.006 618.561L266.047 614.534L263.186 613.754L262.957 636.302L266.505 637.272L277.431 617.633L277.66 595.085L274.101 594.115L263.176 613.764L263.186 613.743ZM265.871 632.486L265.985 621.892L269.908 625.138L265.871 632.486ZM274.642 609.474L270.72 606.227L274.757 598.88L274.642 609.474Z" fill="white" fill-opacity="0.04"/>
<path d="M251.043 659.65L250.814 682.198L254.363 683.168L265.289 663.529L265.517 640.982L261.959 640.012L251.033 659.661L251.043 659.65ZM253.728 678.393L253.842 667.799L257.765 671.045L253.728 678.403V678.393ZM259.056 668.758L253.874 664.468L253.915 660.441L257.297 654.432L262.479 658.733L262.437 662.76L259.066 668.769L259.056 668.758ZM262.51 655.381L258.587 652.134L262.625 644.787L262.521 655.381H262.51Z" fill="white" fill-opacity="0.04"/>
<path d="M257.443 509.152L263.426 487.426L260.242 485.56L244.665 501.667L238.682 523.382L241.866 525.248L257.443 509.141V509.152ZM259.638 490.346L256.829 500.55L253.863 496.386L259.638 490.346ZM247.235 503.175L252.032 498.252L255.944 503.765L254.873 507.644L250.076 512.556L246.163 507.054L247.225 503.175H247.235ZM245.279 510.269L248.244 514.433L242.469 520.473L245.279 510.269Z" fill="white" fill-opacity="0.04"/>
<path d="M233.989 550.316L239.972 528.59L236.788 526.724L221.211 542.831L215.228 564.547L218.412 566.412L233.989 550.305L231.418 548.798L226.622 553.721L222.709 548.207L223.781 544.328L228.578 539.405L232.49 544.919L231.418 548.798L233.989 550.305V550.316ZM224.79 555.597L219.015 561.637L221.835 551.433L224.801 555.597H224.79ZM230.409 537.55L236.184 531.51L233.375 541.714L230.409 537.55Z" fill="white" fill-opacity="0.04"/>
<path d="M207.954 589.972L203.157 594.895L199.245 589.392L200.306 585.513L205.113 580.59L209.026 586.103L207.954 589.983L210.524 591.49L216.507 569.764L213.323 567.898L197.746 584.006L191.763 605.721L194.947 607.587L210.524 591.479L207.954 589.972ZM212.72 572.674L209.91 582.878L206.945 578.714L212.72 572.674ZM195.551 602.801L198.371 592.597L201.336 596.761L195.561 602.801H195.551Z" fill="white" fill-opacity="0.04"/>
<path d="M174.292 625.159L168.309 646.874L171.493 648.74L187.07 632.633L193.053 610.907L189.869 609.042L174.292 625.149V625.159ZM172.097 643.965L174.917 633.761L177.882 637.925L172.107 643.965H172.097ZM184.5 631.136L179.703 636.048L175.791 630.546L176.862 626.667L181.659 621.744L185.572 627.257L184.5 631.136ZM186.456 624.042L183.491 619.878L189.266 613.838L186.456 624.042Z" fill="white" fill-opacity="0.04"/>
<path d="M218.921 481.459L230.253 462.053L227.652 459.417L208.495 470.897L197.164 490.304L199.765 492.939L218.921 481.459ZM225.841 463.876L220.524 472.995L218.724 468.198L225.841 463.876ZM210.587 473.016L216.476 469.527L218.849 475.873L216.82 479.33L210.93 482.819L208.568 476.473L210.587 473.005V473.016ZM206.893 479.351L208.693 484.147L201.565 488.469L206.893 479.351Z" fill="white" fill-opacity="0.04"/>
<path d="M197.08 495.659L194.479 493.023L175.322 504.503L163.991 523.91L166.592 526.545L185.749 515.065L197.08 495.648V495.659ZM192.679 497.493L187.361 506.611L185.561 501.815L192.679 497.493ZM168.392 522.096L173.72 512.978L175.52 517.775L168.392 522.096ZM183.657 512.957L177.768 516.446L175.395 510.1L177.414 506.632L183.314 503.143L185.676 509.489L183.657 512.957Z" fill="white" fill-opacity="0.04"/>
<path d="M150.484 546.552L144.595 550.041L142.222 543.696L144.241 540.227L150.141 536.738L152.513 543.084L150.484 546.552L152.576 548.682L163.907 529.275L161.306 526.64L142.139 538.119L130.818 557.526L133.419 560.161L152.576 548.682L150.484 546.552ZM159.506 531.088L154.189 540.206L152.388 535.41L159.506 531.088ZM135.219 555.692L140.547 546.573L142.347 551.37L135.219 555.692Z" fill="white" fill-opacity="0.04"/>
<path d="M108.977 571.715L97.645 591.121L100.246 593.756L119.403 582.277L117.301 580.148L111.411 583.637L109.039 577.291L111.058 573.823L116.947 570.323L119.32 576.669L117.291 580.137L119.393 582.266L130.724 562.849L128.123 560.214L108.966 571.693L108.977 571.715ZM109.174 584.976L102.047 589.297L107.374 580.179L109.174 584.976ZM121.005 573.812L119.205 569.016L126.323 564.694L120.995 573.812H121.005Z" fill="white" fill-opacity="0.04"/>
<path d="M188.798 444.617L204.697 428.837L202.855 425.611L181.42 431.673L165.521 447.453L167.362 450.679L188.798 444.617ZM199.984 429.448L192.512 436.859L192.003 431.757L199.984 429.448ZM182.908 434.276L189.495 432.453L190.161 439.199L187.32 442.014L180.744 443.837L180.078 437.091L182.918 434.276H182.908ZM177.716 439.431L178.226 444.544L170.245 446.852L177.716 439.442V439.431Z" fill="white" fill-opacity="0.04"/>
<path d="M148.164 468.378L164.063 452.597L162.222 449.372L140.786 455.433L124.887 471.213L126.728 474.439L148.164 468.378ZM159.339 453.209L151.868 460.619L151.358 455.517L159.339 453.209ZM129.6 470.602L137.072 463.191L137.581 468.304L129.59 470.612L129.6 470.602ZM139.423 460.851L142.264 458.037L148.851 456.213L149.517 462.97L146.676 465.784L140.089 467.608L139.423 460.862V460.851Z" fill="white" fill-opacity="0.04"/>
<path d="M107.531 492.149L106.053 489.545L99.4664 491.379L98.8005 484.633L101.641 481.818L108.228 479.995L108.894 486.741L106.053 489.556L107.531 492.159L123.43 476.379L121.589 473.153L100.143 479.215L84.2432 494.995L86.0745 498.221L107.51 492.159L107.531 492.149ZM118.717 476.98L111.245 484.39L110.736 479.288L118.717 476.98ZM96.4488 486.962L96.9587 492.064L88.9777 494.373L96.4592 486.962H96.4488Z" fill="white" fill-opacity="0.04"/>
<path d="M66.9075 515.909L82.8071 500.128L80.9653 496.903L59.53 502.964L43.6304 518.744L45.4721 521.97L66.9075 515.909L65.4195 513.305L58.8328 515.139L58.1669 508.393L61.0076 505.578L67.5942 503.744L68.2602 510.491L65.4195 513.305L66.9075 515.909ZM48.3441 518.133L55.8152 510.723L56.3251 515.825L48.3337 518.133H48.3441ZM78.083 500.74L70.6118 508.15L70.102 503.048L78.083 500.74Z" fill="white" fill-opacity="0.04"/>
<path d="M169.1 401.124L188.496 390.056L187.538 386.451L165.281 386.683L145.896 397.751L146.842 401.356L169.1 401.124ZM175.478 389.539L183.782 389.402L174.677 394.599L175.489 389.539H175.478ZM158.913 398.278L150.609 398.415L159.724 393.218L158.913 398.289V398.278ZM161.514 398.268L162.596 391.574L166.061 389.592L172.887 389.55L171.805 396.244L168.34 398.215L161.514 398.257V398.268Z" fill="white" fill-opacity="0.04"/>
<path d="M123.784 413.426L123.024 410.517L116.198 410.559L117.28 403.865L120.745 401.883L127.571 401.841L126.489 408.535L123.024 410.517L123.794 413.426L143.19 402.358L142.233 398.752L119.975 398.984L100.58 410.053L101.537 413.658L123.794 413.426H123.784ZM130.162 401.841L138.466 401.704L129.361 406.901L130.173 401.831L130.162 401.841ZM114.408 405.509L113.597 410.58L105.293 410.717L114.408 405.52V405.509Z" fill="white" fill-opacity="0.04"/>
<path d="M78.4678 425.727L77.7082 422.829L70.8822 422.871L71.9644 416.177L75.4294 414.195L74.6594 411.296L55.2739 422.375L56.2208 425.97L78.4782 425.738L78.4678 425.727ZM69.0924 417.811L68.2808 422.871L59.9772 423.008L69.0924 417.811Z" fill="white" fill-opacity="0.04"/>
<path d="M77.7083 422.818L78.4783 425.717L97.8742 414.649L96.9273 411.043L74.6699 411.275L75.4399 414.174L82.2659 414.143L81.1838 420.836L77.7187 422.808L77.7083 422.818ZM84.8465 414.132L93.1501 413.995L84.0453 419.192L84.8569 414.132H84.8465Z" fill="white" fill-opacity="0.04"/>
<path d="M32.4547 435.373L33.1623 438.029L52.5581 426.961L51.6112 423.355L29.3539 423.587L9.95801 434.656L10.9153 438.25L33.1727 438.018L32.4651 435.362L32.4547 435.373ZM39.5304 426.444L47.834 426.307L38.7188 431.504L39.5304 426.444ZM26.6484 428.479L30.1135 426.497L36.9395 426.455L35.8573 433.148L32.3923 435.13L25.5663 435.172L26.6484 428.479ZM22.9753 435.183L14.6717 435.32L23.7869 430.123L22.9753 435.183Z" fill="white" fill-opacity="0.04"/>
<path d="M308.607 402.8L308.513 402.748L304.257 407.154V407.312L293.082 418.865L287.099 440.58L290.283 442.446L305.86 426.339L311.843 404.624L308.659 402.758L308.607 402.811V402.8ZM307.847 407.744L305.142 417.59L302.28 413.574L307.847 407.744ZM290.886 437.66L293.706 427.456L296.672 431.62L290.897 437.66H290.886ZM304.257 425.39L303.29 424.821L298.493 429.744L294.58 424.231L295.652 420.352L300.449 415.429L304.257 420.784V421.321L303.29 424.811L304.257 425.369V425.39Z" fill="white" fill-opacity="0.04"/>
<path d="M295.558 391.731L276.401 403.211L265.08 422.618L267.681 425.253L286.838 413.773L298.17 394.367L295.568 391.731H295.558ZM269.471 420.794L274.799 411.676L276.599 416.472L269.471 420.794ZM278.847 415.144L276.474 408.798L278.503 405.34L284.393 401.841L286.765 408.187L284.736 411.655L278.847 415.154V415.144ZM288.44 405.309L286.64 400.512L293.758 396.19L288.44 405.309Z" fill="white" fill-opacity="0.04"/>
<path d="M271.635 396.665L287.535 380.885L285.693 377.659L264.247 383.72L248.348 399.501L250.189 402.727L271.625 396.665L270.147 394.062L263.56 395.896L262.895 389.139L265.735 386.324L272.322 384.49L272.988 391.247L270.147 394.062L271.625 396.665H271.635ZM253.072 398.889L260.543 391.479L261.053 396.591L253.061 398.9L253.072 398.889ZM282.811 381.486L275.34 388.907L274.83 383.794L282.811 381.486Z" fill="white" fill-opacity="0.04"/>
<path d="M280.74 365.072L279.793 361.467L257.536 361.699L238.15 372.768L239.097 376.362L261.355 376.13L280.751 365.062L280.74 365.072ZM267.723 364.556L276.016 364.419L266.901 369.626L267.712 364.556H267.723ZM251.157 373.295L242.854 373.432L251.969 368.235L251.157 373.305V373.295ZM260.585 373.242L253.759 373.284L254.841 366.59L258.306 364.619L265.132 364.577L264.05 371.271L260.585 373.253V373.242Z" fill="white" fill-opacity="0.04"/>
<path d="M283.696 444.407L268.119 460.514L262.136 482.229L265.32 484.095L280.897 467.988L286.88 446.273L283.696 444.407ZM265.923 479.32L268.733 469.116L271.698 473.28L265.923 479.32ZM278.327 466.491L273.53 471.403L269.617 465.901L270.689 462.021L275.486 457.109L279.398 462.622L278.327 466.501V466.491ZM280.283 459.397L277.317 455.233L283.092 449.193L280.283 459.397Z" fill="white" fill-opacity="0.04"/>
<path d="M252.094 447.854L263.426 428.447L260.824 425.812L241.668 437.292L243.218 438.862L241.657 437.281L230.326 456.688L232.927 459.323L252.084 447.843L249.982 445.725L244.092 449.214L241.72 442.868L243.738 439.4L249.628 435.911L252 442.257L249.971 445.725L252.063 447.854H252.094ZM241.865 450.553L234.738 454.874L240.065 445.756L241.865 450.553ZM251.896 434.593L259.014 430.271L253.696 439.389L251.896 434.593Z" fill="white" fill-opacity="0.04"/>
<path d="M229.421 420.847L245.32 405.066L243.478 401.841L222.043 407.902L206.144 423.682L207.985 426.908L229.421 420.847ZM240.596 405.678L233.125 413.088L232.615 407.986L240.596 405.678ZM223.521 410.506L223.094 409.747L223.521 410.495L230.107 408.672L230.773 415.418L227.933 418.233L221.346 420.056L220.68 413.31L223.521 410.495V410.506ZM218.328 415.661L218.838 420.773L210.847 423.082L218.318 415.671L218.328 415.661Z" fill="white" fill-opacity="0.04"/>
<path d="M214.416 388.822L233.812 377.754L232.854 374.159L210.597 374.391L191.211 385.46L192.158 389.054L214.416 388.822ZM220.794 377.237L229.098 377.1L219.993 382.297L220.805 377.237H220.794ZM207.912 379.261L211.377 377.279L218.203 377.248L217.121 383.942L213.656 385.913L206.83 385.955L207.912 379.261ZM205.04 380.906L204.229 385.976L195.925 386.113L205.04 380.916V380.906Z" fill="white" fill-opacity="0.04"/>
<path d="M269.367 173.062L269.835 176.361L276.433 169.235L274.872 167.106L269.367 173.062Z" fill="white" fill-opacity="0.04"/>
<path d="M274.081 190.16L279.586 184.204L279.118 180.894L272.521 188.031L274.081 190.16Z" fill="white" fill-opacity="0.04"/>
<path d="M258.379 125.362L256.818 123.233L251.324 129.199L251.792 132.499L258.379 125.362Z" fill="white" fill-opacity="0.04"/>
<path d="M261.074 137.032L254.477 144.158L256.037 146.287L261.542 140.331L261.074 137.032Z" fill="white" fill-opacity="0.04"/>
<path d="M240.336 81.4998L238.765 79.3599L233.271 85.3263L233.739 88.6257L240.336 81.4998Z" fill="white" fill-opacity="0.04"/>
<path d="M237.985 102.414L243.489 96.4687L243.021 93.1587L236.424 100.285L237.985 102.414Z" fill="white" fill-opacity="0.04"/>
<path d="M222.282 37.6269L220.722 35.4976L215.228 41.4534L215.696 44.7529L222.282 37.6269Z" fill="white" fill-opacity="0.04"/>
<path d="M219.941 58.5515L225.435 52.5956L224.967 49.2856L218.38 56.4221L219.941 58.5515Z" fill="white" fill-opacity="0.04"/>
<path d="M226.84 202.346L231.616 193.86L229.608 192.152L225.623 199.247L226.84 202.346Z" fill="white" fill-opacity="0.04"/>
<path d="M236.902 204.57L232.126 213.056L234.134 214.764L238.12 207.68L236.902 204.57Z" fill="white" fill-opacity="0.04"/>
<path d="M204.01 155.426L202.002 153.729L198.027 160.813L199.234 163.912L204.01 155.426Z" fill="white" fill-opacity="0.04"/>
<path d="M210.514 169.246L209.296 166.136L204.52 174.633L206.528 176.33L210.514 169.246Z" fill="white" fill-opacity="0.04"/>
<path d="M176.405 117.003L174.396 115.295L170.421 122.379L171.628 125.489L176.405 117.003Z" fill="white" fill-opacity="0.04"/>
<path d="M181.701 127.713L176.914 136.199L178.922 137.907L182.908 130.823L181.701 127.713Z" fill="white" fill-opacity="0.04"/>
<path d="M148.809 78.5695L146.801 76.8618L142.815 83.9561L144.033 87.0553L148.809 78.5695Z" fill="white" fill-opacity="0.04"/>
<path d="M155.302 92.389L154.095 89.2793L149.309 97.7756L151.317 99.4728L155.302 92.389Z" fill="white" fill-opacity="0.04"/>
<path d="M192.283 236.257L194.323 238.872L196.487 229.353L194.083 228.309L192.283 236.257Z" fill="white" fill-opacity="0.04"/>
<path d="M204.832 248.643L206.643 240.695L204.593 238.07L202.429 247.6L204.832 248.643Z" fill="white" fill-opacity="0.04"/>
<path d="M156.967 210.125L159.132 200.607L156.728 199.563L154.928 207.511L156.967 210.125Z" fill="white" fill-opacity="0.04"/>
<path d="M169.287 211.938L167.237 209.324L165.073 218.843L167.476 219.887L169.287 211.938Z" fill="white" fill-opacity="0.04"/>
<path d="M119.362 170.806L117.572 178.754L119.611 181.379L121.776 171.86L119.362 170.806Z" fill="white" fill-opacity="0.04"/>
<path d="M131.921 183.192L129.882 180.567L127.717 190.097L130.121 191.14L131.921 183.192Z" fill="white" fill-opacity="0.04"/>
<path d="M84.4196 143.104L82.0056 142.06L80.2158 150.008L82.2553 152.622L84.4196 143.104Z" fill="white" fill-opacity="0.04"/>
<path d="M90.3613 161.34L92.765 162.394L94.5652 154.436L92.5257 151.821L90.3613 161.34Z" fill="white" fill-opacity="0.04"/>
<path d="M167.788 277.073L167.403 267.312L164.812 266.933L165.135 275.092L167.788 277.073Z" fill="white" fill-opacity="0.04"/>
<path d="M177.487 273.553L177.872 283.325L180.463 283.694L180.14 275.535L177.487 273.553Z" fill="white" fill-opacity="0.04"/>
<path d="M121.63 257.309L124.283 259.29L123.898 249.529L121.297 249.16L121.63 257.309Z" fill="white" fill-opacity="0.04"/>
<path d="M133.981 255.78L134.366 265.541L136.957 265.91L136.635 257.762L133.981 255.78Z" fill="white" fill-opacity="0.04"/>
<path d="M80.7675 241.507L80.3825 231.746L77.7915 231.377L78.1245 239.525L80.7675 241.507Z" fill="white" fill-opacity="0.04"/>
<path d="M90.4756 237.997L90.8502 247.758L93.4516 248.127L93.129 239.978L90.4756 237.997Z" fill="white" fill-opacity="0.04"/>
<path d="M37.2621 223.723L36.8771 213.962L34.2861 213.593L34.6087 221.752L37.2621 223.723Z" fill="white" fill-opacity="0.04"/>
<path d="M46.96 220.213L47.345 229.975L49.9463 230.344L49.6134 222.195L46.96 220.213Z" fill="white" fill-opacity="0.04"/>
<path d="M157.737 328.051L155.125 318.648L152.514 318.901L154.699 326.755L157.737 328.051Z" fill="white" fill-opacity="0.04"/>
<path d="M168.975 331.762L171.587 331.509L169.402 323.666L166.363 322.359L168.975 331.762Z" fill="white" fill-opacity="0.04"/>
<path d="M111.339 320.978L108.737 311.575L106.125 311.828L108.311 319.671L111.339 320.978Z" fill="white" fill-opacity="0.04"/>
<path d="M119.976 315.286L122.577 324.689L125.189 324.436L123.004 316.582L119.976 315.286Z" fill="white" fill-opacity="0.04"/>
<path d="M59.7275 304.755L61.9231 312.598L64.9511 313.905L62.3393 304.502L59.7275 304.755Z" fill="white" fill-opacity="0.04"/>
<path d="M78.8007 317.362L76.6156 309.52L73.5771 308.212L76.1889 317.615L78.8007 317.362Z" fill="white" fill-opacity="0.04"/>
<path d="M13.3398 297.671L15.525 305.524L18.553 306.832L15.9516 297.429L13.3398 297.671Z" fill="white" fill-opacity="0.04"/>
<path d="M27.1895 301.129L29.8012 310.542L32.4026 310.289L30.2175 302.436L27.1895 301.129Z" fill="white" fill-opacity="0.04"/>
<path d="M286.901 116.56L285.631 114.241L279.398 119.406L279.43 122.738L286.901 116.56Z" fill="white" fill-opacity="0.04"/>
<path d="M281.833 136.979L288.066 131.814L288.035 128.483L280.563 134.66L281.833 136.979Z" fill="white" fill-opacity="0.04"/>
<path d="M274.758 70.6529L273.488 68.3232L267.266 73.499L267.297 76.8301L274.758 70.6529Z" fill="white" fill-opacity="0.04"/>
<path d="M269.69 91.0715L275.923 85.9168L275.891 82.5752L268.431 88.7524L269.69 91.0715Z" fill="white" fill-opacity="0.04"/>
<path d="M262.614 24.7452L261.345 22.4155L255.122 27.5913L255.153 30.9224L262.614 24.7452Z" fill="white" fill-opacity="0.04"/>
<path d="M257.557 45.1638L263.779 39.9985L263.748 36.6675L256.287 42.8447L257.557 45.1638Z" fill="white" fill-opacity="0.04"/>
<path d="M253.083 180.399L251.262 178.48L246.559 185.111L247.443 188.326L253.083 180.399Z" fill="white" fill-opacity="0.04"/>
<path d="M258.109 194.83L257.224 191.615L251.595 199.542L253.405 201.45L258.109 194.83Z" fill="white" fill-opacity="0.04"/>
<path d="M223.989 147.162L229.618 139.235L227.808 137.327L223.104 143.947L223.989 147.162Z" fill="white" fill-opacity="0.04"/>
<path d="M234.655 153.666L233.77 150.451L228.13 158.378L229.951 160.286L234.655 153.666Z" fill="white" fill-opacity="0.04"/>
<path d="M206.164 98.0711L204.343 96.1631L199.65 102.794L200.535 105.998L206.164 98.0711Z" fill="white" fill-opacity="0.04"/>
<path d="M206.497 119.133L211.19 112.513L210.306 109.287L204.676 117.225L206.497 119.133Z" fill="white" fill-opacity="0.04"/>
<path d="M182.71 56.9173L180.889 55.0093L176.196 61.6292L177.07 64.8444L182.71 56.9173Z" fill="white" fill-opacity="0.04"/>
<path d="M183.033 77.9684L187.736 71.3484L186.852 68.1333L181.212 76.0604L183.033 77.9684Z" fill="white" fill-opacity="0.04"/>
<path d="M213.261 209.767L211.023 208.396L208.172 216.028L209.848 218.896L213.261 209.767Z" fill="white" fill-opacity="0.04"/>
<path d="M220.128 219.507L216.715 228.647L218.963 230.017L221.804 222.385L220.128 219.507Z" fill="white" fill-opacity="0.04"/>
<path d="M180.088 176.161L177.84 174.791L175 182.423L176.675 185.29L180.088 176.161Z" fill="white" fill-opacity="0.04"/>
<path d="M183.542 195.041L185.79 196.411L188.631 188.779L186.955 185.901L183.542 195.041Z" fill="white" fill-opacity="0.04"/>
<path d="M146.915 142.555L144.668 141.185L141.827 148.817L143.502 151.684L146.915 142.555Z" fill="white" fill-opacity="0.04"/>
<path d="M150.37 161.435L152.607 162.805L155.458 155.173L153.783 152.295L150.37 161.435Z" fill="white" fill-opacity="0.04"/>
<path d="M113.743 108.939L111.495 107.579L108.654 115.211L110.33 118.078L113.743 108.939Z" fill="white" fill-opacity="0.04"/>
<path d="M122.286 121.568L120.61 118.69L117.197 127.829L119.434 129.2L122.286 121.568Z" fill="white" fill-opacity="0.04"/>
<path d="M179.786 247.842L178.996 255.959L181.347 258.289L182.305 248.57L179.786 247.842Z" fill="white" fill-opacity="0.04"/>
<path d="M193.782 258.521L191.43 256.191L190.462 265.91L192.981 266.637L193.782 258.521Z" fill="white" fill-opacity="0.04"/>
<path d="M141.681 224.809L139.163 224.082L138.362 232.188L140.713 234.529L141.681 224.809Z" fill="white" fill-opacity="0.04"/>
<path d="M149.839 242.15L152.357 242.877L153.159 234.761L150.807 232.42L149.839 242.15Z" fill="white" fill-opacity="0.04"/>
<path d="M97.7285 208.428L100.08 210.769L101.048 201.049L98.5297 200.312L97.7285 208.428Z" fill="white" fill-opacity="0.04"/>
<path d="M109.206 218.379L111.724 219.117L112.525 211L110.173 208.66L109.206 218.379Z" fill="white" fill-opacity="0.04"/>
<path d="M60.4144 177.279L57.8963 176.551L57.1055 184.668L59.4571 186.998L60.4144 177.279Z" fill="white" fill-opacity="0.04"/>
<path d="M71.8915 187.24L69.5398 184.9L68.5825 194.619L71.0902 195.346L71.8915 187.24Z" fill="white" fill-opacity="0.04"/>
<path d="M163.866 303.817L162.315 294.172L159.704 294.129L161.004 302.172L163.866 303.817Z" fill="white" fill-opacity="0.04"/>
<path d="M174.636 308.782L177.247 308.835L175.947 300.781L173.075 299.137L174.636 308.782Z" fill="white" fill-opacity="0.04"/>
<path d="M118.56 291.515L116.999 281.88L114.388 281.828L115.688 289.871L118.56 291.515Z" fill="white" fill-opacity="0.04"/>
<path d="M127.759 286.835L129.309 296.48L131.931 296.533L130.631 288.479L127.759 286.835Z" fill="white" fill-opacity="0.04"/>
<path d="M69.0718 269.526L70.3725 277.579L73.234 279.213L71.694 269.579L69.0718 269.526Z" fill="white" fill-opacity="0.04"/>
<path d="M82.4531 274.533L83.9931 284.179L86.6153 284.231L85.3146 276.178L82.4531 274.533Z" fill="white" fill-opacity="0.04"/>
<path d="M27.9181 266.912L26.3676 257.277L23.7559 257.224L25.0565 265.278L27.9181 266.912Z" fill="white" fill-opacity="0.04"/>
<path d="M37.127 262.242L38.6878 271.877L41.2996 271.929L39.9989 263.876L37.127 262.242Z" fill="white" fill-opacity="0.04"/>
<path d="M154.667 343.463L152.128 344.106L155.437 351.538L158.621 352.37L154.667 343.463Z" fill="white" fill-opacity="0.04"/>
<path d="M166.321 345.434L170.286 354.342L172.825 353.709L169.516 346.267L166.321 345.434Z" fill="white" fill-opacity="0.04"/>
<path d="M111.713 352.37L107.749 343.463L105.21 344.106L108.529 351.538L111.713 352.37Z" fill="white" fill-opacity="0.04"/>
<path d="M119.414 345.434L123.378 354.352L125.917 353.709L122.608 346.267L119.414 345.434Z" fill="white" fill-opacity="0.04"/>
<path d="M58.2915 344.106L61.6109 351.538L64.7949 352.37L60.8409 343.463L58.2915 344.106Z" fill="white" fill-opacity="0.04"/>
<path d="M72.4951 345.434L76.4596 354.342L78.9986 353.709L75.6896 346.277L72.4951 345.434Z" fill="white" fill-opacity="0.04"/>
<path d="M11.373 344.106L14.6924 351.538L17.8869 352.37L13.9224 343.463L11.373 344.106Z" fill="white" fill-opacity="0.04"/>
<path d="M25.5869 345.445L29.541 354.352L32.0799 353.709L28.771 346.278L25.5869 345.445Z" fill="white" fill-opacity="0.04"/>
<path d="M278.92 276.083L276.079 283.714L277.744 286.592L281.167 277.453L278.92 276.083Z" fill="white" fill-opacity="0.04"/>
<path d="M284.611 296.333L286.859 297.703L289.71 290.071L288.035 287.193L284.611 296.333Z" fill="white" fill-opacity="0.04"/>
<path d="M261.834 303.912L264.186 306.252L265.153 296.533L262.635 295.795L261.834 303.912Z" fill="white" fill-opacity="0.04"/>
<path d="M273.311 313.863L275.829 314.59L276.63 306.484L274.278 304.144L273.311 313.863Z" fill="white" fill-opacity="0.04"/>
<path d="M251.938 319.102L253.249 327.156L256.11 328.8L254.56 319.155L251.938 319.102Z" fill="white" fill-opacity="0.04"/>
<path d="M269.492 333.807L268.191 325.754L265.319 324.12L266.87 333.754L269.492 333.807Z" fill="white" fill-opacity="0.04"/>
<path d="M250.887 351.854L254.071 352.697L250.117 343.79L247.567 344.422L250.887 351.854Z" fill="white" fill-opacity="0.04"/>
<path d="M261.771 345.75L265.736 354.668L268.275 354.025L264.966 346.594L261.771 345.75Z" fill="white" fill-opacity="0.04"/>
<path d="M274.715 219.644L270.022 226.275L270.907 229.49L276.536 221.552L274.715 219.644Z" fill="white" fill-opacity="0.04"/>
<path d="M280.678 232.768L275.049 240.706L276.87 242.614L281.563 235.994L280.678 232.768Z" fill="white" fill-opacity="0.04"/>
<path d="M243.02 252.512L246.433 243.373L244.196 242.002L241.345 249.634L243.02 252.512Z" fill="white" fill-opacity="0.04"/>
<path d="M252.135 263.622L254.976 255.991L253.311 253.113L249.888 262.252L252.135 263.622Z" fill="white" fill-opacity="0.04"/>
<path d="M220.42 271.603L219.619 279.719L221.97 282.06L222.938 272.34L220.42 271.603Z" fill="white" fill-opacity="0.04"/>
<path d="M234.415 282.291L232.063 279.951L231.096 289.67L233.614 290.408L234.415 282.291Z" fill="white" fill-opacity="0.04"/>
<path d="M207.642 306.473L205.02 306.431L206.32 314.474L209.192 316.119L207.642 306.473Z" fill="white" fill-opacity="0.04"/>
<path d="M221.263 313.083L218.391 311.438L219.941 321.084L222.563 321.126L221.263 313.083Z" fill="white" fill-opacity="0.04"/>
<path d="M199.037 344.106L202.356 351.538L205.54 352.37L201.586 343.463L199.037 344.106Z" fill="white" fill-opacity="0.04"/>
<path d="M219.743 353.709L216.434 346.277L213.24 345.434L217.204 354.352L219.743 353.709Z" fill="white" fill-opacity="0.04"/>
<path d="M268.087 522.318L273.591 528.284L275.152 526.145L268.555 519.019L268.087 522.318Z" fill="white" fill-opacity="0.04"/>
<path d="M272.801 505.22L271.24 507.36L277.837 514.486L278.306 511.186L272.801 505.22Z" fill="white" fill-opacity="0.04"/>
<path d="M257.099 570.018L250.512 562.892L250.044 566.191L255.538 572.147L257.099 570.018Z" fill="white" fill-opacity="0.04"/>
<path d="M260.263 555.049L254.758 549.093L253.197 551.222L259.784 558.359L260.263 555.049Z" fill="white" fill-opacity="0.04"/>
<path d="M231.991 610.064L237.485 616.02L239.056 613.89L232.459 606.754L231.991 610.064Z" fill="white" fill-opacity="0.04"/>
<path d="M235.144 595.095L241.741 602.221L242.209 598.922L236.704 592.966L235.144 595.095Z" fill="white" fill-opacity="0.04"/>
<path d="M213.947 653.926L219.441 659.893L221.002 657.753L214.416 650.627L213.947 653.926Z" fill="white" fill-opacity="0.04"/>
<path d="M217.101 638.958L223.687 646.094L224.156 642.795L218.661 636.829L217.101 638.958Z" fill="white" fill-opacity="0.04"/>
<path d="M224.343 496.144L228.328 503.228L230.336 501.531L225.56 493.034L224.343 496.144Z" fill="white" fill-opacity="0.04"/>
<path d="M236.84 487.711L232.844 480.616L230.846 482.324L235.622 490.81L236.84 487.711Z" fill="white" fill-opacity="0.04"/>
<path d="M202.73 539.954L197.954 531.468L196.747 534.567L200.722 541.661L202.73 539.954Z" fill="white" fill-opacity="0.04"/>
<path d="M209.234 526.134L205.248 519.05L203.24 520.757L208.016 529.243L209.234 526.134Z" fill="white" fill-opacity="0.04"/>
<path d="M170.349 569.901L169.142 573.001L173.116 580.095L175.125 578.387L170.349 569.901Z" fill="white" fill-opacity="0.04"/>
<path d="M181.628 564.568L177.643 557.484L175.634 559.181L180.421 567.677L181.628 564.568Z" fill="white" fill-opacity="0.04"/>
<path d="M141.536 611.435L145.521 618.518L147.529 616.811L142.743 608.335L141.536 611.435Z" fill="white" fill-opacity="0.04"/>
<path d="M148.029 597.615L152.815 606.101L154.022 603.002L150.037 595.907L148.029 597.615Z" fill="white" fill-opacity="0.04"/>
<path d="M191.003 459.123L192.804 467.071L195.207 466.027L193.043 456.508L191.003 459.123Z" fill="white" fill-opacity="0.04"/>
<path d="M205.363 454.695L203.553 446.736L201.149 447.79L203.313 457.309L205.363 454.695Z" fill="white" fill-opacity="0.04"/>
<path d="M153.647 487.879L155.448 495.827L157.851 494.773L155.687 485.254L153.647 487.879Z" fill="white" fill-opacity="0.04"/>
<path d="M163.793 476.537L165.957 486.066L167.997 483.441L166.197 475.493L163.793 476.537Z" fill="white" fill-opacity="0.04"/>
<path d="M118.082 524.574L120.496 523.53L118.331 514.011L116.292 516.625L118.082 524.574Z" fill="white" fill-opacity="0.04"/>
<path d="M126.437 505.293L128.601 514.812L130.641 512.187L128.841 504.239L126.437 505.293Z" fill="white" fill-opacity="0.04"/>
<path d="M78.9258 545.382L80.7259 553.33L83.14 552.276L80.9757 542.757L78.9258 545.382Z" fill="white" fill-opacity="0.04"/>
<path d="M89.0815 534.04L91.2459 543.559L93.2854 540.944L91.4852 532.996L89.0815 534.04Z" fill="white" fill-opacity="0.04"/>
<path d="M166.509 418.317L163.855 420.299L163.522 428.447L166.124 428.078L166.509 418.317Z" fill="white" fill-opacity="0.04"/>
<path d="M176.592 412.066L176.207 421.828L178.86 419.846L179.183 411.697L176.592 412.066Z" fill="white" fill-opacity="0.04"/>
<path d="M120.017 446.22L122.618 445.851L122.993 436.09L120.35 438.072L120.017 446.22Z" fill="white" fill-opacity="0.04"/>
<path d="M132.701 439.611L135.355 437.629L135.677 429.48L133.086 429.839L132.701 439.611Z" fill="white" fill-opacity="0.04"/>
<path d="M79.4877 453.873L76.8447 455.855L76.5117 464.003L79.1027 463.634L79.4877 453.873Z" fill="white" fill-opacity="0.04"/>
<path d="M92.1718 447.253L89.5704 447.622L89.1958 457.394L91.8388 455.401L92.1718 447.253Z" fill="white" fill-opacity="0.04"/>
<path d="M33.0063 481.787L35.5973 481.418L35.9823 471.656L33.3289 473.638L33.0063 481.787Z" fill="white" fill-opacity="0.04"/>
<path d="M45.6802 475.166L48.3336 473.185L48.6561 465.036L46.0652 465.405L45.6802 475.166Z" fill="white" fill-opacity="0.04"/>
<path d="M156.457 367.329L153.419 368.636L151.233 376.489L153.845 376.732L156.457 367.329Z" fill="white" fill-opacity="0.04"/>
<path d="M167.695 363.618L165.083 373.021L168.122 371.724L170.307 363.871L167.695 363.618Z" fill="white" fill-opacity="0.04"/>
<path d="M110.059 374.402L107.031 375.709L104.846 383.562L107.457 383.805L110.059 374.402Z" fill="white" fill-opacity="0.04"/>
<path d="M118.695 380.094L121.723 378.797L123.908 370.944L121.297 370.691L118.695 380.094Z" fill="white" fill-opacity="0.04"/>
<path d="M58.4478 390.636L61.0595 390.878L63.6713 381.475L60.6329 382.782L58.4478 390.636Z" fill="white" fill-opacity="0.04"/>
<path d="M74.9091 377.765L72.2974 387.178L75.3358 385.871L77.5105 378.018L74.9091 377.765Z" fill="white" fill-opacity="0.04"/>
<path d="M12.0601 397.708L14.6718 397.961L17.2732 388.559L14.2452 389.855L12.0601 397.708Z" fill="white" fill-opacity="0.04"/>
<path d="M25.9097 394.251L28.9377 392.944L31.1228 385.091L28.5214 384.838L25.9097 394.251Z" fill="white" fill-opacity="0.04"/>
<path d="M297.764 532.923L290.293 526.735L290.262 530.076L296.495 535.242L297.764 532.923Z" fill="white" fill-opacity="0.04"/>
<path d="M278.118 575.984L284.351 581.149L285.621 578.819L278.149 572.642L278.118 575.984Z" fill="white" fill-opacity="0.04"/>
<path d="M279.283 560.72L286.754 566.908L286.786 563.566L280.553 558.401L279.283 560.72Z" fill="white" fill-opacity="0.04"/>
<path d="M265.985 621.891L272.208 627.057L273.477 624.738L266.006 618.55L265.985 621.891Z" fill="white" fill-opacity="0.04"/>
<path d="M267.15 606.628L274.611 612.815L274.642 609.474L268.409 604.309L267.15 606.628Z" fill="white" fill-opacity="0.04"/>
<path d="M253.832 667.799L260.065 672.964L261.334 670.645L253.874 664.458L253.832 667.799Z" fill="white" fill-opacity="0.04"/>
<path d="M255.008 652.535L262.469 658.723L262.5 655.381L256.277 650.216L255.008 652.535Z" fill="white" fill-opacity="0.04"/>
<path d="M246.163 507.064L245.278 510.269L249.982 516.9L251.803 514.992L246.163 507.064Z" fill="white" fill-opacity="0.04"/>
<path d="M256.829 500.561L252.126 493.93L250.305 495.838L255.944 503.776L256.829 500.561Z" fill="white" fill-opacity="0.04"/>
<path d="M221.824 551.433L226.517 558.063L228.338 556.145L222.709 548.218L221.824 551.433Z" fill="white" fill-opacity="0.04"/>
<path d="M233.374 541.714L228.671 535.094L226.85 537.002L232.49 544.929L233.374 541.714Z" fill="white" fill-opacity="0.04"/>
<path d="M198.371 592.597L203.063 599.217L204.884 597.309L199.255 589.382L198.371 592.597Z" fill="white" fill-opacity="0.04"/>
<path d="M203.396 578.166L209.026 586.093L209.91 582.878L205.217 576.248L203.396 578.166Z" fill="white" fill-opacity="0.04"/>
<path d="M174.917 633.75L179.609 640.381L181.43 638.473L175.791 630.546L174.917 633.75Z" fill="white" fill-opacity="0.04"/>
<path d="M179.932 619.319L185.572 627.257L186.456 624.031L181.753 617.411L179.932 619.319Z" fill="white" fill-opacity="0.04"/>
<path d="M206.893 479.362L209.733 486.994L211.981 485.623L208.568 476.484L206.893 479.362Z" fill="white" fill-opacity="0.04"/>
<path d="M218.849 475.873L220.524 472.995L217.683 465.363L215.436 466.733L218.849 475.873Z" fill="white" fill-opacity="0.04"/>
<path d="M178.808 519.229L175.395 510.09L173.72 512.968L176.56 520.589L178.808 519.229Z" fill="white" fill-opacity="0.04"/>
<path d="M182.263 500.339L185.676 509.479L187.351 506.601L184.5 498.979L182.263 500.339Z" fill="white" fill-opacity="0.04"/>
<path d="M145.635 552.835L142.222 543.696L140.547 546.574L143.388 554.206L145.635 552.835Z" fill="white" fill-opacity="0.04"/>
<path d="M149.09 533.945L152.503 543.084L154.178 540.206L151.327 532.585L149.09 533.945Z" fill="white" fill-opacity="0.04"/>
<path d="M107.375 580.18L110.215 587.811L112.463 586.441L109.05 577.302L107.375 580.18Z" fill="white" fill-opacity="0.04"/>
<path d="M115.917 567.551L119.33 576.69L121.006 573.812L118.155 566.191L115.917 567.551Z" fill="white" fill-opacity="0.04"/>
<path d="M181.024 446.81L180.057 437.091L177.705 439.431L178.506 447.548L181.024 446.81Z" fill="white" fill-opacity="0.04"/>
<path d="M191.701 428.742L189.183 429.47L190.15 439.199L192.502 436.859L191.701 428.742Z" fill="white" fill-opacity="0.04"/>
<path d="M137.082 463.192L137.883 471.309L140.401 470.571L139.434 460.852L137.082 463.192Z" fill="white" fill-opacity="0.04"/>
<path d="M149.517 462.959L151.879 460.619L151.078 452.502L148.56 453.24L149.517 462.959Z" fill="white" fill-opacity="0.04"/>
<path d="M96.4487 486.952L97.25 495.069L99.7681 494.341L98.8004 484.622L96.4487 486.952Z" fill="white" fill-opacity="0.04"/>
<path d="M108.893 486.72L111.245 484.38L110.444 476.273L107.926 477.001L108.893 486.72Z" fill="white" fill-opacity="0.04"/>
<path d="M55.8257 510.723L56.6165 518.839L59.1346 518.101L58.1773 508.382L55.8257 510.723Z" fill="white" fill-opacity="0.04"/>
<path d="M67.2925 500.761L68.2602 510.491L70.6118 508.151L69.8106 500.034L67.2925 500.761Z" fill="white" fill-opacity="0.04"/>
<path d="M158.424 401.261L161.036 401.208L162.586 391.563L159.725 393.207L158.424 401.261Z" fill="white" fill-opacity="0.04"/>
<path d="M175.968 386.556L173.345 386.598L171.795 396.243L174.667 394.599L175.968 386.556Z" fill="white" fill-opacity="0.04"/>
<path d="M114.409 405.509L113.108 413.552L115.72 413.51L117.27 403.865L114.409 405.509Z" fill="white" fill-opacity="0.04"/>
<path d="M126.479 408.545L129.351 406.9L130.652 398.857L128.029 398.9L126.479 408.545Z" fill="white" fill-opacity="0.04"/>
<path d="M67.792 425.854L70.4142 425.812L71.9542 416.167L69.0927 417.811L67.792 425.854Z" fill="white" fill-opacity="0.04"/>
<path d="M81.1631 420.847L84.035 419.202L85.3357 411.159L82.7135 411.201L81.1631 420.847Z" fill="white" fill-opacity="0.04"/>
<path d="M22.4761 438.156L25.0879 438.114L26.6383 428.468L23.7768 430.113L22.4761 438.156Z" fill="white" fill-opacity="0.04"/>
<path d="M35.8472 433.148L38.7191 431.504L40.0198 423.461L37.3976 423.503L35.8472 433.148Z" fill="white" fill-opacity="0.04"/>
<path d="M279.887 417.927L276.463 408.798L274.788 411.676L277.639 419.298L279.887 417.927Z" fill="white" fill-opacity="0.04"/>
<path d="M283.331 399.047L286.754 408.186L288.43 405.309L285.579 397.677L283.331 399.047Z" fill="white" fill-opacity="0.04"/>
<path d="M260.554 391.468L261.355 399.585L263.873 398.858L262.905 389.139L260.554 391.468Z" fill="white" fill-opacity="0.04"/>
<path d="M272.031 381.517L272.999 391.247L275.351 388.906L274.549 380.79L272.031 381.517Z" fill="white" fill-opacity="0.04"/>
<path d="M250.658 376.278L253.28 376.225L254.831 366.59L251.959 368.224L250.658 376.278Z" fill="white" fill-opacity="0.04"/>
<path d="M268.213 361.583L265.59 361.626L264.04 371.271L266.912 369.627L268.213 361.583Z" fill="white" fill-opacity="0.04"/>
<path d="M268.743 469.115L273.436 475.735L275.257 473.827L269.628 465.9L268.743 469.115Z" fill="white" fill-opacity="0.04"/>
<path d="M280.282 459.396L275.579 452.776L273.769 454.684L279.398 462.611L280.282 459.396Z" fill="white" fill-opacity="0.04"/>
<path d="M240.065 445.746L242.906 453.378L245.154 452.018L241.741 442.878L240.065 445.746Z" fill="white" fill-opacity="0.04"/>
<path d="M253.697 439.389L250.856 431.757L248.608 433.128L252.021 442.267L253.697 439.389Z" fill="white" fill-opacity="0.04"/>
<path d="M220.691 413.32L218.339 415.66L219.14 423.777L221.658 423.05L220.691 413.32Z" fill="white" fill-opacity="0.04"/>
<path d="M230.784 415.439L233.135 413.088L232.334 404.982L229.816 405.709L230.784 415.439Z" fill="white" fill-opacity="0.04"/>
<path d="M205.04 380.906L203.74 388.959L206.352 388.907L207.912 379.261L205.04 380.906Z" fill="white" fill-opacity="0.04"/>
<path d="M221.283 374.254L218.661 374.296L217.111 383.941L219.983 382.297L221.283 374.254Z" fill="white" fill-opacity="0.04"/>
</g>
<defs>
<clipPath id="clip0_434_11359">
<rect width="684.266" height="694" fill="white" transform="translate(0 0.689941)"/>
</clipPath>
</defs>
</svg>
