<svg id="enIrR5ESuk01" xmlns="http://www.w3.org/2000/svg" xmlns:xlink="http://www.w3.org/1999/xlink" viewBox="0 0 381 201" shape-rendering="geometricPrecision" text-rendering="geometricPrecision"><g clip-path="url(#enIrR5ESuk057)"><g><path d="M240.61,188.23c0,0-.08,0-.12-.02L128.53,145.15c-.12-.05-.2-.15-.22-.28-.01-.13.05-.25.15-.32l57.7-37.03c.08-.05.18-.07.28-.04L322.51,147.1c.13.04.23.16.24.29.01.14-.06.27-.19.33L240.75,188.2c0,0-.1.04-.15.04l.01-.01ZM129.4,144.76l111.2,42.77l80.9-40.03-135.09-39.33-57.01,36.59Z" fill="#fff"/><path d="M245.16,200.08c-3.41,0-6.75-.63-9.94-1.88L125.96,155.48c-.16-.06-.25-.23-.21-.4l2.58-10.33c.04-.18.23-.29.41-.25.18.05.29.23.25.41l-2.51,10.05l108.99,42.61c3.46,1.35,7.08,1.96,10.8,1.81l52.31-2.12c3.71-.15,7.32-1.29,10.45-3.3l54.49-35.08c1.95-1.26,2.85-3.69,2.18-5.91l-3.02-10.08c-.48-1.61-2.08-2.59-3.75-2.26l-36.42,7.13c-.19.04-.36-.08-.4-.27-.04-.18.08-.36.27-.4l36.42-7.13c1.99-.39,3.94.78,4.52,2.73l3.02,10.08c.75,2.51-.26,5.25-2.46,6.67l-54.49,35.08c-3.22,2.08-6.95,3.25-10.78,3.41l-52.31,2.12c-.38.02-.75.02-1.13.02l-.01.01Z" fill="#fff"/><path d="M354.07,146.52c.67-.15,1.05.75.46,1.11-12.29,7.4-55.72,33.5-57.93,34.24-2.02.67-22.93,2.41-31.9,3.12-.87.07-1.19-1.11-.41-1.5l60.95-30.47l28.84-6.49-.01-.01Z" fill="#102337"/><path d="M264.62,185.33c-.51,0-.94-.32-1.08-.82-.15-.54.09-1.07.59-1.32l60.95-30.47L354,146.2c.47-.1.92.13,1.09.57s.02.91-.39,1.16c-13.04,7.85-55.77,33.52-58,34.27-2.06.69-23.05,2.43-31.98,3.14-.03,0-.07,0-.1,0v-.01Zm89.52-38.48l-28.84,6.49-60.87,30.45c-.25.12-.29.36-.24.53s.18.34.47.33c18.54-1.49,30.44-2.65,31.82-3.11c1.72-.57,31.02-18.05,57.86-34.2.18-.11.13-.28.11-.32-.02-.05-.1-.22-.32-.17h.01Z" fill="#fff"/><path d="M16.7,142.25c0,0,60.28,8.61,75.79,6.89c15.5-1.72,49.95,16.36,52.53,6.89s-37.89-24.97-37.89-24.97s52.53,21.53,55.98,14.64c3.44-6.89-38.75-34.45-38.75-34.45s39.62,33.59,46.5,25.84c5.97-6.72-21.71-36.74-29.18-44.61-.35-.36.09-.92.54-.69l41.56,21.19c0,0,33.59,32.73,38.75,25.84c5.17-6.89-33.59-42.2-33.59-42.2s-37.03-27.13-54.26-25.41c-16.01,1.6-45.64,31.43-50.81,31.43s-39.62-6.03-39.62-6.03-43.06003,32.73-27.56,45.64h.01Z" fill="#102337"/><path d="M139.67,159.11c-4.91,0-12.4-2.19-20.22-4.48-9.93-2.91-20.19-5.91-26.93-5.16-15.36,1.71-75.27-6.8-75.87-6.89-.06,0-.12-.04-.17-.08-2.38-1.98-3.55-4.55-3.49-7.63.34-15.03,29.8-37.59,31.05-38.55.08-.06.17-.08.26-.06.34.06,34.48,6.02,39.56,6.02c1.84,0,7.52-4.44,14.1-9.59c11.24-8.79,26.63-20.84,36.68-21.84c17.13-1.72,52.97,24.36,54.49,25.47.12.11,9.83,8.97,18.78,18.56c12.13,13,17.13,21.11,14.88,24.12-.48.64-1.19,1-2.11,1.07-.11,0-.23.01-.34.01-9.02,0-35.19-25.31-36.77-26.85L142.05,92.06c-.08-.04-.13,0-.15.03-.05.07,0,.11,0,.13c3.52,3.71,12.48,13.35,19.66,22.77c8.99,11.8,12.2,19.3,9.53,22.3-2.42,2.72-8.54.68-15.6-3.23c6.3,5.72,8.95,9.66,7.9,11.77-2.34,4.69-24.59-2.47-40.57-8.34c11.2,5.39,24.05,12.94,22.5,18.61-.26.97-.85,1.72-1.75,2.22-.98.55-2.31.78-3.93.78l.03.01ZM94.76,148.68c6.76,0,15.96,2.69,24.89,5.31c10.24,3,19.91,5.83,23.62,3.75.74-.41,1.21-1,1.42-1.8c2.01-7.38-23.91-18.91-33.88-23.03-1.82-.72-3.14-1.26-3.82-1.54-.17-.07-.25-.27-.19-.44.07-.17.26-.26.44-.19.31.12,1.93.74,4.34,1.74c16.64,6.57,48.74,18.01,51.22,13.06c1.16-2.32-3.61-7.49-10.37-13.24-12.82-7.72-27.32-19.96-28.31-20.79-.14-.12-.16-.32-.05-.46s.31-.18.46-.08c.11.07,10.68,6.99,20.69,14.66c2.94,2.26,5.54,4.34,7.78,6.26c7.95,4.81,15.1,7.79,17.6,4.98c4.54-5.11-12.09-26.16-29.17-44.15-.27-.28-.29-.69-.06-1c.24-.32.65-.41,1-.23l41.56,21.19c0,0,.06.04.08.06.28.27,27.5,26.69,36.31,26.69.11,0,.21,0,.31-.01.73-.06,1.26-.32,1.62-.81c1.97-2.63-3.29-10.89-14.83-23.25-8.93-9.57-18.62-18.41-18.71-18.5-.34-.25-37.07-27.01-54-25.32-9.86.99-25.16,12.96-36.33,21.7-7.22,5.65-12.44,9.73-14.51,9.73-5.02,0-36.76-5.52-39.53-6.01-2.06,1.59-30.35,23.69-30.67,37.94-.06,2.83,1,5.19,3.17,7.03c2.73.39,60.6,8.54,75.6,6.88.73-.08,1.5-.12,2.31-.12l.01-.01Zm35.46-33.09c4.56,3.63,11.31,8.8,18.03,13.26-5.91-4.72-12.6-9.53-18.03-13.26Z" fill="#fff"/><path d="M287.98,155.93c0,0-.06,0-.1-.01l-14.64-4.31c-.14-.04-.24-.16-.24-.31s.08-.28.21-.33l19.38-7.75c.06-.02.13-.03.2-.02L307,146.21c.14.03.25.15.27.29s-.06.28-.19.35l-18.95,9.04c0,0-.1.03-.15.03v.01Zm-13.61-4.69l13.58,3.99l17.93-8.56-13.13-2.79-18.38,7.35v.01Z" fill="#b81734"/><path d="M238.89,181.34c0,0-.09,0-.14-.03l-11.63-5.17c-.12-.05-.2-.17-.2-.31c0-.13.08-.25.2-.31l19.81-9.04c.08-.04.16-.04.25-.01c13.06,4.23,12.99,4.7,12.93,5.05-.02.16-.14.34-.55.34-1.52,0-13.1,5.64-20.51,9.44-.05.02-.1.04-.15.04h-.01Zm-10.8-5.51l10.79,4.8c2.3-1.17,16.31-8.29,20.01-9.31-1.94-.87-7.88-2.89-11.8-4.16l-19,8.68v-.01Z" fill="#b81734"/><path d="M230.28,147.84l10.12-4.3l11.19,3.87-9.9,4.53-11.41-4.1Z" fill="#102337"/><path d="M241.69,152.27c0,0-.08,0-.11-.02l-11.41-4.09c-.13-.05-.22-.17-.22-.31s.08-.27.21-.32l10.12-4.31c.08-.03.17-.04.24,0l11.2,3.88c.13.05.22.17.23.3s-.07.27-.2.32l-9.9,4.52c0,0-.09.03-.14.03h-.02Zm-10.48-4.46l10.47,3.75l9.01-4.11-10.27-3.56-9.21,3.92Z" fill="#fff"/><path d="M246.21,140.95l12.49-5.38l10.76,3.66-12.05,5.17-11.2-3.45Z" fill="#102337"/><path d="M257.41,144.74c0,0-.07,0-.1-.02l-11.2-3.44c-.14-.04-.23-.16-.24-.3c0-.14.07-.27.2-.33l12.49-5.38c.08-.03.17-.04.24,0l10.77,3.66c.13.05.22.17.23.31c0,.14-.08.27-.21.32l-12.06,5.17c0,0-.09.03-.13.03l.01-.02Zm-10.22-3.84l10.2,3.14l11.13-4.77-9.81-3.33-11.52,4.97v-.01Z" fill="#fff"/><path d="M224.47,150.86l-10.34,4.09l10.98,3.87l10.55-4.52-11.19-3.44Z" fill="#102337"/><path d="M225.11,159.16c0,0-.08,0-.11-.02l-10.98-3.88c-.13-.05-.22-.17-.23-.31c0-.14.08-.27.21-.32l10.33-4.09c.07-.03.15-.03.22,0l11.2,3.44c.14.04.23.16.24.31s-.07.27-.21.33l-10.55,4.52c0,0-.09.03-.13.03l.01-.01Zm-10.01-4.23l10,3.53l9.58-4.11-10.2-3.14-9.38,3.71v.01Z" fill="#fff"/><path d="M218.44,148.28l-10.77,4.52-10.55-3.02l11.63-4.95l9.69,3.45Z" fill="#92aeb9"/><path d="M214.35,142.68l10.76-4.74l9.91,3.01-10.77,4.74-9.9-3.01Z" fill="#fff"/><path d="M224.25,146.03c0,0-.07,0-.1-.01l-9.9-3.01c-.13-.04-.23-.16-.24-.3c0-.14.07-.27.2-.33l10.76-4.74c.07-.03.16-.04.23-.01l9.9,3.01c.13.04.23.16.24.3c0,.14-.07.27-.2.33l-10.76,4.74c0,0-.09.03-.14.03l.01-.01Zm-8.93-3.41l8.91,2.71l9.81-4.32-8.91-2.71-9.81,4.32Z" fill="#fff"/><path d="M231.14,136l12.06-4.73l10.12,2.8-13.78,4.95-8.4-3.02Z" fill="#92aeb9"/><path d="M191.74,151.94l10.33,3.22-12.05,5.39-9.91-3.66l11.63-4.95Z" fill="#102337"/><path d="M190.02,160.89c0,0-.08,0-.12-.02l-9.9-3.66c-.13-.05-.22-.17-.22-.31s.08-.27.21-.32l11.63-4.95c.08-.03.16-.04.23-.01l10.33,3.23c.13.04.23.16.24.3c0,.14-.07.27-.2.33l-12.06,5.38c0,0-.09.03-.14.03Zm-8.99-4.02l8.98,3.32l11.11-4.96-9.36-2.93-10.73,4.57Z" fill="#fff"/><path d="M207.03,157.32l13.35,4.52-13.14,5.6-11.62-4.31l11.41-5.81Z" fill="#102337"/><path d="M207.24,167.78c0,0-.08,0-.12-.02l-11.63-4.31c-.13-.05-.21-.16-.22-.3c0-.13.06-.26.18-.32l11.41-5.81c.08-.04.17-.05.26-.02l13.35,4.52c.13.04.22.17.23.31c0,.14-.08.27-.21.32l-13.13,5.6c0,0-.09.03-.13.03h.01Zm-10.79-4.69l10.78,3.99l12.19-5.2-12.38-4.19-10.6,5.4h.01Z" fill="#fff"/><path d="M19.7201,89.07l31,6.46-18.14,66.27L0.340088,140.74L19.7201,89.07Z" fill="#fff"/><path d="M32.5799,162.14c-.06,0-.13-.02-.18-.06L0.149932,141.02c-.13-.09-.19-.25-.13-.4L19.3999,88.95c.06-.16.21-.25.39-.21l31,6.46c.09.02.17.07.22.15s.06.18.04.27l-18.14,66.27c-.03.1-.11.19-.21.23-.04.01-.08.02-.12.02ZM0.749932,140.6L32.3699,161.26l17.93-65.48-30.37-6.33L0.749932,140.6Z" fill="#fff"/><path d="M358.81,139.46c-.19,0-.34-.15-.34-.34v-3c0-.19.15-.34.34-.34s.34.15.34.34v3c0,.19-.15.34-.34.34Zm0-6c-.19,0-.34-.15-.34-.34v-3c0-.19.15-.34.34-.34s.34.15.34.34v3c0,.19-.15.34-.34.34Zm0-6c-.19,0-.34-.15-.34-.34v-3c0-.19.15-.34.34-.34s.34.15.34.34v3c0,.19-.15.34-.34.34Zm0-6c0,0-.34-.15-.34-.34v-3c0-.19.15-.34.34-.34s.34.15.34.34v3c0,.19-.15.34-.34.34Zm0-6c0,0-.34-.15-.34-.34v-3c0-.19.15-.34.34-.34s.34.15.34.34v3c0,.19-.34.34-.34.34Zm0-6c-.19,0-.34-.15-.34-.34v-3c0-.19.15-.34.34-.34s.34.15.34.34v3c0,.19-.15.34-.34.34Z" fill="#fff" stroke-dashoffset="18.2925" stroke-dasharray="0"/><path d="M358.81,32.24c-.19,0-.34-.15-.34-.34v-3c0-.19.15-.34.34-.34s.34.15.34.34v3c0,.19-.15.34-.34.34Zm-91.07-4.6c-.19,0-.34-.15-.34-.34v-3c0-.19.15-.34.34-.34s.34.15.34.34v3c0,.19-.15.34-.34.34Zm91.07-1.4c-.19,0-.34-.15-.34-.34v-3c0-.19.15-.34.34-.34s.34.15.34.34v3c0,.19-.15.34-.34.34Zm-91.07-4.6c-.19,0-.34-.15-.34-.34v-3c0-.19.15-.34.34-.34s.34.15.34.34v3c0,.19-.15.34-.34.34Zm91.07-1.4c-.19,0-.34-.15-.34-.34v-2.99c0-.19.14-.34.33-.35.18,0,.33.15.34.33v3.01c0,.19-.15.34-.33.34Zm-90.92-4.59c0,0-.04,0-.05,0-.18-.03-.31-.2-.28-.39.17-1.02.46-2.01.89-2.95.08-.17.28-.25.45-.17s.25.28.17.45c-.4.89-.68,1.82-.84,2.78-.03.17-.17.28-.33.28h-.01Zm90.46-1.36c-.15,0-.28-.1-.32-.24-.27-.93-.67-1.82-1.18-2.65-.1-.16-.05-.37.11-.47s.37-.05.46.11c.54.88.96,1.83,1.25,2.82.05.18-.05.37-.23.42-.03,0-.06.01-.09.01Zm-88.02-4.04c-.08,0-.15-.03-.21-.08-.14-.12-.17-.33-.05-.48.65-.8,1.41-1.5,2.25-2.1.15-.11.36-.07.47.08s.07.36-.08.47c-.79.57-1.5,1.23-2.12,1.98-.07.08-.16.12-.26.12v.01Zm84.92-1.02c-.08,0-.17-.03-.23-.09-.7-.67-1.49-1.24-2.35-1.71-.16-.09-.22-.29-.13-.46s.29-.23.46-.14c.9.49,1.74,1.1,2.49,1.81.13.13.14.34.01.48-.07.07-.16.11-.25.11Zm-80.1-2.42c-.14,0-.27-.08-.32-.22-.07-.18.02-.37.2-.44.96-.36,1.97-.59,3-.69.19-.02.35.12.37.31s-.12.35-.31.37c-.97.09-1.92.31-2.83.65-.04.01-.08.02-.12.02h.01Zm74.89-.41c-1.234816-1.300599-.05,0-.08,0-.84-.2-1.71-.3-2.58-.3h-.32c-.19,0-.34-.15-.34-.34s.15-.34.34-.34h.32c.92,0,1.85.11,2.74.32.18.04.29.23.25.41-.04.16-.18.26-.33.26c0,0,.002066-.007824,0-.01Zm-5.97-.31h-3c-.19,0-.34-.15-.34-.34s.15-.34.34-.34h3c.19,0,.34.15.34.34s-.15.34-.34.34Zm-6,0h-3c-.19,0-.34-.15-.34-.34s.15-.34.34-.34h3c.19,0,.34.15.34.34s-.15.34-.34.34Zm-6,0h-3c-.19,0-.34-.15-.34-.34s.15-.34.34-.34h3c.19,0,.34.15.34.34s-.15.34-.34.34Zm-6,0h-3c-.19,0-.34-.15-.34-.34s.15-.34.34-.34h3c.19,0,.34.15.34.34s-.15.34-.34.34Zm-6,0h-3c-.19,0-.34-.15-.34-.34s.15-.34.34-.34h3c.19,0,.34.15.34.34s-.15.34-.34.34Zm-6,0h-3c-.19,0-.34-.15-.34-.34s.15-.34.34-.34h3c.19,0,.34.15.34.34s-.15.34-.34.34Zm-6,0h-3c-.19,0-.34-.15-.34-.34s.15-.34.34-.34h3c.19,0,.34.15.34.34s-.15.34-.34.34Zm-6,0h-3c-.19,0-.34-.15-.34-.34s.15-.34.34-.34h3c.19,0,.34.15.34.34s-.15.34-.34.34Zm-6,0h-3c-.19,0-.34-.15-.34-.34s.15-.34.34-.34h3c.19,0,.34.15.34.34s-.15.34-.34.34Zm-6,0h-3c-.19,0-.34-.15-.34-.34s.15-.34.34-.34h3c.19,0,.34.15.34.34s-.15.34-.34.34Zm-6,0h-3c-.19,0-.34-.15-.34-.34s.15-.34.34-.34h3c.19,0,.34.15.34.34s-.15.34-.34.34Z" fill="#fff"/><path d="M286.44,35.06h-40.78c-6.373,0-11.54,5.1666-11.54,11.54v38.16c0,6.3734,5.167,11.54,11.54,11.54h40.78c6.373,0,11.54-5.1666,11.54-11.54v-38.16c0-6.3734-5.167-11.54-11.54-11.54Z" fill="#fff"/><path d="M286.45,96.64h-40.79c-6.55,0-11.88-5.33-11.88-11.88v-38.16c0-6.55,5.33-11.88,11.88-11.88h40.79c6.55,0,11.88,5.33,11.88,11.88v38.16c0,6.55-5.33,11.88-11.88,11.88ZM245.66,35.4c-6.18,0-11.2,5.02-11.2,11.2v38.16c0,6.18,5.03,11.2,11.2,11.2h40.79c6.18,0,11.2-5.02,11.2-11.2v-38.16c0-6.18-5.03-11.2-11.2-11.2h-40.79Z" fill="#fff"/><path d="M285.06,33.04h-40.78c-6.373,0-11.54,5.1666-11.54,11.54v38.16c0,6.3734,5.167,11.54,11.54,11.54h40.78c6.373,0,11.54-5.1666,11.54-11.54v-38.16c0-6.3734-5.167-11.54-11.54-11.54Z" fill="#102337"/><path d="M285.06,94.61h-40.79c-6.55,0-11.88-5.33-11.88-11.88v-38.16c0-6.55,5.33-11.88,11.88-11.88h40.79c6.55,0,11.88,5.33,11.88,11.88v38.16c0,6.55-5.33,11.88-11.88,11.88ZM244.27,33.37c-6.18,0-11.2,5.02-11.2,11.2v38.16c0,6.18,5.03,11.2,11.2,11.2h40.79c6.18,0,11.2-5.02,11.2-11.2v-38.16c0-6.18-5.02-11.2-11.2-11.2h-40.79Z" fill="#fff"/><path d="M261.19,61.61c-1.09,1.4-2.57,2.1-4.44,2.1s-3.3-.7-4.37-2.1-1.61-3.1-1.61-5.11.54-3.75,1.63-5.13c1.08-1.38,2.55-2.07,4.39-2.07s3.35.69,4.42,2.07s1.6,3.09,1.6,5.13-.54,3.71-1.63,5.11h.01ZM253.59,79l-1.58-1.33L275,48.95l1.58,1.33L253.59,79Zm5.97-26.2c-.65-.99-1.58-1.48-2.76-1.48s-2.11.49-2.79,1.48c-.67.99-1.01,2.22-1.01,3.7s.34,2.67,1.01,3.65c.67.99,1.61,1.48,2.79,1.48s2.11-.49,2.76-1.48c.66-.99.99-2.2.99-3.65s-.33-2.71-.99-3.7Zm16.63,23.76c-1.08,1.4-2.55,2.1-4.39,2.1s-3.34-.69-4.39-2.07-1.58-3.09-1.58-5.13.53-3.75,1.6-5.13s2.54-2.07,4.42-2.07s3.3.69,4.37,2.07s1.6,3.09,1.6,5.13-.54,3.71-1.63,5.11v-.01Zm-1.58-8.81c-.66-.99-1.59-1.48-2.81-1.48s-2.11.49-2.76,1.48-.98,2.22-.98,3.7.33,2.66.98,3.65c.66.99,1.58,1.48,2.76,1.48s2.15-.49,2.81-1.48.99-2.21.99-3.65-.33-2.71-.99-3.7Z" fill="#b81734"/><path id="enIrR5ESuk036" d="M354.55,97.91c-14.14,0-25.65-11.51-25.65-25.65c0-7.41,3.2-14.45,8.78-19.33.14-.12.35-.11.48.03.12.14.11.35-.03.48-5.44,4.75-8.55,11.61-8.55,18.82c0,13.77,11.21,24.98,24.98,24.98.19,0,.34.15.34.34s-.15.34-.34.34l-.01-.01Z" opacity="0" fill="#b81734"/><path id="enIrR5ESuk037" d="M371.36,91.53c-.09,0-.19-.04-.25-.11-.12-.14-.11-.35.03-.48c5.34-4.74,8.4-11.55,8.4-18.68c0-13.77-11.21-24.98-24.98-24.98-.19,0-.34-.15-.34-.34s.15-.34.34-.34c14.15,0,25.65,11.51,25.65,25.65c0,7.33-3.14,14.32-8.63,19.19-.06.06-.14.09-.22.09Z" transform="translate(-.785004 0)" opacity="0" fill="#b81734" stroke-dasharray="124.44"/><path id="enIrR5ESuk038" d="M357.94,51.75c-.09,0-.19-.04-.26-.12l-3.88-4.52c-.12-.14-.11-.34.02-.46l3.71-3.55c.13-.13.35-.12.48.01.13.14.12.35-.01.48l-3.48,3.33l3.67,4.28c.12.14.11.36-.04.48-.06.05-.14.08-.22.08l.01-.01Z" opacity="0" fill="#b81734"/><path id="enIrR5ESuk039" d="M351.31,101.75c-.09,0-.18-.04-.24-.1-.13-.14-.12-.35.01-.48l3.48-3.33-3.67-4.28c-.12-.14-.11-.36.04-.48.14-.12.35-.11.48.04l3.88,4.52c.12.14.11.34-.02.46l-3.71,3.55c-.07.06-.15.09-.23.09l-.02.01Z" opacity="0" fill="#b81734"/><path id="enIrR5ESuk040" d="M355.5,54l-.584,1.9059h-1.916l1.565,1.1882L353.958,59l1.542-1.1881L357.042,59l-.584-1.9059L358,55.9307h-1.916L355.5,54Z" opacity="0" fill="#fff"/><path d="M347.5,57l-.584,1.5172h-1.916l1.542.9459L345.958,61l1.542-.9458L349.042,61l-.607-1.5369L350,58.5369h-1.916L347.5,57Z" fill="#fff"/><path id="enIrR5ESuk042" d="M363.512,57l-.587,1.5172h-1.925l1.549.9459L361.962,61l1.55-.9458L365.038,61l-.587-1.5369L366,58.5369h-1.901L363.512,57Z" opacity="0" fill="#fff"/><path d="M341.5,62l-.584,1.9212h-1.916l1.565,1.1822L339.958,67l1.542-1.1823L343.042,67l-.584-1.9212L344,63.9212h-1.916L341.5,62Z" fill="#fff"/><path id="enIrR5ESuk044" d="M368.5,62l-.584,1.9212h-1.916l1.565,1.1822L366.958,67l1.542-1.1823L370.042,67l-.584-1.9212L371,63.9212h-1.916L368.5,62Z" opacity="0" fill="#fff"/><path d="M339.5,70l-.584,1.9059h-1.916l1.565,1.1882L337.958,75l1.542-1.1634L341.042,75l-.584-1.9059L342,71.9307h-1.916L339.5,70Z" fill="#fff"/><path id="enIrR5ESuk046" d="M370.5,70l-.584,1.9059h-1.916l1.565,1.1882L368.958,75l1.542-1.1634L372.042,75l-.584-1.9059L373,71.9307h-1.916L370.5,70Z" opacity="0" fill="#fff"/><path d="M368.5,78l-.584,1.9059h-1.916l1.565,1.1882L366.958,83l1.542-1.1881L370.042,83l-.584-1.9307L371,79.9059h-1.916L368.5,78Z" fill="#fff"/><path d="M341.5,78l-.584,1.9059h-1.916l1.565,1.1882L339.958,83l1.542-1.1881L343.042,83l-.584-1.9307L344,79.9059h-1.916L341.5,78Z" fill="#fff"/><path d="M347.5,84l-.584,1.9059h-1.916l1.542,1.1882L345.958,89l1.542-1.1881L349.042,89l-.607-1.9307L350,85.9059h-1.916L347.5,84Z" fill="#fff"/><path d="M363.512,84l-.587,1.9059h-1.925l1.549,1.1882L361.962,89l1.55-1.1881L365.038,89l-.587-1.9307L366,85.9059h-1.901L363.512,84Z" fill="#fff"/><path d="M355.5,86l-.584,1.9212h-1.916l1.565,1.1822L353.958,91l1.542-1.1823L357.042,91l-.584-1.9212L358,87.9212h-1.916L355.5,86Z" fill="#fff"/><path d="M176.86,37.4c-.82,0-1.65-.6-1.91-1.37l-6.38-13.41c-.96-.01-3.94-.07-6.9-.42-5.11-.61-7.6-1.75-7.6-3.48c0-3.58,11.43-3.89,14.49-3.91l6.38-13.45c.22-.729998,1.07-1.349998,1.9-1.349998h3.5c.45,0,.85.19,1.09.52s.29.759998.15,1.199998l-3.22,13.14l12.3,1.22l2.01-3.38c.16-.44.73-.83,1.28-.83h1.95c.62,0,1.13.51,1.13,1.13v11.41c0,.62-.5,1.13-1.13,1.13h-1.95c-.55,0-1.12-.39-1.32-.91l-1.97-3.3-12.3,1.23l3.24,13.17c.13.39.08.83-.16,1.16s-.63.52-1.09.52h-3.5l.01-.02ZM169.2,21.61l6.69,14.08c.12.37.58.71.97.71h3.5c.13,0,.23-.04.28-.1.05-.07.05-.17.01-.3l-3.53-14.33l14.08-1.41l2.34,3.92c.09.21.29.34.42.34h1.95c.07,0,.13-.06.13-.13v-11.41c0-.07-.06-.13-.13-.13h-1.95c-.14,0-.34.14-.39.27l-2.37,4-14.08-1.4l3.51-14.29c.05-.16.05-.27,0-.33-.05-.07-.15-.1-.28-.1h-3.5c-.39,0-.85.34-.97.71l-6.67,14.08h-.32c-5.73,0-13.81.91-13.81,2.91s8.06,2.91,13.8,2.91h.33-.01Z" fill="#fff"/><path d="M230,69.81h-3c-.19,0-.34-.15-.34-.34s.15-.34.34-.34h3c.19,0,.34.15.34.34s-.15.34-.34.34Zm-6,0h-3c-.19,0-.34-.15-.34-.34s.15-.34.34-.34h3c.19,0,.34.15.34.34s-.15.34-.34.34Zm-6,0h-3c-.19,0-.34-.15-.34-.34s.15-.34.34-.34h3c.19,0,.34.15.34.34s-.15.34-.34.34Zm-6,0h-3c-.19,0-.34-.15-.34-.34s.15-.34.34-.34h3c.19,0,.34.15.34.34s-.15.34-.34.34Zm-6,0h-3c-.19,0-.34-.15-.34-.34s.15-.34.34-.34h3c.19,0,.34.15.34.34s-.15.34-.34.34Zm-6,0h-3c-.19,0-.34-.15-.34-.34s.15-.34.34-.34h3c.19,0,.34.15.34.34s-.15.34-.34.34Zm-6,0h-3c-.19,0-.34-.15-.34-.34s.15-.34.34-.34h3c.19,0,.34.15.34.34s-.15.34-.34.34Zm-5.98-.31c0,0-.05,0-.08,0-1-.24-1.97-.61-2.87-1.11-.16-.09-.22-.3-.13-.46s.3-.22.46-.13c.85.47,1.76.82,2.7,1.05.18.04.29.23.25.41-.04.16-.18.26-.33.26v-.02Zm-5.19-2.87c-.08,0-.17-.03-.24-.1-.74-.72-1.38-1.54-1.9-2.43-.09-.16-.04-.37.12-.46s.37-.04.46.12c.49.84,1.09,1.6,1.79,2.28.13.13.14.34,0,.48-.07.07-.15.1-.24.1l.01.01Zm-3-5.11c-.15,0-.29-.1-.33-.25-.26-.96-.39-1.97-.39-2.97c0-.19.15-.38.34-.38s.34.11.34.3v.08c0,.95.12,1.89.37,2.8.05.18-.06.37-.24.41-.03,0-.06.01-.09.01Zm-.38-5.97c-.19,0-.34-.15-.34-.34v-3c0-.19.15-.34.34-.34s.34.15.34.34v3c0,.19-.15.34-.34.34Zm0-6c-.19,0-.34-.15-.34-.34v-3c0-.19.15-.34.34-.34s.34.15.34.34v3c0,.19-.15.34-.34.34Z" fill="#fff"/><path d="M21.5599,141.47c1.4636,0,2.65-1.186,2.65-2.65s-1.1864-2.65-2.65-2.65-2.65,1.186-2.65,2.65s1.1865,2.65,2.65,2.65Z" fill="#c23227"/><path d="M21.56,143.18c-2.4,0-4.35-1.95-4.35-4.36s1.95-4.36,4.35-4.36s4.36,1.95,4.36,4.36-1.95,4.36-4.36,4.36Zm0-5.3c-.52,0-.94.42-.94.94s.42.94.94.94.94-.42.94-.94-.42-.94-.94-.94Z" fill="#c23227"/><path d="M296.39,171.08c-.12,0-.24-.07-.3-.18-.09-.17-.02-.37.14-.46L325.97,155c.17-.09.37-.02.46.14.09.17.02.37-.14.46l-29.74,15.44c0,0-.1.04-.16.04Z" fill="#fff"/></g><clipPath id="enIrR5ESuk057"><rect width="380.21" height="200.08" rx="0" ry="0" fill="#fff"/></clipPath></g><line id="enIrR5ESuk059" x1="-0.01" y1="-17.137982" x2="0.12" y2="17.237981" transform="translate(358.81 122.322019)" fill="none" stroke="#102337" stroke-width="3" stroke-dasharray="34.28"/>
<script><![CDATA[
(function(s,i,u,o,c,w,d,t,n,x,e,p,a,b){(a=Array.from(d.querySelectorAll('svg#' + i.root)).filter(n=> !n.svgatorPlayer)[0]||{}).svgatorPlayer={ready:(function(a){b=[];return function(c){return c?(b.push(c),a.svgatorPlayer):b}})(a)};w[o]=w[o]||{};w[o][s]=w[o][s]||[];w[o][s].push(i);e=d.createElementNS(n,t);e.async=true;e.setAttributeNS(x,'href',[u,s,'.','j','s','?','v','=',c].join(''));e.setAttributeNS(null,'src',[u,s,'.','j','s','?','v','=',c].join(''));p=d.getElementsByTagName(t)[0];p.parentNode.insertBefore(e,p);})('91c80d77',{"root":"enIrR5ESuk01","version":"2022-05-04","animations":[{"elements":{"enIrR5ESuk036":{"opacity":[{"t":0,"v":0},{"t":600,"v":0},{"t":1000,"v":1}]},"enIrR5ESuk037":{"opacity":[{"t":0,"v":0},{"t":600,"v":0},{"t":1000,"v":1}]},"enIrR5ESuk038":{"opacity":[{"t":0,"v":0},{"t":600,"v":0},{"t":1000,"v":1}]},"enIrR5ESuk039":{"opacity":[{"t":0,"v":0},{"t":600,"v":0},{"t":1000,"v":1}]},"enIrR5ESuk040":{"opacity":[{"t":0,"v":0},{"t":1000,"v":0},{"t":1200,"v":0.95}]},"enIrR5ESuk042":{"opacity":[{"t":0,"v":0},{"t":1200,"v":0},{"t":1400,"v":1}]},"enIrR5ESuk044":{"opacity":[{"t":0,"v":0},{"t":1600,"v":0},{"t":1800,"v":1}]},"enIrR5ESuk046":{"opacity":[{"t":0,"v":0},{"t":1800,"v":0}]},"enIrR5ESuk059":{"stroke-dashoffset":[{"t":0,"v":0},{"t":500,"v":34.28}]}},"s":"MDCA1ZGE2NGQ4ZHmEwOWQ4YzlmBOTQ5YTk5NGQD2NTVjNjNLNWGI1YjU3NGRDOYGY5NDlkOTA4GZTlmOTQ5YTkB5NGQ2NVM1YzPU3NGQ5NDlmOMTA5ZDhjOWY5JNDlhOTk5ZTRPkUDY1NWM1NzARkSTkxOTQ5NUzk3NGQ2NTVjHNTc0ZDhjOTcV5ZjkwTEY5ZDHk5OGM5ZjkwNHGQ2NTkxOGM5PNzllOTA1NzRQkOWU5YjkwWTFkwOGY0ZEE2NBTVjNTc0ZDkxJOWI5ZTRkNjUY1YzViNWJhOAR|"}],"options":"MDIAxME84MjI5NA2E3YjY4Nzk3WYjI5NDEyOTcTzNzY2OE42YjKI5ODQ/"},'https://cdn.svgator.com/ply/','__SVGATOR_PLAYER__','2022-05-04',window,document,'script','http://www.w3.org/2000/svg','http://www.w3.org/1999/xlink')
]]></script>
</svg>
