<svg class="leaflet-marker" xmlns="http://www.w3.org/2000/svg" viewBox="0 0 286 381.113"><path d="M130.48 374.121a190.411 190.411 0 01-19.192-19.107c-15.158-16.949-32.246-39.443-48.115-63.341-17.942-27.018-33.141-54.042-43.952-78.15a275.609 275.609 0 01-13.987-37.616C1.76 163.544 0 152.473 0 143a144.057 144.057 0 012.905-28.82 142.194 142.194 0 0121.517-51.132 143.429 143.429 0 0162.915-51.81 142.32 142.32 0 0126.843-8.333 144.4 144.4 0 0157.64 0 142.194 142.194 0 0151.133 21.517 143.429 143.429 0 0151.81 62.915 142.321 142.321 0 018.337 26.843A144.057 144.057 0 01286 143c0 9.473-1.76 20.544-5.234 32.907a275.607 275.607 0 01-13.988 37.616c-10.812 24.107-26.01 51.132-43.952 78.15-15.869 23.9-32.957 46.392-48.115 63.341a190.413 190.413 0 01-19.192 19.107c-5.59 4.639-9.8 6.992-12.52 6.992s-6.929-2.353-12.519-6.992zm-4.413-313.363a86.035 86.035 0 00-30.93 13.015A86.741 86.741 0 0063.8 111.83a86.027 86.027 0 00-5.04 16.237 87.33 87.33 0 000 34.866 86.035 86.035 0 0013.015 30.929 86.748 86.748 0 0038.058 31.34 86.039 86.039 0 0016.236 5.04 87.33 87.33 0 0034.866 0 86.03 86.03 0 0030.93-13.015 86.748 86.748 0 0031.34-38.058 86.04 86.04 0 005.04-16.236 87.329 87.329 0 000-34.866 86.03 86.03 0 00-13.015-30.93A86.752 86.752 0 00177.17 65.8a85.961 85.961 0 00-16.237-5.04 87.33 87.33 0 00-34.866 0zM98 146a45 45 0 1145 45 45 45 0 01-45-45z" fill="#4e4e56"/></svg>