<svg class="leaflet-marker" xmlns="http://www.w3.org/2000/svg" viewBox="0 0 286 381.113">
  <path id="pin" d="M130.48,374.121a190.411,190.411,0,0,1-19.192-19.107c-15.158-16.949-32.246-39.443-48.115-63.341-17.942-27.018-33.141-54.042-43.952-78.15A275.609,275.609,0,0,1,5.234,175.907C1.76,163.544,0,152.473,0,143a144.057,144.057,0,0,1,2.905-28.82A142.194,142.194,0,0,1,24.422,63.048a143.429,143.429,0,0,1,62.915-51.81A142.32,142.32,0,0,1,114.18,2.905a144.4,144.4,0,0,1,57.64,0,142.194,142.194,0,0,1,51.133,21.517,143.429,143.429,0,0,1,51.81,62.915A142.321,142.321,0,0,1,283.1,114.18,144.057,144.057,0,0,1,286,143c0,9.473-1.76,20.544-5.234,32.907a275.607,275.607,0,0,1-13.988,37.616c-10.812,24.107-26.01,51.132-43.952,78.15-15.869,23.9-32.957,46.392-48.115,63.341a190.413,190.413,0,0,1-19.192,19.107c-5.59,4.639-9.8,6.992-12.52,6.992S136.07,378.76,130.48,374.121ZM126.067,60.758A86.035,86.035,0,0,0,95.137,73.773,86.741,86.741,0,0,0,63.8,111.83a86.027,86.027,0,0,0-5.04,16.237,87.33,87.33,0,0,0,0,34.866,86.035,86.035,0,0,0,13.015,30.929,86.748,86.748,0,0,0,38.058,31.34,86.039,86.039,0,0,0,16.236,5.04,87.33,87.33,0,0,0,34.866,0,86.03,86.03,0,0,0,30.93-13.015,86.748,86.748,0,0,0,31.34-38.058,86.04,86.04,0,0,0,5.04-16.236,87.329,87.329,0,0,0,0-34.866,86.03,86.03,0,0,0-13.015-30.93A86.752,86.752,0,0,0,177.17,65.8a85.961,85.961,0,0,0-16.237-5.04,87.33,87.33,0,0,0-34.866,0ZM98,146a45,45,0,1,1,45,45A45,45,0,0,1,98,146Z" style="fill: #4E4E56;" />
</svg>
