<svg class="lds-spinner" width="200" height="200" xmlns="http://www.w3.org/2000/svg" viewBox="0 0 100 100" preserveAspectRatio="xMidYMid" style="background:0 0"><rect x="47" y="22.5" rx="9.4" ry="4.5" width="6" height="15" fill="#28292f"><animate attributeName="opacity" values="1;0" keyTimes="0;1" dur="1s" begin="-0.9s" repeatCount="indefinite"/></rect><rect x="47" y="22.5" rx="9.4" ry="4.5" width="6" height="15" fill="#28292f" transform="rotate(36 50 50)"><animate attributeName="opacity" values="1;0" keyTimes="0;1" dur="1s" begin="-0.8s" repeatCount="indefinite"/></rect><rect x="47" y="22.5" rx="9.4" ry="4.5" width="6" height="15" fill="#28292f" transform="rotate(72 50 50)"><animate attributeName="opacity" values="1;0" keyTimes="0;1" dur="1s" begin="-0.7s" repeatCount="indefinite"/></rect><rect x="47" y="22.5" rx="9.4" ry="4.5" width="6" height="15" fill="#28292f" transform="rotate(108 50 50)"><animate attributeName="opacity" values="1;0" keyTimes="0;1" dur="1s" begin="-0.6s" repeatCount="indefinite"/></rect><rect x="47" y="22.5" rx="9.4" ry="4.5" width="6" height="15" fill="#28292f" transform="rotate(144 50 50)"><animate attributeName="opacity" values="1;0" keyTimes="0;1" dur="1s" begin="-0.5s" repeatCount="indefinite"/></rect><rect x="47" y="22.5" rx="9.4" ry="4.5" width="6" height="15" fill="#28292f" transform="rotate(180 50 50)"><animate attributeName="opacity" values="1;0" keyTimes="0;1" dur="1s" begin="-0.4s" repeatCount="indefinite"/></rect><rect x="47" y="22.5" rx="9.4" ry="4.5" width="6" height="15" fill="#28292f" transform="rotate(216 50 50)"><animate attributeName="opacity" values="1;0" keyTimes="0;1" dur="1s" begin="-0.3s" repeatCount="indefinite"/></rect><rect x="47" y="22.5" rx="9.4" ry="4.5" width="6" height="15" fill="#28292f" transform="rotate(252 50 50)"><animate attributeName="opacity" values="1;0" keyTimes="0;1" dur="1s" begin="-0.2s" repeatCount="indefinite"/></rect><rect x="47" y="22.5" rx="9.4" ry="4.5" width="6" height="15" fill="#28292f" transform="rotate(288 50 50)"><animate attributeName="opacity" values="1;0" keyTimes="0;1" dur="1s" begin="-0.1s" repeatCount="indefinite"/></rect><rect x="47" y="22.5" rx="9.4" ry="4.5" width="6" height="15" fill="#28292f" transform="rotate(324 50 50)"><animate attributeName="opacity" values="1;0" keyTimes="0;1" dur="1s" begin="0s" repeatCount="indefinite"/></rect></svg>